solid OpenSCAD_Model
  facet normal -1 0 0
    outer loop
      vertex -9 -15 -2
      vertex -9 15 2
      vertex -9 15 -2
    endloop
  endfacet
  facet normal -1 -0 0
    outer loop
      vertex -9 15 2
      vertex -9 -15 -2
      vertex -9 -15 2
    endloop
  endfacet
  facet normal 0 0 1
    outer loop
      vertex 9 -15 2
      vertex 0.799999 -9.61436 2
      vertex 1.6 -11 2
    endloop
  endfacet
  facet normal -0 0 1
    outer loop
      vertex 0.451485 7.4395 2
      vertex 0.799999 -9.61436 2
      vertex 1.99172 8.32875 2
    endloop
  endfacet
  facet normal 0 0 1
    outer loop
      vertex 0.451485 7.4395 2
      vertex -0.799999 -9.61436 2
      vertex 0.799999 -9.61436 2
    endloop
  endfacet
  facet normal 0 0 1
    outer loop
      vertex -1.3 7.74833 2
      vertex -0.799999 -9.61436 2
      vertex 0.451485 7.4395 2
    endloop
  endfacet
  facet normal 0 0 1
    outer loop
      vertex -9 -15 2
      vertex -0.799999 -9.61436 2
      vertex -1.3 7.74833 2
    endloop
  endfacet
  facet normal 0 0 1
    outer loop
      vertex -9 -15 2
      vertex -1.3 7.74833 2
      vertex -2.4432 9.11075 2
    endloop
  endfacet
  facet normal 0 0 1
    outer loop
      vertex 1.99172 8.32875 2
      vertex 9 15 2
      vertex 2.6 10 2
    endloop
  endfacet
  facet normal 0 0 1
    outer loop
      vertex 9 15 2
      vertex 1.99172 11.6712 2
      vertex 2.6 10 2
    endloop
  endfacet
  facet normal 0 0 1
    outer loop
      vertex 9 15 2
      vertex 0.451485 12.5605 2
      vertex 1.99172 11.6712 2
    endloop
  endfacet
  facet normal -0 0 1
    outer loop
      vertex -9 15 2
      vertex 0.451485 12.5605 2
      vertex 9 15 2
    endloop
  endfacet
  facet normal 0 0 1
    outer loop
      vertex -2.4432 10.8893 2
      vertex -9 15 2
      vertex -2.4432 9.11075 2
    endloop
  endfacet
  facet normal 0 0 1
    outer loop
      vertex -1.3 12.2517 2
      vertex -9 15 2
      vertex -2.4432 10.8893 2
    endloop
  endfacet
  facet normal 0 0 1
    outer loop
      vertex 0.451485 12.5605 2
      vertex -9 15 2
      vertex -1.3 12.2517 2
    endloop
  endfacet
  facet normal 0 0 1
    outer loop
      vertex 9 15 2
      vertex 1.99172 8.32875 2
      vertex 9 -15 2
    endloop
  endfacet
  facet normal -0 0 1
    outer loop
      vertex 0.799999 -9.61436 2
      vertex 9 -15 2
      vertex 1.99172 8.32875 2
    endloop
  endfacet
  facet normal -0 0 1
    outer loop
      vertex 0.799999 -12.3856 2
      vertex 9 -15 2
      vertex 1.6 -11 2
    endloop
  endfacet
  facet normal -0 0 1
    outer loop
      vertex -0.799999 -12.3856 2
      vertex 9 -15 2
      vertex 0.799999 -12.3856 2
    endloop
  endfacet
  facet normal 0 0 1
    outer loop
      vertex -9 -15 2
      vertex -2.4432 9.11075 2
      vertex -9 15 2
    endloop
  endfacet
  facet normal 0 0 1
    outer loop
      vertex -0.799999 -12.3856 2
      vertex -9 -15 2
      vertex 9 -15 2
    endloop
  endfacet
  facet normal 0 0 1
    outer loop
      vertex -1.6 -11 2
      vertex -9 -15 2
      vertex -0.799999 -12.3856 2
    endloop
  endfacet
  facet normal 0 0 1
    outer loop
      vertex -0.799999 -9.61436 2
      vertex -9 -15 2
      vertex -1.6 -11 2
    endloop
  endfacet
  facet normal 1 -0 0
    outer loop
      vertex 9 -15 2
      vertex 9 15 -2
      vertex 9 15 2
    endloop
  endfacet
  facet normal 1 0 0
    outer loop
      vertex 9 15 -2
      vertex 9 -15 2
      vertex 9 -15 -2
    endloop
  endfacet
  facet normal 0 0 -1
    outer loop
      vertex 1.99172 8.32875 -2
      vertex 9 15 -2
      vertex 9 -15 -2
    endloop
  endfacet
  facet normal 0 0 -1
    outer loop
      vertex 9 15 -2
      vertex 1.99172 8.32875 -2
      vertex 2.6 10 -2
    endloop
  endfacet
  facet normal 0 0 -1
    outer loop
      vertex 0.799999 -9.61436 -2
      vertex 9 -15 -2
      vertex 1.6 -11 -2
    endloop
  endfacet
  facet normal 0 0 -1
    outer loop
      vertex 9 -15 -2
      vertex 0.799999 -12.3856 -2
      vertex 1.6 -11 -2
    endloop
  endfacet
  facet normal 0 0 -1
    outer loop
      vertex 9 -15 -2
      vertex -0.799999 -12.3856 -2
      vertex 0.799999 -12.3856 -2
    endloop
  endfacet
  facet normal 0 0 -1
    outer loop
      vertex -9 15 -2
      vertex -2.4432 9.11075 -2
      vertex -9 -15 -2
    endloop
  endfacet
  facet normal -0 0 -1
    outer loop
      vertex -1.3 7.74833 -2
      vertex -9 -15 -2
      vertex -2.4432 9.11075 -2
    endloop
  endfacet
  facet normal -0 0 -1
    outer loop
      vertex -0.799999 -12.3856 -2
      vertex -9 -15 -2
      vertex -1.6 -11 -2
    endloop
  endfacet
  facet normal 0 0 -1
    outer loop
      vertex -9 -15 -2
      vertex -0.799999 -12.3856 -2
      vertex 9 -15 -2
    endloop
  endfacet
  facet normal 0 0 -1
    outer loop
      vertex 1.99172 11.6712 -2
      vertex 9 15 -2
      vertex 2.6 10 -2
    endloop
  endfacet
  facet normal 0 0 -1
    outer loop
      vertex 0.451485 12.5605 -2
      vertex 9 15 -2
      vertex 1.99172 11.6712 -2
    endloop
  endfacet
  facet normal 0 0 -1
    outer loop
      vertex -9 15 -2
      vertex 0.451485 12.5605 -2
      vertex -1.3 12.2517 -2
    endloop
  endfacet
  facet normal 0 0 -1
    outer loop
      vertex 0.451485 12.5605 -2
      vertex -9 15 -2
      vertex 9 15 -2
    endloop
  endfacet
  facet normal 0 0 -1
    outer loop
      vertex -2.4432 10.8893 -2
      vertex -9 15 -2
      vertex -1.3 12.2517 -2
    endloop
  endfacet
  facet normal 0 0 -1
    outer loop
      vertex -2.4432 9.11075 -2
      vertex -9 15 -2
      vertex -2.4432 10.8893 -2
    endloop
  endfacet
  facet normal 0 0 -1
    outer loop
      vertex 9 -15 -2
      vertex 0.799999 -9.61436 -2
      vertex 1.99172 8.32875 -2
    endloop
  endfacet
  facet normal 0 0 -1
    outer loop
      vertex 0.799999 -9.61436 -2
      vertex 0.451485 7.4395 -2
      vertex 1.99172 8.32875 -2
    endloop
  endfacet
  facet normal 0 0 -1
    outer loop
      vertex -0.799999 -9.61436 -2
      vertex 0.451485 7.4395 -2
      vertex 0.799999 -9.61436 -2
    endloop
  endfacet
  facet normal 0 0 -1
    outer loop
      vertex -0.799999 -9.61436 -2
      vertex -1.3 7.74833 -2
      vertex 0.451485 7.4395 -2
    endloop
  endfacet
  facet normal 0 0 -1
    outer loop
      vertex -9 -15 -2
      vertex -0.799999 -9.61436 -2
      vertex -1.6 -11 -2
    endloop
  endfacet
  facet normal 0 0 -1
    outer loop
      vertex -9 -15 -2
      vertex -1.3 7.74833 -2
      vertex -0.799999 -9.61436 -2
    endloop
  endfacet
  facet normal 0 -1 0
    outer loop
      vertex -9 -15 -2
      vertex 9 -15 2
      vertex -9 -15 2
    endloop
  endfacet
  facet normal 0 -1 -0
    outer loop
      vertex 9 -15 2
      vertex -9 -15 -2
      vertex 9 -15 -2
    endloop
  endfacet
  facet normal 0 1 -0
    outer loop
      vertex 9 15 -2
      vertex -9 15 2
      vertex 9 15 2
    endloop
  endfacet
  facet normal 0 1 0
    outer loop
      vertex -9 15 2
      vertex 9 15 -2
      vertex -9 15 -2
    endloop
  endfacet
  facet normal -0.866025 -0.500001 0
    outer loop
      vertex 1.6 -11 -2
      vertex 0.799999 -9.61436 2
      vertex 0.799999 -9.61436 -2
    endloop
  endfacet
  facet normal -0.866025 -0.500001 0
    outer loop
      vertex 0.799999 -9.61436 2
      vertex 1.6 -11 -2
      vertex 1.6 -11 2
    endloop
  endfacet
  facet normal 0.866025 -0.500001 0
    outer loop
      vertex -1.6 -11 2
      vertex -0.799999 -9.61436 -2
      vertex -0.799999 -9.61436 2
    endloop
  endfacet
  facet normal 0.866025 -0.500001 0
    outer loop
      vertex -0.799999 -9.61436 -2
      vertex -1.6 -11 2
      vertex -1.6 -11 -2
    endloop
  endfacet
  facet normal 0 -1 0
    outer loop
      vertex -0.799999 -9.61436 -2
      vertex 0.799999 -9.61436 2
      vertex -0.799999 -9.61436 2
    endloop
  endfacet
  facet normal 0 -1 -0
    outer loop
      vertex 0.799999 -9.61436 2
      vertex -0.799999 -9.61436 -2
      vertex 0.799999 -9.61436 -2
    endloop
  endfacet
  facet normal -0.866019 0.500011 0
    outer loop
      vertex 0.799999 -12.3856 -2
      vertex 1.6 -11 2
      vertex 1.6 -11 -2
    endloop
  endfacet
  facet normal -0.866019 0.500011 0
    outer loop
      vertex 1.6 -11 2
      vertex 0.799999 -12.3856 -2
      vertex 0.799999 -12.3856 2
    endloop
  endfacet
  facet normal 0 1 -0
    outer loop
      vertex 0.799999 -12.3856 -2
      vertex -0.799999 -12.3856 2
      vertex 0.799999 -12.3856 2
    endloop
  endfacet
  facet normal 0 1 0
    outer loop
      vertex -0.799999 -12.3856 2
      vertex 0.799999 -12.3856 -2
      vertex -0.799999 -12.3856 -2
    endloop
  endfacet
  facet normal 0.866019 0.500011 0
    outer loop
      vertex -0.799999 -12.3856 2
      vertex -1.6 -11 -2
      vertex -1.6 -11 2
    endloop
  endfacet
  facet normal 0.866019 0.500011 0
    outer loop
      vertex -1.6 -11 -2
      vertex -0.799999 -12.3856 2
      vertex -0.799999 -12.3856 -2
    endloop
  endfacet
  facet normal -0.93969 -0.342027 0
    outer loop
      vertex 2.6 10 -2
      vertex 1.99172 11.6712 2
      vertex 1.99172 11.6712 -2
    endloop
  endfacet
  facet normal -0.93969 -0.342027 0
    outer loop
      vertex 1.99172 11.6712 2
      vertex 2.6 10 -2
      vertex 2.6 10 2
    endloop
  endfacet
  facet normal 1 -0 0
    outer loop
      vertex -2.4432 9.11075 2
      vertex -2.4432 10.8893 -2
      vertex -2.4432 10.8893 2
    endloop
  endfacet
  facet normal 1 0 0
    outer loop
      vertex -2.4432 10.8893 -2
      vertex -2.4432 9.11075 2
      vertex -2.4432 9.11075 -2
    endloop
  endfacet
  facet normal 0.17363 -0.984811 0
    outer loop
      vertex -1.3 12.2517 -2
      vertex 0.451485 12.5605 2
      vertex -1.3 12.2517 2
    endloop
  endfacet
  facet normal 0.17363 -0.984811 0
    outer loop
      vertex 0.451485 12.5605 2
      vertex -1.3 12.2517 -2
      vertex 0.451485 12.5605 -2
    endloop
  endfacet
  facet normal -0.500019 -0.866014 0
    outer loop
      vertex 0.451485 12.5605 -2
      vertex 1.99172 11.6712 2
      vertex 0.451485 12.5605 2
    endloop
  endfacet
  facet normal -0.500019 -0.866014 -0
    outer loop
      vertex 1.99172 11.6712 2
      vertex 0.451485 12.5605 -2
      vertex 1.99172 11.6712 -2
    endloop
  endfacet
  facet normal 0.766041 -0.642791 0
    outer loop
      vertex -2.4432 10.8893 2
      vertex -1.3 12.2517 -2
      vertex -1.3 12.2517 2
    endloop
  endfacet
  facet normal 0.766041 -0.642791 0
    outer loop
      vertex -1.3 12.2517 -2
      vertex -2.4432 10.8893 2
      vertex -2.4432 10.8893 -2
    endloop
  endfacet
  facet normal 0.766046 0.642786 0
    outer loop
      vertex -1.3 7.74833 2
      vertex -2.4432 9.11075 -2
      vertex -2.4432 9.11075 2
    endloop
  endfacet
  facet normal 0.766046 0.642786 0
    outer loop
      vertex -2.4432 9.11075 -2
      vertex -1.3 7.74833 2
      vertex -1.3 7.74833 -2
    endloop
  endfacet
  facet normal -0.499998 0.866027 0
    outer loop
      vertex 1.99172 8.32875 -2
      vertex 0.451485 7.4395 2
      vertex 1.99172 8.32875 2
    endloop
  endfacet
  facet normal -0.499998 0.866027 0
    outer loop
      vertex 0.451485 7.4395 2
      vertex 1.99172 8.32875 -2
      vertex 0.451485 7.4395 -2
    endloop
  endfacet
  facet normal -0.939694 0.342018 0
    outer loop
      vertex 1.99172 8.32875 -2
      vertex 2.6 10 2
      vertex 2.6 10 -2
    endloop
  endfacet
  facet normal -0.939694 0.342018 0
    outer loop
      vertex 2.6 10 2
      vertex 1.99172 8.32875 -2
      vertex 1.99172 8.32875 2
    endloop
  endfacet
  facet normal 0.173646 0.984808 -0
    outer loop
      vertex 0.451485 7.4395 -2
      vertex -1.3 7.74833 2
      vertex 0.451485 7.4395 2
    endloop
  endfacet
  facet normal 0.173646 0.984808 0
    outer loop
      vertex -1.3 7.74833 2
      vertex 0.451485 7.4395 -2
      vertex -1.3 7.74833 -2
    endloop
  endfacet
endsolid OpenSCAD_Model
