solid OpenSCAD_Model
  facet normal -1 0 0
    outer loop
      vertex 0 0 0
      vertex 0 30 10
      vertex 0 30 0
    endloop
  endfacet
  facet normal -1 -0 0
    outer loop
      vertex 0 30 10
      vertex 0 0 0
      vertex 0 0 10
    endloop
  endfacet
  facet normal 0 0 1
    outer loop
      vertex 28.1735 14.0459 10
      vertex 40 20 10
      vertex 40 30 10
    endloop
  endfacet
  facet normal 0 -0 1
    outer loop
      vertex 31.4 10 10
      vertex 40 20 10
      vertex 30.989 11.8006 10
    endloop
  endfacet
  facet normal 0 0 1
    outer loop
      vertex 40 20 10
      vertex 31.4 10 10
      vertex 40 0 10
    endloop
  endfacet
  facet normal 0 0 1
    outer loop
      vertex 40 20 10
      vertex 29.8375 13.2446 10
      vertex 30.989 11.8006 10
    endloop
  endfacet
  facet normal 0 0 1
    outer loop
      vertex 40 20 10
      vertex 28.1735 14.0459 10
      vertex 29.8375 13.2446 10
    endloop
  endfacet
  facet normal 0 0 1
    outer loop
      vertex 40 30 10
      vertex 26.3265 14.0459 10
      vertex 28.1735 14.0459 10
    endloop
  endfacet
  facet normal -0 0 1
    outer loop
      vertex 14.6194 21.9134 10
      vertex 26.3265 14.0459 10
      vertex 40 30 10
    endloop
  endfacet
  facet normal 0 0 1
    outer loop
      vertex 24.6625 13.2446 10
      vertex 14.6194 18.0866 10
      vertex 23.511 11.8006 10
    endloop
  endfacet
  facet normal -0 0 1
    outer loop
      vertex 14.6194 18.0866 10
      vertex 24.6625 13.2446 10
      vertex 15 20 10
    endloop
  endfacet
  facet normal -0 -0 1
    outer loop
      vertex 15 20 10
      vertex 26.3265 14.0459 10
      vertex 14.6194 21.9134 10
    endloop
  endfacet
  facet normal 0 0 1
    outer loop
      vertex 26.3265 14.0459 10
      vertex 15 20 10
      vertex 24.6625 13.2446 10
    endloop
  endfacet
  facet normal 0 0 1
    outer loop
      vertex 40 30 10
      vertex 13.5355 23.5355 10
      vertex 14.6194 21.9134 10
    endloop
  endfacet
  facet normal 0 0 1
    outer loop
      vertex 40 30 10
      vertex 11.9134 24.6194 10
      vertex 13.5355 23.5355 10
    endloop
  endfacet
  facet normal -0 0 1
    outer loop
      vertex 0 30 10
      vertex 11.9134 24.6194 10
      vertex 40 30 10
    endloop
  endfacet
  facet normal 0 0 1
    outer loop
      vertex 5.3806 21.9134 10
      vertex 0 30 10
      vertex 5 20 10
    endloop
  endfacet
  facet normal 0 0 1
    outer loop
      vertex 6.46447 23.5355 10
      vertex 0 30 10
      vertex 5.3806 21.9134 10
    endloop
  endfacet
  facet normal 0 0 1
    outer loop
      vertex 8.08658 24.6194 10
      vertex 0 30 10
      vertex 6.46447 23.5355 10
    endloop
  endfacet
  facet normal 0 0 1
    outer loop
      vertex 10 25 10
      vertex 0 30 10
      vertex 8.08658 24.6194 10
    endloop
  endfacet
  facet normal 0 0 1
    outer loop
      vertex 11.9134 24.6194 10
      vertex 0 30 10
      vertex 10 25 10
    endloop
  endfacet
  facet normal -0 0 1
    outer loop
      vertex 30.989 8.19938 10
      vertex 40 0 10
      vertex 31.4 10 10
    endloop
  endfacet
  facet normal -0 0 1
    outer loop
      vertex 29.8375 6.7554 10
      vertex 40 0 10
      vertex 30.989 8.19938 10
    endloop
  endfacet
  facet normal -0 0 1
    outer loop
      vertex 28.1735 5.95405 10
      vertex 40 0 10
      vertex 29.8375 6.7554 10
    endloop
  endfacet
  facet normal -0 0 1
    outer loop
      vertex 26.3265 5.95405 10
      vertex 40 0 10
      vertex 28.1735 5.95405 10
    endloop
  endfacet
  facet normal -0 0 1
    outer loop
      vertex 13.5355 16.4645 10
      vertex 23.511 11.8006 10
      vertex 14.6194 18.0866 10
    endloop
  endfacet
  facet normal 0 0 1
    outer loop
      vertex 23.511 11.8006 10
      vertex 13.5355 16.4645 10
      vertex 23.1 10 10
    endloop
  endfacet
  facet normal -0 0 1
    outer loop
      vertex 11.9134 15.3806 10
      vertex 23.1 10 10
      vertex 13.5355 16.4645 10
    endloop
  endfacet
  facet normal 0 0 1
    outer loop
      vertex 23.1 10 10
      vertex 11.9134 15.3806 10
      vertex 23.511 8.19938 10
    endloop
  endfacet
  facet normal -0 0 1
    outer loop
      vertex 10 15 10
      vertex 23.511 8.19938 10
      vertex 11.9134 15.3806 10
    endloop
  endfacet
  facet normal 0 0 1
    outer loop
      vertex 0 0 10
      vertex 23.511 8.19938 10
      vertex 10 15 10
    endloop
  endfacet
  facet normal 0 0 1
    outer loop
      vertex 0 0 10
      vertex 10 15 10
      vertex 8.08658 15.3806 10
    endloop
  endfacet
  facet normal 0 0 1
    outer loop
      vertex 0 0 10
      vertex 5 20 10
      vertex 0 30 10
    endloop
  endfacet
  facet normal 0 0 1
    outer loop
      vertex 26.3265 5.95405 10
      vertex 0 0 10
      vertex 40 0 10
    endloop
  endfacet
  facet normal 0 0 1
    outer loop
      vertex 24.6625 6.7554 10
      vertex 0 0 10
      vertex 26.3265 5.95405 10
    endloop
  endfacet
  facet normal 0 0 1
    outer loop
      vertex 23.511 8.19938 10
      vertex 0 0 10
      vertex 24.6625 6.7554 10
    endloop
  endfacet
  facet normal 0 0 1
    outer loop
      vertex 6.46447 16.4645 10
      vertex 0 0 10
      vertex 8.08658 15.3806 10
    endloop
  endfacet
  facet normal 0 0 1
    outer loop
      vertex 5.3806 18.0866 10
      vertex 0 0 10
      vertex 6.46447 16.4645 10
    endloop
  endfacet
  facet normal 0 0 1
    outer loop
      vertex 5 20 10
      vertex 0 0 10
      vertex 5.3806 18.0866 10
    endloop
  endfacet
  facet normal 0 0 1
    outer loop
      vertex 100 30 10
      vertex 95 20 10
      vertex 100 0 10
    endloop
  endfacet
  facet normal 0 0 1
    outer loop
      vertex 100 30 10
      vertex 94.6194 21.9134 10
      vertex 95 20 10
    endloop
  endfacet
  facet normal 0 0 1
    outer loop
      vertex 100 30 10
      vertex 93.5355 23.5355 10
      vertex 94.6194 21.9134 10
    endloop
  endfacet
  facet normal 0 0 1
    outer loop
      vertex 100 30 10
      vertex 91.9134 24.6194 10
      vertex 93.5355 23.5355 10
    endloop
  endfacet
  facet normal 0 0 1
    outer loop
      vertex 100 30 10
      vertex 90 25 10
      vertex 91.9134 24.6194 10
    endloop
  endfacet
  facet normal 0 0 1
    outer loop
      vertex 100 30 10
      vertex 88.0866 24.6194 10
      vertex 90 25 10
    endloop
  endfacet
  facet normal 0 0 1
    outer loop
      vertex 72.6735 14.0459 10
      vertex 85 20 10
      vertex 85.3806 21.9134 10
    endloop
  endfacet
  facet normal 0 0 1
    outer loop
      vertex 60 30 10
      vertex 85.3806 21.9134 10
      vertex 86.4645 23.5355 10
    endloop
  endfacet
  facet normal 0 0 1
    outer loop
      vertex 85 20 10
      vertex 75.489 11.8006 10
      vertex 75.9 10 10
    endloop
  endfacet
  facet normal 0 0 1
    outer loop
      vertex 85 20 10
      vertex 74.3375 13.2446 10
      vertex 75.489 11.8006 10
    endloop
  endfacet
  facet normal 0 0 1
    outer loop
      vertex 85 20 10
      vertex 72.6735 14.0459 10
      vertex 74.3375 13.2446 10
    endloop
  endfacet
  facet normal 0 0 1
    outer loop
      vertex 85.3806 21.9134 10
      vertex 60 30 10
      vertex 72.6735 14.0459 10
    endloop
  endfacet
  facet normal 0 0 1
    outer loop
      vertex 60 30 10
      vertex 86.4645 23.5355 10
      vertex 88.0866 24.6194 10
    endloop
  endfacet
  facet normal 0 0 1
    outer loop
      vertex 72.6735 14.0459 10
      vertex 60 30 10
      vertex 70.8265 14.0459 10
    endloop
  endfacet
  facet normal 0 0 1
    outer loop
      vertex 69.1625 13.2446 10
      vertex 60 20 10
      vertex 68.011 11.8006 10
    endloop
  endfacet
  facet normal 0 0 1
    outer loop
      vertex 70.8265 14.0459 10
      vertex 60 20 10
      vertex 69.1625 13.2446 10
    endloop
  endfacet
  facet normal -0 0 1
    outer loop
      vertex 60 20 10
      vertex 70.8265 14.0459 10
      vertex 60 30 10
    endloop
  endfacet
  facet normal -0 0 1
    outer loop
      vertex 60 30 10
      vertex 88.0866 24.6194 10
      vertex 100 30 10
    endloop
  endfacet
  facet normal -0 0 1
    outer loop
      vertex 94.6194 18.0866 10
      vertex 100 0 10
      vertex 95 20 10
    endloop
  endfacet
  facet normal -0 0 1
    outer loop
      vertex 93.5355 16.4645 10
      vertex 100 0 10
      vertex 94.6194 18.0866 10
    endloop
  endfacet
  facet normal -0 0 1
    outer loop
      vertex 91.9134 15.3806 10
      vertex 100 0 10
      vertex 93.5355 16.4645 10
    endloop
  endfacet
  facet normal -0 0 1
    outer loop
      vertex 90 15 10
      vertex 100 0 10
      vertex 91.9134 15.3806 10
    endloop
  endfacet
  facet normal 0 0 1
    outer loop
      vertex 75.489 8.19938 10
      vertex 90 15 10
      vertex 88.0866 15.3806 10
    endloop
  endfacet
  facet normal 0 0 1
    outer loop
      vertex 75.9 10 10
      vertex 88.0866 15.3806 10
      vertex 86.4645 16.4645 10
    endloop
  endfacet
  facet normal 0 0 1
    outer loop
      vertex 75.9 10 10
      vertex 85.3806 18.0866 10
      vertex 85 20 10
    endloop
  endfacet
  facet normal 0 0 1
    outer loop
      vertex 75.9 10 10
      vertex 86.4645 16.4645 10
      vertex 85.3806 18.0866 10
    endloop
  endfacet
  facet normal 0 0 1
    outer loop
      vertex 88.0866 15.3806 10
      vertex 75.9 10 10
      vertex 75.489 8.19938 10
    endloop
  endfacet
  facet normal 0 0 1
    outer loop
      vertex 90 15 10
      vertex 75.489 8.19938 10
      vertex 100 0 10
    endloop
  endfacet
  facet normal -0 0 1
    outer loop
      vertex 74.3375 6.7554 10
      vertex 100 0 10
      vertex 75.489 8.19938 10
    endloop
  endfacet
  facet normal -0 0 1
    outer loop
      vertex 72.6735 5.95405 10
      vertex 100 0 10
      vertex 74.3375 6.7554 10
    endloop
  endfacet
  facet normal 0 0 1
    outer loop
      vertex 60 0 10
      vertex 72.6735 5.95405 10
      vertex 70.8265 5.95405 10
    endloop
  endfacet
  facet normal 0 0 1
    outer loop
      vertex 68.011 11.8006 10
      vertex 60 20 10
      vertex 67.6 10 10
    endloop
  endfacet
  facet normal 0 0 1
    outer loop
      vertex 60 0 10
      vertex 67.6 10 10
      vertex 60 20 10
    endloop
  endfacet
  facet normal 0 0 1
    outer loop
      vertex 72.6735 5.95405 10
      vertex 60 0 10
      vertex 100 0 10
    endloop
  endfacet
  facet normal 0 0 1
    outer loop
      vertex 69.1625 6.7554 10
      vertex 60 0 10
      vertex 70.8265 5.95405 10
    endloop
  endfacet
  facet normal 0 0 1
    outer loop
      vertex 68.011 8.19938 10
      vertex 60 0 10
      vertex 69.1625 6.7554 10
    endloop
  endfacet
  facet normal 0 0 1
    outer loop
      vertex 67.6 10 10
      vertex 60 0 10
      vertex 68.011 8.19938 10
    endloop
  endfacet
  facet normal 1 -0 0
    outer loop
      vertex 100 0 10
      vertex 100 30 0
      vertex 100 30 10
    endloop
  endfacet
  facet normal 1 0 0
    outer loop
      vertex 100 30 0
      vertex 100 0 10
      vertex 100 0 0
    endloop
  endfacet
  facet normal 0 1 0
    outer loop
      vertex 100 30 10
      vertex 60 30 5
      vertex 60 30 10
    endloop
  endfacet
  facet normal 0 1 0
    outer loop
      vertex 60 30 5
      vertex 100 30 0
      vertex 40 30 5
    endloop
  endfacet
  facet normal 0 1 -0
    outer loop
      vertex 100 30 0
      vertex 60 30 5
      vertex 100 30 10
    endloop
  endfacet
  facet normal 0 1 -0
    outer loop
      vertex 40 30 5
      vertex 0 30 10
      vertex 40 30 10
    endloop
  endfacet
  facet normal 0 1 0
    outer loop
      vertex 40 30 5
      vertex 0 30 0
      vertex 0 30 10
    endloop
  endfacet
  facet normal 0 1 0
    outer loop
      vertex 0 30 0
      vertex 40 30 5
      vertex 100 30 0
    endloop
  endfacet
  facet normal 0 0 -1
    outer loop
      vertex 100 0 0
      vertex 92.6 20 0
      vertex 100 30 0
    endloop
  endfacet
  facet normal 0 0 -1
    outer loop
      vertex 100 0 0
      vertex 91.9917 18.3288 0
      vertex 92.6 20 0
    endloop
  endfacet
  facet normal 0 0 -1
    outer loop
      vertex 100 0 0
      vertex 90.4515 17.4395 0
      vertex 91.9917 18.3288 0
    endloop
  endfacet
  facet normal 0 0 -1
    outer loop
      vertex 100 0 0
      vertex 88.7 17.7483 0
      vertex 90.4515 17.4395 0
    endloop
  endfacet
  facet normal 0 0 -1
    outer loop
      vertex 57.5 5 0
      vertex 88.7 17.7483 0
      vertex 100 0 0
    endloop
  endfacet
  facet normal 0 0 -1
    outer loop
      vertex 57.5 15 0
      vertex 87.5568 19.1107 0
      vertex 57.5 5 0
    endloop
  endfacet
  facet normal -0 0 -1
    outer loop
      vertex 88.7 17.7483 0
      vertex 57.5 5 0
      vertex 87.5568 19.1107 0
    endloop
  endfacet
  facet normal 0 0 -1
    outer loop
      vertex 100 0 0
      vertex 42.5 5 0
      vertex 57.5 5 0
    endloop
  endfacet
  facet normal 0 0 -1
    outer loop
      vertex 11.9917 18.3288 0
      vertex 42.5 15 0
      vertex 42.5 5 0
    endloop
  endfacet
  facet normal 0 0 -1
    outer loop
      vertex 42.5 15 0
      vertex 11.9917 18.3288 0
      vertex 12.6 20 0
    endloop
  endfacet
  facet normal 0 0 -1
    outer loop
      vertex 42.5 5 0
      vertex 10.4515 17.4395 0
      vertex 11.9917 18.3288 0
    endloop
  endfacet
  facet normal 0 0 -1
    outer loop
      vertex 0 0 0
      vertex 10.4515 17.4395 0
      vertex 42.5 5 0
    endloop
  endfacet
  facet normal 0 0 -1
    outer loop
      vertex 0 30 0
      vertex 7.5568 19.1107 0
      vertex 0 0 0
    endloop
  endfacet
  facet normal -0 0 -1
    outer loop
      vertex 8.7 17.7483 0
      vertex 0 0 0
      vertex 7.5568 19.1107 0
    endloop
  endfacet
  facet normal -0 0 -1
    outer loop
      vertex 10.4515 17.4395 0
      vertex 0 0 0
      vertex 8.7 17.7483 0
    endloop
  endfacet
  facet normal 0 0 -1
    outer loop
      vertex 0 0 0
      vertex 42.5 5 0
      vertex 100 0 0
    endloop
  endfacet
  facet normal 0 0 -1
    outer loop
      vertex 91.9917 21.6712 0
      vertex 100 30 0
      vertex 92.6 20 0
    endloop
  endfacet
  facet normal 0 0 -1
    outer loop
      vertex 90.4515 22.5605 0
      vertex 100 30 0
      vertex 91.9917 21.6712 0
    endloop
  endfacet
  facet normal 0 0 -1
    outer loop
      vertex 88.7 22.2517 0
      vertex 100 30 0
      vertex 90.4515 22.5605 0
    endloop
  endfacet
  facet normal -0 0 -1
    outer loop
      vertex 87.5568 19.1107 0
      vertex 57.5 15 0
      vertex 87.5568 20.8893 0
    endloop
  endfacet
  facet normal -0 0 -1
    outer loop
      vertex 87.5568 20.8893 0
      vertex 57.5 15 0
      vertex 88.7 22.2517 0
    endloop
  endfacet
  facet normal -0 0 -1
    outer loop
      vertex 88.7 22.2517 0
      vertex 57.5 15 0
      vertex 100 30 0
    endloop
  endfacet
  facet normal 0 0 -1
    outer loop
      vertex 42.5 15 0
      vertex 100 30 0
      vertex 57.5 15 0
    endloop
  endfacet
  facet normal 0 0 -1
    outer loop
      vertex 11.9917 21.6712 0
      vertex 42.5 15 0
      vertex 12.6 20 0
    endloop
  endfacet
  facet normal 0 0 -1
    outer loop
      vertex 10.4515 22.5605 0
      vertex 42.5 15 0
      vertex 11.9917 21.6712 0
    endloop
  endfacet
  facet normal 0 0 -1
    outer loop
      vertex 0 30 0
      vertex 42.5 15 0
      vertex 10.4515 22.5605 0
    endloop
  endfacet
  facet normal 0 0 -1
    outer loop
      vertex 42.5 15 0
      vertex 0 30 0
      vertex 100 30 0
    endloop
  endfacet
  facet normal 0 0 -1
    outer loop
      vertex 8.7 22.2517 0
      vertex 0 30 0
      vertex 10.4515 22.5605 0
    endloop
  endfacet
  facet normal 0 0 -1
    outer loop
      vertex 7.5568 20.8893 0
      vertex 0 30 0
      vertex 8.7 22.2517 0
    endloop
  endfacet
  facet normal 0 0 -1
    outer loop
      vertex 7.5568 19.1107 0
      vertex 0 30 0
      vertex 7.5568 20.8893 0
    endloop
  endfacet
  facet normal 0 -1 0
    outer loop
      vertex 0 0 0
      vertex 40 0 10
      vertex 0 0 10
    endloop
  endfacet
  facet normal 0 -1 -0
    outer loop
      vertex 49.125 0 9.48446
      vertex 0 0 0
      vertex 50.875 0 9.48446
    endloop
  endfacet
  facet normal 0 -1 -0
    outer loop
      vertex 40 0 10
      vertex 0 0 0
      vertex 49.125 0 9.48446
    endloop
  endfacet
  facet normal 0 -1 0
    outer loop
      vertex 40 0 20
      vertex 49.125 0 12.5155
      vertex 60 0 20
    endloop
  endfacet
  facet normal 0 -1 0
    outer loop
      vertex 40 0 10
      vertex 49.125 0 12.5155
      vertex 40 0 20
    endloop
  endfacet
  facet normal 0 -1 0
    outer loop
      vertex 49.125 0 12.5155
      vertex 40 0 10
      vertex 48.25 0 11
    endloop
  endfacet
  facet normal 0 -1 -0
    outer loop
      vertex 48.25 0 11
      vertex 40 0 10
      vertex 49.125 0 9.48446
    endloop
  endfacet
  facet normal 0 -1 0
    outer loop
      vertex 50.875 0 12.5155
      vertex 60 0 20
      vertex 49.125 0 12.5155
    endloop
  endfacet
  facet normal 0 -1 0
    outer loop
      vertex 60 0 10
      vertex 50.875 0 12.5155
      vertex 51.75 0 11
    endloop
  endfacet
  facet normal 0 -1 0
    outer loop
      vertex 50.875 0 12.5155
      vertex 60 0 10
      vertex 60 0 20
    endloop
  endfacet
  facet normal 0 -1 0
    outer loop
      vertex 50.875 0 9.48446
      vertex 60 0 10
      vertex 51.75 0 11
    endloop
  endfacet
  facet normal 0 -1 0
    outer loop
      vertex 100 0 0
      vertex 60 0 10
      vertex 50.875 0 9.48446
    endloop
  endfacet
  facet normal 0 -1 0
    outer loop
      vertex 100 0 0
      vertex 50.875 0 9.48446
      vertex 0 0 0
    endloop
  endfacet
  facet normal 0 -1 0
    outer loop
      vertex 60 0 10
      vertex 100 0 0
      vertex 100 0 10
    endloop
  endfacet
  facet normal -1 0 0
    outer loop
      vertex 40 0 10
      vertex 40 20 15
      vertex 40 20 10
    endloop
  endfacet
  facet normal -1 0 0
    outer loop
      vertex 40 0 20
      vertex 40 20 15
      vertex 40 0 10
    endloop
  endfacet
  facet normal -1 0 0
    outer loop
      vertex 40 20 15
      vertex 40 0 20
      vertex 40 20 20
    endloop
  endfacet
  facet normal 0 0 1
    outer loop
      vertex 60 20 20
      vertex 57.5 15 20
      vertex 60 0 20
    endloop
  endfacet
  facet normal 0 0 1
    outer loop
      vertex 60 20 20
      vertex 42.5 15 20
      vertex 57.5 15 20
    endloop
  endfacet
  facet normal 0 0 1
    outer loop
      vertex 42.5 15 20
      vertex 40 20 20
      vertex 42.5 5 20
    endloop
  endfacet
  facet normal -0 0 1
    outer loop
      vertex 40 20 20
      vertex 42.5 15 20
      vertex 60 20 20
    endloop
  endfacet
  facet normal -0 0 1
    outer loop
      vertex 57.5 5 20
      vertex 60 0 20
      vertex 57.5 15 20
    endloop
  endfacet
  facet normal -0 0 1
    outer loop
      vertex 42.5 5 20
      vertex 60 0 20
      vertex 57.5 5 20
    endloop
  endfacet
  facet normal 0 0 1
    outer loop
      vertex 42.5 5 20
      vertex 40 0 20
      vertex 60 0 20
    endloop
  endfacet
  facet normal 0 0 1
    outer loop
      vertex 40 0 20
      vertex 42.5 5 20
      vertex 40 20 20
    endloop
  endfacet
  facet normal 1 -0 0
    outer loop
      vertex 60 0 20
      vertex 60 20 15
      vertex 60 20 20
    endloop
  endfacet
  facet normal 1 0 0
    outer loop
      vertex 60 0 10
      vertex 60 20 15
      vertex 60 0 20
    endloop
  endfacet
  facet normal 1 0 0
    outer loop
      vertex 60 20 15
      vertex 60 0 10
      vertex 60 20 10
    endloop
  endfacet
  facet normal 0 1 0
    outer loop
      vertex 60 20 15
      vertex 50.875 20 12.5155
      vertex 40 20 15
    endloop
  endfacet
  facet normal 0 1 0
    outer loop
      vertex 60 20 15
      vertex 51.75 20 11
      vertex 50.875 20 12.5155
    endloop
  endfacet
  facet normal 0 1 -0
    outer loop
      vertex 60 20 10
      vertex 51.75 20 11
      vertex 60 20 15
    endloop
  endfacet
  facet normal 0 1 0
    outer loop
      vertex 60 20 10
      vertex 50.875 20 9.48446
      vertex 51.75 20 11
    endloop
  endfacet
  facet normal 0 1 0
    outer loop
      vertex 50.875 20 9.48446
      vertex 60 20 5
      vertex 49.125 20 9.48446
    endloop
  endfacet
  facet normal 0 1 -0
    outer loop
      vertex 60 20 5
      vertex 50.875 20 9.48446
      vertex 60 20 10
    endloop
  endfacet
  facet normal 0 1 -0
    outer loop
      vertex 49.125 20 12.5155
      vertex 40 20 15
      vertex 50.875 20 12.5155
    endloop
  endfacet
  facet normal 0 1 -0
    outer loop
      vertex 48.25 20 11
      vertex 40 20 15
      vertex 49.125 20 12.5155
    endloop
  endfacet
  facet normal 0 1 0
    outer loop
      vertex 48.25 20 11
      vertex 40 20 10
      vertex 40 20 15
    endloop
  endfacet
  facet normal 0 1 0
    outer loop
      vertex 49.125 20 9.48446
      vertex 40 20 10
      vertex 48.25 20 11
    endloop
  endfacet
  facet normal 0 1 0
    outer loop
      vertex 40 20 5
      vertex 49.125 20 9.48446
      vertex 60 20 5
    endloop
  endfacet
  facet normal 0 1 0
    outer loop
      vertex 49.125 20 9.48446
      vertex 40 20 5
      vertex 40 20 10
    endloop
  endfacet
  facet normal 0 1 -0
    outer loop
      vertex 60 20 15
      vertex 40 20 20
      vertex 60 20 20
    endloop
  endfacet
  facet normal 0 1 0
    outer loop
      vertex 40 20 20
      vertex 60 20 15
      vertex 40 20 15
    endloop
  endfacet
  facet normal 1 -0 0
    outer loop
      vertex 40 20 10
      vertex 40 30 5
      vertex 40 30 10
    endloop
  endfacet
  facet normal 1 0 0
    outer loop
      vertex 40 30 5
      vertex 40 20 10
      vertex 40 20 5
    endloop
  endfacet
  facet normal -1 0 0
    outer loop
      vertex 60 20 5
      vertex 60 30 10
      vertex 60 30 5
    endloop
  endfacet
  facet normal -1 -0 0
    outer loop
      vertex 60 30 10
      vertex 60 20 5
      vertex 60 20 10
    endloop
  endfacet
  facet normal -0 0 1
    outer loop
      vertex 40 30 5
      vertex 60 20 5
      vertex 60 30 5
    endloop
  endfacet
  facet normal 0 0 1
    outer loop
      vertex 60 20 5
      vertex 40 30 5
      vertex 40 20 5
    endloop
  endfacet
  facet normal 1 -0 0
    outer loop
      vertex 42.5 5 20
      vertex 42.5 15 0
      vertex 42.5 15 20
    endloop
  endfacet
  facet normal 1 0 0
    outer loop
      vertex 42.5 15 0
      vertex 42.5 5 20
      vertex 42.5 5 0
    endloop
  endfacet
  facet normal -1 0 0
    outer loop
      vertex 57.5 5 0
      vertex 57.5 15 20
      vertex 57.5 15 0
    endloop
  endfacet
  facet normal -1 -0 0
    outer loop
      vertex 57.5 15 20
      vertex 57.5 5 0
      vertex 57.5 5 20
    endloop
  endfacet
  facet normal 0 1 0
    outer loop
      vertex 57.5 5 20
      vertex 50.875 5 12.5155
      vertex 42.5 5 20
    endloop
  endfacet
  facet normal 0 1 0
    outer loop
      vertex 57.5 5 20
      vertex 51.75 5 11
      vertex 50.875 5 12.5155
    endloop
  endfacet
  facet normal 0 1 -0
    outer loop
      vertex 57.5 5 0
      vertex 51.75 5 11
      vertex 57.5 5 20
    endloop
  endfacet
  facet normal 0 1 0
    outer loop
      vertex 50.875 5 9.48446
      vertex 57.5 5 0
      vertex 49.125 5 9.48446
    endloop
  endfacet
  facet normal 0 1 0
    outer loop
      vertex 51.75 5 11
      vertex 57.5 5 0
      vertex 50.875 5 9.48446
    endloop
  endfacet
  facet normal 0 1 -0
    outer loop
      vertex 49.125 5 12.5155
      vertex 42.5 5 20
      vertex 50.875 5 12.5155
    endloop
  endfacet
  facet normal 0 1 -0
    outer loop
      vertex 48.25 5 11
      vertex 42.5 5 20
      vertex 49.125 5 12.5155
    endloop
  endfacet
  facet normal 0 1 0
    outer loop
      vertex 42.5 5 0
      vertex 48.25 5 11
      vertex 49.125 5 9.48446
    endloop
  endfacet
  facet normal 0 1 0
    outer loop
      vertex 48.25 5 11
      vertex 42.5 5 0
      vertex 42.5 5 20
    endloop
  endfacet
  facet normal 0 1 0
    outer loop
      vertex 42.5 5 0
      vertex 49.125 5 9.48446
      vertex 57.5 5 0
    endloop
  endfacet
  facet normal 0 -1 0
    outer loop
      vertex 42.5 15 20
      vertex 49.125 15 12.5155
      vertex 57.5 15 20
    endloop
  endfacet
  facet normal 0 -1 0
    outer loop
      vertex 42.5 15 20
      vertex 48.25 15 11
      vertex 49.125 15 12.5155
    endloop
  endfacet
  facet normal 0 -1 0
    outer loop
      vertex 42.5 15 0
      vertex 48.25 15 11
      vertex 42.5 15 20
    endloop
  endfacet
  facet normal 0 -1 -0
    outer loop
      vertex 49.125 15 9.48446
      vertex 42.5 15 0
      vertex 50.875 15 9.48446
    endloop
  endfacet
  facet normal 0 -1 -0
    outer loop
      vertex 48.25 15 11
      vertex 42.5 15 0
      vertex 49.125 15 9.48446
    endloop
  endfacet
  facet normal 0 -1 0
    outer loop
      vertex 50.875 15 12.5155
      vertex 57.5 15 20
      vertex 49.125 15 12.5155
    endloop
  endfacet
  facet normal 0 -1 0
    outer loop
      vertex 51.75 15 11
      vertex 57.5 15 20
      vertex 50.875 15 12.5155
    endloop
  endfacet
  facet normal 0 -1 0
    outer loop
      vertex 57.5 15 0
      vertex 51.75 15 11
      vertex 50.875 15 9.48446
    endloop
  endfacet
  facet normal 0 -1 0
    outer loop
      vertex 51.75 15 11
      vertex 57.5 15 0
      vertex 57.5 15 20
    endloop
  endfacet
  facet normal 0 -1 0
    outer loop
      vertex 57.5 15 0
      vertex 50.875 15 9.48446
      vertex 42.5 15 0
    endloop
  endfacet
  facet normal -0.974925 -0.222534 0
    outer loop
      vertex 31.4 10 4.5
      vertex 30.989 11.8006 10
      vertex 30.989 11.8006 4.5
    endloop
  endfacet
  facet normal -0.974925 -0.222534 0
    outer loop
      vertex 30.989 11.8006 10
      vertex 31.4 10 4.5
      vertex 31.4 10 10
    endloop
  endfacet
  facet normal 0.433866 -0.900977 0
    outer loop
      vertex 24.6625 13.2446 4.5
      vertex 26.3265 14.0459 10
      vertex 24.6625 13.2446 10
    endloop
  endfacet
  facet normal 0.433866 -0.900977 0
    outer loop
      vertex 26.3265 14.0459 10
      vertex 24.6625 13.2446 4.5
      vertex 26.3265 14.0459 4.5
    endloop
  endfacet
  facet normal 0 0 1
    outer loop
      vertex 30.989 11.8006 4.5
      vertex 30.989 8.19938 4.5
      vertex 31.4 10 4.5
    endloop
  endfacet
  facet normal 0 0 1
    outer loop
      vertex 29.8375 13.2446 4.5
      vertex 30.989 8.19938 4.5
      vertex 30.989 11.8006 4.5
    endloop
  endfacet
  facet normal 0 0 1
    outer loop
      vertex 29.8375 13.2446 4.5
      vertex 29.8375 6.7554 4.5
      vertex 30.989 8.19938 4.5
    endloop
  endfacet
  facet normal 0 0 1
    outer loop
      vertex 28.1735 14.0459 4.5
      vertex 29.8375 6.7554 4.5
      vertex 29.8375 13.2446 4.5
    endloop
  endfacet
  facet normal 0 0 1
    outer loop
      vertex 28.1735 14.0459 4.5
      vertex 28.1735 5.95405 4.5
      vertex 29.8375 6.7554 4.5
    endloop
  endfacet
  facet normal -0 0 1
    outer loop
      vertex 26.3265 14.0459 4.5
      vertex 28.1735 5.95405 4.5
      vertex 28.1735 14.0459 4.5
    endloop
  endfacet
  facet normal 0 0 1
    outer loop
      vertex 26.3265 14.0459 4.5
      vertex 26.3265 5.95405 4.5
      vertex 28.1735 5.95405 4.5
    endloop
  endfacet
  facet normal -0 0 1
    outer loop
      vertex 24.6625 13.2446 4.5
      vertex 26.3265 5.95405 4.5
      vertex 26.3265 14.0459 4.5
    endloop
  endfacet
  facet normal 0 0 1
    outer loop
      vertex 24.6625 13.2446 4.5
      vertex 24.6625 6.7554 4.5
      vertex 26.3265 5.95405 4.5
    endloop
  endfacet
  facet normal -0 0 1
    outer loop
      vertex 23.511 11.8006 4.5
      vertex 24.6625 6.7554 4.5
      vertex 24.6625 13.2446 4.5
    endloop
  endfacet
  facet normal 0 0 1
    outer loop
      vertex 23.511 11.8006 4.5
      vertex 23.511 8.19938 4.5
      vertex 24.6625 6.7554 4.5
    endloop
  endfacet
  facet normal 0 -0 1
    outer loop
      vertex 23.511 8.19938 4.5
      vertex 23.511 11.8006 4.5
      vertex 23.1 10 4.5
    endloop
  endfacet
  facet normal -0.433888 0.900967 0
    outer loop
      vertex 29.8375 6.7554 4.5
      vertex 28.1735 5.95405 10
      vertex 29.8375 6.7554 10
    endloop
  endfacet
  facet normal -0.433888 0.900967 0
    outer loop
      vertex 28.1735 5.95405 10
      vertex 29.8375 6.7554 4.5
      vertex 28.1735 5.95405 4.5
    endloop
  endfacet
  facet normal -0.433866 -0.900977 0
    outer loop
      vertex 28.1735 14.0459 4.5
      vertex 29.8375 13.2446 10
      vertex 28.1735 14.0459 10
    endloop
  endfacet
  facet normal -0.433866 -0.900977 -0
    outer loop
      vertex 29.8375 13.2446 10
      vertex 28.1735 14.0459 4.5
      vertex 29.8375 13.2446 4.5
    endloop
  endfacet
  facet normal -0.781845 -0.623473 0
    outer loop
      vertex 30.989 11.8006 4.5
      vertex 29.8375 13.2446 10
      vertex 29.8375 13.2446 4.5
    endloop
  endfacet
  facet normal -0.781845 -0.623473 0
    outer loop
      vertex 29.8375 13.2446 10
      vertex 30.989 11.8006 4.5
      vertex 30.989 11.8006 10
    endloop
  endfacet
  facet normal 0 -1 0
    outer loop
      vertex 26.3265 14.0459 4.5
      vertex 28.1735 14.0459 10
      vertex 26.3265 14.0459 10
    endloop
  endfacet
  facet normal 0 -1 -0
    outer loop
      vertex 28.1735 14.0459 10
      vertex 26.3265 14.0459 4.5
      vertex 28.1735 14.0459 4.5
    endloop
  endfacet
  facet normal 0.974925 -0.222534 0
    outer loop
      vertex 23.1 10 10
      vertex 23.511 11.8006 4.5
      vertex 23.511 11.8006 10
    endloop
  endfacet
  facet normal 0.974925 -0.222534 0
    outer loop
      vertex 23.511 11.8006 4.5
      vertex 23.1 10 10
      vertex 23.1 10 4.5
    endloop
  endfacet
  facet normal 0.974926 0.222531 0
    outer loop
      vertex 23.511 8.19938 10
      vertex 23.1 10 4.5
      vertex 23.1 10 10
    endloop
  endfacet
  facet normal 0.974926 0.222531 0
    outer loop
      vertex 23.1 10 4.5
      vertex 23.511 8.19938 10
      vertex 23.511 8.19938 4.5
    endloop
  endfacet
  facet normal 0.781845 -0.623473 0
    outer loop
      vertex 23.511 11.8006 10
      vertex 24.6625 13.2446 4.5
      vertex 24.6625 13.2446 10
    endloop
  endfacet
  facet normal 0.781845 -0.623473 0
    outer loop
      vertex 24.6625 13.2446 4.5
      vertex 23.511 11.8006 10
      vertex 23.511 11.8006 4.5
    endloop
  endfacet
  facet normal -0.974926 0.222531 0
    outer loop
      vertex 30.989 8.19938 4.5
      vertex 31.4 10 10
      vertex 31.4 10 4.5
    endloop
  endfacet
  facet normal -0.974926 0.222531 0
    outer loop
      vertex 31.4 10 10
      vertex 30.989 8.19938 4.5
      vertex 30.989 8.19938 10
    endloop
  endfacet
  facet normal -0.781841 0.623478 0
    outer loop
      vertex 29.8375 6.7554 4.5
      vertex 30.989 8.19938 10
      vertex 30.989 8.19938 4.5
    endloop
  endfacet
  facet normal -0.781841 0.623478 0
    outer loop
      vertex 30.989 8.19938 10
      vertex 29.8375 6.7554 4.5
      vertex 29.8375 6.7554 10
    endloop
  endfacet
  facet normal 0 1 -0
    outer loop
      vertex 28.1735 5.95405 4.5
      vertex 26.3265 5.95405 10
      vertex 28.1735 5.95405 10
    endloop
  endfacet
  facet normal 0 1 0
    outer loop
      vertex 26.3265 5.95405 10
      vertex 28.1735 5.95405 4.5
      vertex 26.3265 5.95405 4.5
    endloop
  endfacet
  facet normal 0.433888 0.900967 -0
    outer loop
      vertex 26.3265 5.95405 4.5
      vertex 24.6625 6.7554 10
      vertex 26.3265 5.95405 10
    endloop
  endfacet
  facet normal 0.433888 0.900967 0
    outer loop
      vertex 24.6625 6.7554 10
      vertex 26.3265 5.95405 4.5
      vertex 24.6625 6.7554 4.5
    endloop
  endfacet
  facet normal 0.781841 0.623478 0
    outer loop
      vertex 24.6625 6.7554 10
      vertex 23.511 8.19938 4.5
      vertex 23.511 8.19938 10
    endloop
  endfacet
  facet normal 0.781841 0.623478 0
    outer loop
      vertex 23.511 8.19938 4.5
      vertex 24.6625 6.7554 10
      vertex 24.6625 6.7554 4.5
    endloop
  endfacet
  facet normal -0.974925 -0.222534 0
    outer loop
      vertex 75.9 10 4.5
      vertex 75.489 11.8006 10
      vertex 75.489 11.8006 4.5
    endloop
  endfacet
  facet normal -0.974925 -0.222534 0
    outer loop
      vertex 75.489 11.8006 10
      vertex 75.9 10 4.5
      vertex 75.9 10 10
    endloop
  endfacet
  facet normal 0.433866 -0.900977 0
    outer loop
      vertex 69.1625 13.2446 4.5
      vertex 70.8265 14.0459 10
      vertex 69.1625 13.2446 10
    endloop
  endfacet
  facet normal 0.433866 -0.900977 0
    outer loop
      vertex 70.8265 14.0459 10
      vertex 69.1625 13.2446 4.5
      vertex 70.8265 14.0459 4.5
    endloop
  endfacet
  facet normal 0 0 1
    outer loop
      vertex 75.489 11.8006 4.5
      vertex 75.489 8.19938 4.5
      vertex 75.9 10 4.5
    endloop
  endfacet
  facet normal 0 0 1
    outer loop
      vertex 74.3375 13.2446 4.5
      vertex 75.489 8.19938 4.5
      vertex 75.489 11.8006 4.5
    endloop
  endfacet
  facet normal 0 0 1
    outer loop
      vertex 74.3375 13.2446 4.5
      vertex 74.3375 6.7554 4.5
      vertex 75.489 8.19938 4.5
    endloop
  endfacet
  facet normal 0 0 1
    outer loop
      vertex 72.6735 14.0459 4.5
      vertex 74.3375 6.7554 4.5
      vertex 74.3375 13.2446 4.5
    endloop
  endfacet
  facet normal 0 0 1
    outer loop
      vertex 72.6735 14.0459 4.5
      vertex 72.6735 5.95405 4.5
      vertex 74.3375 6.7554 4.5
    endloop
  endfacet
  facet normal -0 0 1
    outer loop
      vertex 70.8265 14.0459 4.5
      vertex 72.6735 5.95405 4.5
      vertex 72.6735 14.0459 4.5
    endloop
  endfacet
  facet normal 0 0 1
    outer loop
      vertex 70.8265 14.0459 4.5
      vertex 70.8265 5.95405 4.5
      vertex 72.6735 5.95405 4.5
    endloop
  endfacet
  facet normal -0 0 1
    outer loop
      vertex 69.1625 13.2446 4.5
      vertex 70.8265 5.95405 4.5
      vertex 70.8265 14.0459 4.5
    endloop
  endfacet
  facet normal 0 0 1
    outer loop
      vertex 69.1625 13.2446 4.5
      vertex 69.1625 6.7554 4.5
      vertex 70.8265 5.95405 4.5
    endloop
  endfacet
  facet normal -0 0 1
    outer loop
      vertex 68.011 11.8006 4.5
      vertex 69.1625 6.7554 4.5
      vertex 69.1625 13.2446 4.5
    endloop
  endfacet
  facet normal 0 0 1
    outer loop
      vertex 68.011 11.8006 4.5
      vertex 68.011 8.19938 4.5
      vertex 69.1625 6.7554 4.5
    endloop
  endfacet
  facet normal 0 -0 1
    outer loop
      vertex 68.011 8.19938 4.5
      vertex 68.011 11.8006 4.5
      vertex 67.6 10 4.5
    endloop
  endfacet
  facet normal -0.433888 0.900967 0
    outer loop
      vertex 74.3375 6.7554 4.5
      vertex 72.6735 5.95405 10
      vertex 74.3375 6.7554 10
    endloop
  endfacet
  facet normal -0.433888 0.900967 0
    outer loop
      vertex 72.6735 5.95405 10
      vertex 74.3375 6.7554 4.5
      vertex 72.6735 5.95405 4.5
    endloop
  endfacet
  facet normal -0.433866 -0.900977 0
    outer loop
      vertex 72.6735 14.0459 4.5
      vertex 74.3375 13.2446 10
      vertex 72.6735 14.0459 10
    endloop
  endfacet
  facet normal -0.433866 -0.900977 -0
    outer loop
      vertex 74.3375 13.2446 10
      vertex 72.6735 14.0459 4.5
      vertex 74.3375 13.2446 4.5
    endloop
  endfacet
  facet normal -0.781845 -0.623473 0
    outer loop
      vertex 75.489 11.8006 4.5
      vertex 74.3375 13.2446 10
      vertex 74.3375 13.2446 4.5
    endloop
  endfacet
  facet normal -0.781845 -0.623473 0
    outer loop
      vertex 74.3375 13.2446 10
      vertex 75.489 11.8006 4.5
      vertex 75.489 11.8006 10
    endloop
  endfacet
  facet normal 0 -1 0
    outer loop
      vertex 70.8265 14.0459 4.5
      vertex 72.6735 14.0459 10
      vertex 70.8265 14.0459 10
    endloop
  endfacet
  facet normal 0 -1 -0
    outer loop
      vertex 72.6735 14.0459 10
      vertex 70.8265 14.0459 4.5
      vertex 72.6735 14.0459 4.5
    endloop
  endfacet
  facet normal 0.974925 -0.222534 0
    outer loop
      vertex 67.6 10 10
      vertex 68.011 11.8006 4.5
      vertex 68.011 11.8006 10
    endloop
  endfacet
  facet normal 0.974925 -0.222534 0
    outer loop
      vertex 68.011 11.8006 4.5
      vertex 67.6 10 10
      vertex 67.6 10 4.5
    endloop
  endfacet
  facet normal 0.974926 0.222531 0
    outer loop
      vertex 68.011 8.19938 10
      vertex 67.6 10 4.5
      vertex 67.6 10 10
    endloop
  endfacet
  facet normal 0.974926 0.222531 0
    outer loop
      vertex 67.6 10 4.5
      vertex 68.011 8.19938 10
      vertex 68.011 8.19938 4.5
    endloop
  endfacet
  facet normal 0.781845 -0.623473 0
    outer loop
      vertex 68.011 11.8006 10
      vertex 69.1625 13.2446 4.5
      vertex 69.1625 13.2446 10
    endloop
  endfacet
  facet normal 0.781845 -0.623473 0
    outer loop
      vertex 69.1625 13.2446 4.5
      vertex 68.011 11.8006 10
      vertex 68.011 11.8006 4.5
    endloop
  endfacet
  facet normal -0.974926 0.222531 0
    outer loop
      vertex 75.489 8.19938 4.5
      vertex 75.9 10 10
      vertex 75.9 10 4.5
    endloop
  endfacet
  facet normal -0.974926 0.222531 0
    outer loop
      vertex 75.9 10 10
      vertex 75.489 8.19938 4.5
      vertex 75.489 8.19938 10
    endloop
  endfacet
  facet normal -0.781841 0.623478 0
    outer loop
      vertex 74.3375 6.7554 4.5
      vertex 75.489 8.19938 10
      vertex 75.489 8.19938 4.5
    endloop
  endfacet
  facet normal -0.781841 0.623478 0
    outer loop
      vertex 75.489 8.19938 10
      vertex 74.3375 6.7554 4.5
      vertex 74.3375 6.7554 10
    endloop
  endfacet
  facet normal 0 1 -0
    outer loop
      vertex 72.6735 5.95405 4.5
      vertex 70.8265 5.95405 10
      vertex 72.6735 5.95405 10
    endloop
  endfacet
  facet normal 0 1 0
    outer loop
      vertex 70.8265 5.95405 10
      vertex 72.6735 5.95405 4.5
      vertex 70.8265 5.95405 4.5
    endloop
  endfacet
  facet normal 0.433888 0.900967 -0
    outer loop
      vertex 70.8265 5.95405 4.5
      vertex 69.1625 6.7554 10
      vertex 70.8265 5.95405 10
    endloop
  endfacet
  facet normal 0.433888 0.900967 0
    outer loop
      vertex 69.1625 6.7554 10
      vertex 70.8265 5.95405 4.5
      vertex 69.1625 6.7554 4.5
    endloop
  endfacet
  facet normal 0.781841 0.623478 0
    outer loop
      vertex 69.1625 6.7554 10
      vertex 68.011 8.19938 4.5
      vertex 68.011 8.19938 10
    endloop
  endfacet
  facet normal 0.781841 0.623478 0
    outer loop
      vertex 68.011 8.19938 4.5
      vertex 69.1625 6.7554 10
      vertex 69.1625 6.7554 4.5
    endloop
  endfacet
  facet normal -0.939687 -0.342037 0
    outer loop
      vertex 12.6 20 0
      vertex 11.9917 21.6712 8
      vertex 11.9917 21.6712 0
    endloop
  endfacet
  facet normal -0.939687 -0.342037 0
    outer loop
      vertex 11.9917 21.6712 8
      vertex 12.6 20 0
      vertex 12.6 20 8
    endloop
  endfacet
  facet normal 1 -0 0
    outer loop
      vertex 7.5568 19.1107 8
      vertex 7.5568 20.8893 0
      vertex 7.5568 20.8893 8
    endloop
  endfacet
  facet normal 1 0 0
    outer loop
      vertex 7.5568 20.8893 0
      vertex 7.5568 19.1107 8
      vertex 7.5568 19.1107 0
    endloop
  endfacet
  facet normal 0.173628 -0.984811 0
    outer loop
      vertex 8.7 22.2517 0
      vertex 10.4515 22.5605 8
      vertex 8.7 22.2517 8
    endloop
  endfacet
  facet normal 0.173628 -0.984811 0
    outer loop
      vertex 10.4515 22.5605 8
      vertex 8.7 22.2517 0
      vertex 10.4515 22.5605 0
    endloop
  endfacet
  facet normal -0.500027 -0.86601 0
    outer loop
      vertex 10.4515 22.5605 0
      vertex 11.9917 21.6712 8
      vertex 10.4515 22.5605 8
    endloop
  endfacet
  facet normal -0.500027 -0.86601 -0
    outer loop
      vertex 11.9917 21.6712 8
      vertex 10.4515 22.5605 0
      vertex 11.9917 21.6712 0
    endloop
  endfacet
  facet normal 0.766041 -0.642791 0
    outer loop
      vertex 7.5568 20.8893 8
      vertex 8.7 22.2517 0
      vertex 8.7 22.2517 8
    endloop
  endfacet
  facet normal 0.766041 -0.642791 0
    outer loop
      vertex 8.7 22.2517 0
      vertex 7.5568 20.8893 8
      vertex 7.5568 20.8893 0
    endloop
  endfacet
  facet normal -0.500027 0.86601 0
    outer loop
      vertex 11.9917 18.3288 0
      vertex 10.4515 17.4395 8
      vertex 11.9917 18.3288 8
    endloop
  endfacet
  facet normal -0.500027 0.86601 0
    outer loop
      vertex 10.4515 17.4395 8
      vertex 11.9917 18.3288 0
      vertex 10.4515 17.4395 0
    endloop
  endfacet
  facet normal 0.766041 0.642791 0
    outer loop
      vertex 8.7 17.7483 8
      vertex 7.5568 19.1107 0
      vertex 7.5568 19.1107 8
    endloop
  endfacet
  facet normal 0.766041 0.642791 0
    outer loop
      vertex 7.5568 19.1107 0
      vertex 8.7 17.7483 8
      vertex 8.7 17.7483 0
    endloop
  endfacet
  facet normal -0.939687 0.342037 0
    outer loop
      vertex 11.9917 18.3288 0
      vertex 12.6 20 8
      vertex 12.6 20 0
    endloop
  endfacet
  facet normal -0.939687 0.342037 0
    outer loop
      vertex 12.6 20 8
      vertex 11.9917 18.3288 0
      vertex 11.9917 18.3288 8
    endloop
  endfacet
  facet normal 0.173628 0.984811 -0
    outer loop
      vertex 10.4515 17.4395 0
      vertex 8.7 17.7483 8
      vertex 10.4515 17.4395 8
    endloop
  endfacet
  facet normal 0.173628 0.984811 0
    outer loop
      vertex 8.7 17.7483 8
      vertex 10.4515 17.4395 0
      vertex 8.7 17.7483 0
    endloop
  endfacet
  facet normal -0.939687 -0.342037 0
    outer loop
      vertex 92.6 20 0
      vertex 91.9917 21.6712 8
      vertex 91.9917 21.6712 0
    endloop
  endfacet
  facet normal -0.939687 -0.342037 0
    outer loop
      vertex 91.9917 21.6712 8
      vertex 92.6 20 0
      vertex 92.6 20 8
    endloop
  endfacet
  facet normal 1 -0 0
    outer loop
      vertex 87.5568 19.1107 8
      vertex 87.5568 20.8893 0
      vertex 87.5568 20.8893 8
    endloop
  endfacet
  facet normal 1 0 0
    outer loop
      vertex 87.5568 20.8893 0
      vertex 87.5568 19.1107 8
      vertex 87.5568 19.1107 0
    endloop
  endfacet
  facet normal 0.173628 -0.984811 0
    outer loop
      vertex 88.7 22.2517 0
      vertex 90.4515 22.5605 8
      vertex 88.7 22.2517 8
    endloop
  endfacet
  facet normal 0.173628 -0.984811 0
    outer loop
      vertex 90.4515 22.5605 8
      vertex 88.7 22.2517 0
      vertex 90.4515 22.5605 0
    endloop
  endfacet
  facet normal -0.500027 -0.86601 0
    outer loop
      vertex 90.4515 22.5605 0
      vertex 91.9917 21.6712 8
      vertex 90.4515 22.5605 8
    endloop
  endfacet
  facet normal -0.500027 -0.86601 -0
    outer loop
      vertex 91.9917 21.6712 8
      vertex 90.4515 22.5605 0
      vertex 91.9917 21.6712 0
    endloop
  endfacet
  facet normal 0.766041 -0.642791 0
    outer loop
      vertex 87.5568 20.8893 8
      vertex 88.7 22.2517 0
      vertex 88.7 22.2517 8
    endloop
  endfacet
  facet normal 0.766041 -0.642791 0
    outer loop
      vertex 88.7 22.2517 0
      vertex 87.5568 20.8893 8
      vertex 87.5568 20.8893 0
    endloop
  endfacet
  facet normal -0.500027 0.86601 0
    outer loop
      vertex 91.9917 18.3288 0
      vertex 90.4515 17.4395 8
      vertex 91.9917 18.3288 8
    endloop
  endfacet
  facet normal -0.500027 0.86601 0
    outer loop
      vertex 90.4515 17.4395 8
      vertex 91.9917 18.3288 0
      vertex 90.4515 17.4395 0
    endloop
  endfacet
  facet normal 0.766041 0.642791 0
    outer loop
      vertex 88.7 17.7483 8
      vertex 87.5568 19.1107 0
      vertex 87.5568 19.1107 8
    endloop
  endfacet
  facet normal 0.766041 0.642791 0
    outer loop
      vertex 87.5568 19.1107 0
      vertex 88.7 17.7483 8
      vertex 88.7 17.7483 0
    endloop
  endfacet
  facet normal -0.939687 0.342037 0
    outer loop
      vertex 91.9917 18.3288 0
      vertex 92.6 20 8
      vertex 92.6 20 0
    endloop
  endfacet
  facet normal -0.939687 0.342037 0
    outer loop
      vertex 92.6 20 8
      vertex 91.9917 18.3288 0
      vertex 91.9917 18.3288 8
    endloop
  endfacet
  facet normal 0.173628 0.984811 -0
    outer loop
      vertex 90.4515 17.4395 0
      vertex 88.7 17.7483 8
      vertex 90.4515 17.4395 8
    endloop
  endfacet
  facet normal 0.173628 0.984811 0
    outer loop
      vertex 88.7 17.7483 8
      vertex 90.4515 17.4395 0
      vertex 88.7 17.7483 0
    endloop
  endfacet
  facet normal -0.980785 -0.195091 0
    outer loop
      vertex 15 20 8
      vertex 14.6194 21.9134 10
      vertex 14.6194 21.9134 8
    endloop
  endfacet
  facet normal -0.980785 -0.195091 0
    outer loop
      vertex 14.6194 21.9134 10
      vertex 15 20 8
      vertex 15 20 10
    endloop
  endfacet
  facet normal 0.195089 -0.980786 0
    outer loop
      vertex 8.08658 24.6194 8
      vertex 10 25 10
      vertex 8.08658 24.6194 10
    endloop
  endfacet
  facet normal 0.195089 -0.980786 0
    outer loop
      vertex 10 25 10
      vertex 8.08658 24.6194 8
      vertex 10 25 8
    endloop
  endfacet
  facet normal -0.555587 0.831458 0
    outer loop
      vertex 13.5355 16.4645 8
      vertex 11.9134 15.3806 10
      vertex 13.5355 16.4645 10
    endloop
  endfacet
  facet normal -0.555587 0.831458 0
    outer loop
      vertex 11.9134 15.3806 10
      vertex 13.5355 16.4645 8
      vertex 11.9134 15.3806 8
    endloop
  endfacet
  facet normal -0.555587 -0.831458 0
    outer loop
      vertex 11.9134 24.6194 8
      vertex 13.5355 23.5355 10
      vertex 11.9134 24.6194 10
    endloop
  endfacet
  facet normal -0.555587 -0.831458 -0
    outer loop
      vertex 13.5355 23.5355 10
      vertex 11.9134 24.6194 8
      vertex 13.5355 23.5355 8
    endloop
  endfacet
  facet normal -0.831458 -0.555587 0
    outer loop
      vertex 14.6194 21.9134 8
      vertex 13.5355 23.5355 10
      vertex 13.5355 23.5355 8
    endloop
  endfacet
  facet normal -0.831458 -0.555587 0
    outer loop
      vertex 13.5355 23.5355 10
      vertex 14.6194 21.9134 8
      vertex 14.6194 21.9134 10
    endloop
  endfacet
  facet normal -0.195091 -0.980785 0
    outer loop
      vertex 10 25 8
      vertex 11.9134 24.6194 10
      vertex 10 25 10
    endloop
  endfacet
  facet normal -0.195091 -0.980785 -0
    outer loop
      vertex 11.9134 24.6194 10
      vertex 10 25 8
      vertex 11.9134 24.6194 8
    endloop
  endfacet
  facet normal 0.831465 -0.555576 0
    outer loop
      vertex 5.3806 21.9134 10
      vertex 6.46447 23.5355 8
      vertex 6.46447 23.5355 10
    endloop
  endfacet
  facet normal 0.831465 -0.555576 0
    outer loop
      vertex 6.46447 23.5355 8
      vertex 5.3806 21.9134 10
      vertex 5.3806 21.9134 8
    endloop
  endfacet
  facet normal 0 0 1
    outer loop
      vertex 12.6 20 8
      vertex 15 20 8
      vertex 14.6194 21.9134 8
    endloop
  endfacet
  facet normal 0 0 1
    outer loop
      vertex 11.9917 21.6712 8
      vertex 14.6194 21.9134 8
      vertex 13.5355 23.5355 8
    endloop
  endfacet
  facet normal 0 0 1
    outer loop
      vertex 15 20 8
      vertex 12.6 20 8
      vertex 14.6194 18.0866 8
    endloop
  endfacet
  facet normal -0 0 1
    outer loop
      vertex 11.9917 18.3288 8
      vertex 14.6194 18.0866 8
      vertex 12.6 20 8
    endloop
  endfacet
  facet normal 0 0 1
    outer loop
      vertex 14.6194 21.9134 8
      vertex 11.9917 21.6712 8
      vertex 12.6 20 8
    endloop
  endfacet
  facet normal 0 0 1
    outer loop
      vertex 11.9134 24.6194 8
      vertex 11.9917 21.6712 8
      vertex 13.5355 23.5355 8
    endloop
  endfacet
  facet normal 0 0 1
    outer loop
      vertex 11.9134 24.6194 8
      vertex 10.4515 22.5605 8
      vertex 11.9917 21.6712 8
    endloop
  endfacet
  facet normal 0 0 1
    outer loop
      vertex 10 25 8
      vertex 10.4515 22.5605 8
      vertex 11.9134 24.6194 8
    endloop
  endfacet
  facet normal 0 0 1
    outer loop
      vertex 10 25 8
      vertex 8.7 22.2517 8
      vertex 10.4515 22.5605 8
    endloop
  endfacet
  facet normal -0 0 1
    outer loop
      vertex 8.08658 24.6194 8
      vertex 8.7 22.2517 8
      vertex 10 25 8
    endloop
  endfacet
  facet normal -0 0 1
    outer loop
      vertex 6.46447 23.5355 8
      vertex 8.7 22.2517 8
      vertex 8.08658 24.6194 8
    endloop
  endfacet
  facet normal -0 0 1
    outer loop
      vertex 5.3806 21.9134 8
      vertex 7.5568 20.8893 8
      vertex 6.46447 23.5355 8
    endloop
  endfacet
  facet normal 0 0 1
    outer loop
      vertex 8.7 22.2517 8
      vertex 6.46447 23.5355 8
      vertex 7.5568 20.8893 8
    endloop
  endfacet
  facet normal 0 0 1
    outer loop
      vertex 14.6194 18.0866 8
      vertex 11.9917 18.3288 8
      vertex 13.5355 16.4645 8
    endloop
  endfacet
  facet normal 0 0 1
    outer loop
      vertex 11.9917 18.3288 8
      vertex 11.9134 15.3806 8
      vertex 13.5355 16.4645 8
    endloop
  endfacet
  facet normal -0 0 1
    outer loop
      vertex 10.4515 17.4395 8
      vertex 11.9134 15.3806 8
      vertex 11.9917 18.3288 8
    endloop
  endfacet
  facet normal 0 0 1
    outer loop
      vertex 10.4515 17.4395 8
      vertex 10 15 8
      vertex 11.9134 15.3806 8
    endloop
  endfacet
  facet normal 0 0 1
    outer loop
      vertex 8.7 17.7483 8
      vertex 10 15 8
      vertex 10.4515 17.4395 8
    endloop
  endfacet
  facet normal 0 0 1
    outer loop
      vertex 8.7 17.7483 8
      vertex 8.08658 15.3806 8
      vertex 10 15 8
    endloop
  endfacet
  facet normal 0 0 1
    outer loop
      vertex 6.46447 16.4645 8
      vertex 8.7 17.7483 8
      vertex 7.5568 19.1107 8
    endloop
  endfacet
  facet normal 0 0 1
    outer loop
      vertex 5 20 8
      vertex 7.5568 20.8893 8
      vertex 5.3806 21.9134 8
    endloop
  endfacet
  facet normal 0 0 1
    outer loop
      vertex 8.7 17.7483 8
      vertex 6.46447 16.4645 8
      vertex 8.08658 15.3806 8
    endloop
  endfacet
  facet normal 0 0 1
    outer loop
      vertex 7.5568 20.8893 8
      vertex 5 20 8
      vertex 7.5568 19.1107 8
    endloop
  endfacet
  facet normal 0 0 1
    outer loop
      vertex 7.5568 19.1107 8
      vertex 5.3806 18.0866 8
      vertex 6.46447 16.4645 8
    endloop
  endfacet
  facet normal 0 0 1
    outer loop
      vertex 7.5568 19.1107 8
      vertex 5 20 8
      vertex 5.3806 18.0866 8
    endloop
  endfacet
  facet normal 0.980785 -0.195091 0
    outer loop
      vertex 5 20 10
      vertex 5.3806 21.9134 8
      vertex 5.3806 21.9134 10
    endloop
  endfacet
  facet normal 0.980785 -0.195091 0
    outer loop
      vertex 5.3806 21.9134 8
      vertex 5 20 10
      vertex 5 20 8
    endloop
  endfacet
  facet normal 0.555585 -0.83146 0
    outer loop
      vertex 6.46447 23.5355 8
      vertex 8.08658 24.6194 10
      vertex 6.46447 23.5355 10
    endloop
  endfacet
  facet normal 0.555585 -0.83146 0
    outer loop
      vertex 8.08658 24.6194 10
      vertex 6.46447 23.5355 8
      vertex 8.08658 24.6194 8
    endloop
  endfacet
  facet normal 0.195089 0.980786 -0
    outer loop
      vertex 10 15 8
      vertex 8.08658 15.3806 10
      vertex 10 15 10
    endloop
  endfacet
  facet normal 0.195089 0.980786 0
    outer loop
      vertex 8.08658 15.3806 10
      vertex 10 15 8
      vertex 8.08658 15.3806 8
    endloop
  endfacet
  facet normal 0.831465 0.555576 0
    outer loop
      vertex 6.46447 16.4645 10
      vertex 5.3806 18.0866 8
      vertex 5.3806 18.0866 10
    endloop
  endfacet
  facet normal 0.831465 0.555576 0
    outer loop
      vertex 5.3806 18.0866 8
      vertex 6.46447 16.4645 10
      vertex 6.46447 16.4645 8
    endloop
  endfacet
  facet normal 0.980785 0.195091 0
    outer loop
      vertex 5.3806 18.0866 10
      vertex 5 20 8
      vertex 5 20 10
    endloop
  endfacet
  facet normal 0.980785 0.195091 0
    outer loop
      vertex 5 20 8
      vertex 5.3806 18.0866 10
      vertex 5.3806 18.0866 8
    endloop
  endfacet
  facet normal -0.831458 0.555587 0
    outer loop
      vertex 13.5355 16.4645 8
      vertex 14.6194 18.0866 10
      vertex 14.6194 18.0866 8
    endloop
  endfacet
  facet normal -0.831458 0.555587 0
    outer loop
      vertex 14.6194 18.0866 10
      vertex 13.5355 16.4645 8
      vertex 13.5355 16.4645 10
    endloop
  endfacet
  facet normal -0.195091 0.980785 0
    outer loop
      vertex 11.9134 15.3806 8
      vertex 10 15 10
      vertex 11.9134 15.3806 10
    endloop
  endfacet
  facet normal -0.195091 0.980785 0
    outer loop
      vertex 10 15 10
      vertex 11.9134 15.3806 8
      vertex 10 15 8
    endloop
  endfacet
  facet normal 0.555585 0.83146 -0
    outer loop
      vertex 8.08658 15.3806 8
      vertex 6.46447 16.4645 10
      vertex 8.08658 15.3806 10
    endloop
  endfacet
  facet normal 0.555585 0.83146 0
    outer loop
      vertex 6.46447 16.4645 10
      vertex 8.08658 15.3806 8
      vertex 6.46447 16.4645 8
    endloop
  endfacet
  facet normal -0.980785 0.195091 0
    outer loop
      vertex 14.6194 18.0866 8
      vertex 15 20 10
      vertex 15 20 8
    endloop
  endfacet
  facet normal -0.980785 0.195091 0
    outer loop
      vertex 15 20 10
      vertex 14.6194 18.0866 8
      vertex 14.6194 18.0866 10
    endloop
  endfacet
  facet normal -0.980785 -0.195091 0
    outer loop
      vertex 95 20 8
      vertex 94.6194 21.9134 10
      vertex 94.6194 21.9134 8
    endloop
  endfacet
  facet normal -0.980785 -0.195091 0
    outer loop
      vertex 94.6194 21.9134 10
      vertex 95 20 8
      vertex 95 20 10
    endloop
  endfacet
  facet normal 0.195091 -0.980785 0
    outer loop
      vertex 88.0866 24.6194 8
      vertex 90 25 10
      vertex 88.0866 24.6194 10
    endloop
  endfacet
  facet normal 0.195091 -0.980785 0
    outer loop
      vertex 90 25 10
      vertex 88.0866 24.6194 8
      vertex 90 25 8
    endloop
  endfacet
  facet normal -0.195091 0.980785 0
    outer loop
      vertex 91.9134 15.3806 8
      vertex 90 15 10
      vertex 91.9134 15.3806 10
    endloop
  endfacet
  facet normal -0.195091 0.980785 0
    outer loop
      vertex 90 15 10
      vertex 91.9134 15.3806 8
      vertex 90 15 8
    endloop
  endfacet
  facet normal -0.555587 0.831458 0
    outer loop
      vertex 93.5355 16.4645 8
      vertex 91.9134 15.3806 10
      vertex 93.5355 16.4645 10
    endloop
  endfacet
  facet normal -0.555587 0.831458 0
    outer loop
      vertex 91.9134 15.3806 10
      vertex 93.5355 16.4645 8
      vertex 91.9134 15.3806 8
    endloop
  endfacet
  facet normal -0.555587 -0.831458 0
    outer loop
      vertex 91.9134 24.6194 8
      vertex 93.5355 23.5355 10
      vertex 91.9134 24.6194 10
    endloop
  endfacet
  facet normal -0.555587 -0.831458 -0
    outer loop
      vertex 93.5355 23.5355 10
      vertex 91.9134 24.6194 8
      vertex 93.5355 23.5355 8
    endloop
  endfacet
  facet normal -0.831458 -0.555587 0
    outer loop
      vertex 94.6194 21.9134 8
      vertex 93.5355 23.5355 10
      vertex 93.5355 23.5355 8
    endloop
  endfacet
  facet normal -0.831458 -0.555587 0
    outer loop
      vertex 93.5355 23.5355 10
      vertex 94.6194 21.9134 8
      vertex 94.6194 21.9134 10
    endloop
  endfacet
  facet normal -0.195091 -0.980785 0
    outer loop
      vertex 90 25 8
      vertex 91.9134 24.6194 10
      vertex 90 25 10
    endloop
  endfacet
  facet normal -0.195091 -0.980785 -0
    outer loop
      vertex 91.9134 24.6194 10
      vertex 90 25 8
      vertex 91.9134 24.6194 8
    endloop
  endfacet
  facet normal 0.831458 -0.555587 0
    outer loop
      vertex 85.3806 21.9134 10
      vertex 86.4645 23.5355 8
      vertex 86.4645 23.5355 10
    endloop
  endfacet
  facet normal 0.831458 -0.555587 0
    outer loop
      vertex 86.4645 23.5355 8
      vertex 85.3806 21.9134 10
      vertex 85.3806 21.9134 8
    endloop
  endfacet
  facet normal 0 0 1
    outer loop
      vertex 92.6 20 8
      vertex 95 20 8
      vertex 94.6194 21.9134 8
    endloop
  endfacet
  facet normal 0 0 1
    outer loop
      vertex 91.9917 21.6712 8
      vertex 94.6194 21.9134 8
      vertex 93.5355 23.5355 8
    endloop
  endfacet
  facet normal 0 0 1
    outer loop
      vertex 95 20 8
      vertex 92.6 20 8
      vertex 94.6194 18.0866 8
    endloop
  endfacet
  facet normal -0 0 1
    outer loop
      vertex 91.9917 18.3288 8
      vertex 94.6194 18.0866 8
      vertex 92.6 20 8
    endloop
  endfacet
  facet normal 0 0 1
    outer loop
      vertex 94.6194 21.9134 8
      vertex 91.9917 21.6712 8
      vertex 92.6 20 8
    endloop
  endfacet
  facet normal 0 0 1
    outer loop
      vertex 91.9134 24.6194 8
      vertex 91.9917 21.6712 8
      vertex 93.5355 23.5355 8
    endloop
  endfacet
  facet normal 0 0 1
    outer loop
      vertex 91.9134 24.6194 8
      vertex 90.4515 22.5605 8
      vertex 91.9917 21.6712 8
    endloop
  endfacet
  facet normal 0 0 1
    outer loop
      vertex 90 25 8
      vertex 90.4515 22.5605 8
      vertex 91.9134 24.6194 8
    endloop
  endfacet
  facet normal 0 0 1
    outer loop
      vertex 90 25 8
      vertex 88.7 22.2517 8
      vertex 90.4515 22.5605 8
    endloop
  endfacet
  facet normal -0 0 1
    outer loop
      vertex 88.0866 24.6194 8
      vertex 88.7 22.2517 8
      vertex 90 25 8
    endloop
  endfacet
  facet normal -0 0 1
    outer loop
      vertex 86.4645 23.5355 8
      vertex 88.7 22.2517 8
      vertex 88.0866 24.6194 8
    endloop
  endfacet
  facet normal -0 0 1
    outer loop
      vertex 85.3806 21.9134 8
      vertex 87.5568 20.8893 8
      vertex 86.4645 23.5355 8
    endloop
  endfacet
  facet normal 0 0 1
    outer loop
      vertex 88.7 22.2517 8
      vertex 86.4645 23.5355 8
      vertex 87.5568 20.8893 8
    endloop
  endfacet
  facet normal 0 0 1
    outer loop
      vertex 94.6194 18.0866 8
      vertex 91.9917 18.3288 8
      vertex 93.5355 16.4645 8
    endloop
  endfacet
  facet normal 0 0 1
    outer loop
      vertex 91.9917 18.3288 8
      vertex 91.9134 15.3806 8
      vertex 93.5355 16.4645 8
    endloop
  endfacet
  facet normal -0 0 1
    outer loop
      vertex 90.4515 17.4395 8
      vertex 91.9134 15.3806 8
      vertex 91.9917 18.3288 8
    endloop
  endfacet
  facet normal 0 0 1
    outer loop
      vertex 90.4515 17.4395 8
      vertex 90 15 8
      vertex 91.9134 15.3806 8
    endloop
  endfacet
  facet normal 0 0 1
    outer loop
      vertex 88.7 17.7483 8
      vertex 90 15 8
      vertex 90.4515 17.4395 8
    endloop
  endfacet
  facet normal 0 0 1
    outer loop
      vertex 88.7 17.7483 8
      vertex 88.0866 15.3806 8
      vertex 90 15 8
    endloop
  endfacet
  facet normal 0 0 1
    outer loop
      vertex 86.4645 16.4645 8
      vertex 88.7 17.7483 8
      vertex 87.5568 19.1107 8
    endloop
  endfacet
  facet normal 0 0 1
    outer loop
      vertex 85 20 8
      vertex 87.5568 20.8893 8
      vertex 85.3806 21.9134 8
    endloop
  endfacet
  facet normal 0 0 1
    outer loop
      vertex 88.7 17.7483 8
      vertex 86.4645 16.4645 8
      vertex 88.0866 15.3806 8
    endloop
  endfacet
  facet normal 0 0 1
    outer loop
      vertex 87.5568 20.8893 8
      vertex 85 20 8
      vertex 87.5568 19.1107 8
    endloop
  endfacet
  facet normal 0 0 1
    outer loop
      vertex 87.5568 19.1107 8
      vertex 85.3806 18.0866 8
      vertex 86.4645 16.4645 8
    endloop
  endfacet
  facet normal 0 0 1
    outer loop
      vertex 87.5568 19.1107 8
      vertex 85 20 8
      vertex 85.3806 18.0866 8
    endloop
  endfacet
  facet normal 0.980785 -0.195091 0
    outer loop
      vertex 85 20 10
      vertex 85.3806 21.9134 8
      vertex 85.3806 21.9134 10
    endloop
  endfacet
  facet normal 0.980785 -0.195091 0
    outer loop
      vertex 85.3806 21.9134 8
      vertex 85 20 10
      vertex 85 20 8
    endloop
  endfacet
  facet normal 0.555587 -0.831458 0
    outer loop
      vertex 86.4645 23.5355 8
      vertex 88.0866 24.6194 10
      vertex 86.4645 23.5355 10
    endloop
  endfacet
  facet normal 0.555587 -0.831458 0
    outer loop
      vertex 88.0866 24.6194 10
      vertex 86.4645 23.5355 8
      vertex 88.0866 24.6194 8
    endloop
  endfacet
  facet normal 0.195091 0.980785 -0
    outer loop
      vertex 90 15 8
      vertex 88.0866 15.3806 10
      vertex 90 15 10
    endloop
  endfacet
  facet normal 0.195091 0.980785 0
    outer loop
      vertex 88.0866 15.3806 10
      vertex 90 15 8
      vertex 88.0866 15.3806 8
    endloop
  endfacet
  facet normal 0.831458 0.555587 0
    outer loop
      vertex 86.4645 16.4645 10
      vertex 85.3806 18.0866 8
      vertex 85.3806 18.0866 10
    endloop
  endfacet
  facet normal 0.831458 0.555587 0
    outer loop
      vertex 85.3806 18.0866 8
      vertex 86.4645 16.4645 10
      vertex 86.4645 16.4645 8
    endloop
  endfacet
  facet normal 0.980785 0.195091 0
    outer loop
      vertex 85.3806 18.0866 10
      vertex 85 20 8
      vertex 85 20 10
    endloop
  endfacet
  facet normal 0.980785 0.195091 0
    outer loop
      vertex 85 20 8
      vertex 85.3806 18.0866 10
      vertex 85.3806 18.0866 8
    endloop
  endfacet
  facet normal -0.831458 0.555587 0
    outer loop
      vertex 93.5355 16.4645 8
      vertex 94.6194 18.0866 10
      vertex 94.6194 18.0866 8
    endloop
  endfacet
  facet normal -0.831458 0.555587 0
    outer loop
      vertex 94.6194 18.0866 10
      vertex 93.5355 16.4645 8
      vertex 93.5355 16.4645 10
    endloop
  endfacet
  facet normal 0.555587 0.831458 -0
    outer loop
      vertex 88.0866 15.3806 8
      vertex 86.4645 16.4645 10
      vertex 88.0866 15.3806 10
    endloop
  endfacet
  facet normal 0.555587 0.831458 0
    outer loop
      vertex 86.4645 16.4645 10
      vertex 88.0866 15.3806 8
      vertex 86.4645 16.4645 8
    endloop
  endfacet
  facet normal -0.980785 0.195091 0
    outer loop
      vertex 94.6194 18.0866 8
      vertex 95 20 10
      vertex 95 20 8
    endloop
  endfacet
  facet normal -0.980785 0.195091 0
    outer loop
      vertex 95 20 10
      vertex 94.6194 18.0866 8
      vertex 94.6194 18.0866 10
    endloop
  endfacet
  facet normal -0.866019 0 -0.500011
    outer loop
      vertex 51.75 0 11
      vertex 50.875 5 12.5155
      vertex 51.75 5 11
    endloop
  endfacet
  facet normal -0.866019 -0 -0.500011
    outer loop
      vertex 50.875 5 12.5155
      vertex 51.75 0 11
      vertex 50.875 0 12.5155
    endloop
  endfacet
  facet normal -0.866019 0 -0.500011
    outer loop
      vertex 51.75 15 11
      vertex 50.875 20 12.5155
      vertex 51.75 20 11
    endloop
  endfacet
  facet normal -0.866019 -0 -0.500011
    outer loop
      vertex 50.875 20 12.5155
      vertex 51.75 15 11
      vertex 50.875 15 12.5155
    endloop
  endfacet
  facet normal 0 0 -1
    outer loop
      vertex 49.125 0 12.5155
      vertex 50.875 5 12.5155
      vertex 50.875 0 12.5155
    endloop
  endfacet
  facet normal -0 0 -1
    outer loop
      vertex 50.875 5 12.5155
      vertex 49.125 0 12.5155
      vertex 49.125 5 12.5155
    endloop
  endfacet
  facet normal 0 0 -1
    outer loop
      vertex 49.125 15 12.5155
      vertex 50.875 20 12.5155
      vertex 50.875 15 12.5155
    endloop
  endfacet
  facet normal -0 0 -1
    outer loop
      vertex 50.875 20 12.5155
      vertex 49.125 15 12.5155
      vertex 49.125 20 12.5155
    endloop
  endfacet
  facet normal 0.866019 0 -0.500011
    outer loop
      vertex 49.125 0 12.5155
      vertex 48.25 5 11
      vertex 49.125 5 12.5155
    endloop
  endfacet
  facet normal 0.866019 0 -0.500011
    outer loop
      vertex 48.25 5 11
      vertex 49.125 0 12.5155
      vertex 48.25 0 11
    endloop
  endfacet
  facet normal 0.866019 0 -0.500011
    outer loop
      vertex 49.125 15 12.5155
      vertex 48.25 20 11
      vertex 49.125 20 12.5155
    endloop
  endfacet
  facet normal 0.866019 0 -0.500011
    outer loop
      vertex 48.25 20 11
      vertex 49.125 15 12.5155
      vertex 48.25 15 11
    endloop
  endfacet
  facet normal 0.866025 -0 0.500001
    outer loop
      vertex 48.25 0 11
      vertex 49.125 5 9.48446
      vertex 48.25 5 11
    endloop
  endfacet
  facet normal 0.866025 0 0.500001
    outer loop
      vertex 49.125 5 9.48446
      vertex 48.25 0 11
      vertex 49.125 0 9.48446
    endloop
  endfacet
  facet normal 0.866025 -0 0.500001
    outer loop
      vertex 48.25 15 11
      vertex 49.125 20 9.48446
      vertex 48.25 20 11
    endloop
  endfacet
  facet normal 0.866025 0 0.500001
    outer loop
      vertex 49.125 20 9.48446
      vertex 48.25 15 11
      vertex 49.125 15 9.48446
    endloop
  endfacet
  facet normal -0 0 1
    outer loop
      vertex 49.125 5 9.48446
      vertex 50.875 0 9.48446
      vertex 50.875 5 9.48446
    endloop
  endfacet
  facet normal 0 0 1
    outer loop
      vertex 50.875 0 9.48446
      vertex 49.125 5 9.48446
      vertex 49.125 0 9.48446
    endloop
  endfacet
  facet normal -0 0 1
    outer loop
      vertex 49.125 20 9.48446
      vertex 50.875 15 9.48446
      vertex 50.875 20 9.48446
    endloop
  endfacet
  facet normal 0 0 1
    outer loop
      vertex 50.875 15 9.48446
      vertex 49.125 20 9.48446
      vertex 49.125 15 9.48446
    endloop
  endfacet
  facet normal -0.866025 0 0.500001
    outer loop
      vertex 50.875 0 9.48446
      vertex 51.75 5 11
      vertex 50.875 5 9.48446
    endloop
  endfacet
  facet normal -0.866025 0 0.500001
    outer loop
      vertex 51.75 5 11
      vertex 50.875 0 9.48446
      vertex 51.75 0 11
    endloop
  endfacet
  facet normal -0.866025 0 0.500001
    outer loop
      vertex 50.875 15 9.48446
      vertex 51.75 20 11
      vertex 50.875 20 9.48446
    endloop
  endfacet
  facet normal -0.866025 0 0.500001
    outer loop
      vertex 51.75 20 11
      vertex 50.875 15 9.48446
      vertex 51.75 15 11
    endloop
  endfacet
endsolid OpenSCAD_Model
