solid OpenSCAD_Model
  facet normal 0 -1 0
    outer loop
      vertex -5 0 5
      vertex -5 0 0
      vertex 0 0 5
    endloop
  endfacet
  facet normal 0 -1 0
    outer loop
      vertex 0 0 5
      vertex 12 0 6.5
      vertex 0 0 6.5
    endloop
  endfacet
  facet normal 0 -1 0
    outer loop
      vertex 12 0 0
      vertex 0 0 5
      vertex -5 0 0
    endloop
  endfacet
  facet normal 0 -1 0
    outer loop
      vertex 0 0 5
      vertex 12 0 0
      vertex 12 0 6.5
    endloop
  endfacet
  facet normal 0 0 -1
    outer loop
      vertex 203 0 0
      vertex 220 100 0
      vertex 220 0 0
    endloop
  endfacet
  facet normal -0 0 -1
    outer loop
      vertex 220 100 0
      vertex 203 0 0
      vertex 203 100 0
    endloop
  endfacet
  facet normal 0 0 -1
    outer loop
      vertex 12 0 0
      vertex 6 6 0
      vertex 12 6 0
    endloop
  endfacet
  facet normal 0 0 -1
    outer loop
      vertex -5 0 0
      vertex 6 6 0
      vertex 12 0 0
    endloop
  endfacet
  facet normal 0 0 -1
    outer loop
      vertex -5 100 0
      vertex 6 6 0
      vertex -5 0 0
    endloop
  endfacet
  facet normal 0 0 -1
    outer loop
      vertex 6 6 0
      vertex -5 100 0
      vertex 6 100 0
    endloop
  endfacet
  facet normal 1 0 0
    outer loop
      vertex 12 100 6.5
      vertex 12 6 0
      vertex 12 100 -7.5
    endloop
  endfacet
  facet normal 1 -0 0
    outer loop
      vertex 12 0 6.5
      vertex 12 6 0
      vertex 12 100 6.5
    endloop
  endfacet
  facet normal 1 0 0
    outer loop
      vertex 12 6 0
      vertex 12 0 6.5
      vertex 12 0 0
    endloop
  endfacet
  facet normal 1 0 0
    outer loop
      vertex 12 100 -7.5
      vertex 12 6 0
      vertex 12 6 -7.5
    endloop
  endfacet
  facet normal -0 0 1
    outer loop
      vertex -5 100 5
      vertex 0 0 5
      vertex 0 100 5
    endloop
  endfacet
  facet normal 0 0 1
    outer loop
      vertex 0 0 5
      vertex -5 100 5
      vertex -5 0 5
    endloop
  endfacet
  facet normal -1 0 0
    outer loop
      vertex -5 0 0
      vertex -5 100 5
      vertex -5 100 0
    endloop
  endfacet
  facet normal -1 -0 0
    outer loop
      vertex -5 100 5
      vertex -5 0 0
      vertex -5 0 5
    endloop
  endfacet
  facet normal -0 0 1
    outer loop
      vertex 203 100 6.5
      vertex 215 0 6.5
      vertex 215 100 6.5
    endloop
  endfacet
  facet normal 0 0 1
    outer loop
      vertex 215 0 6.5
      vertex 203 100 6.5
      vertex 203 0 6.5
    endloop
  endfacet
  facet normal -0 0 1
    outer loop
      vertex 0 100 6.5
      vertex 12 0 6.5
      vertex 12 100 6.5
    endloop
  endfacet
  facet normal 0 0 1
    outer loop
      vertex 12 0 6.5
      vertex 0 100 6.5
      vertex 0 0 6.5
    endloop
  endfacet
  facet normal -1 0 0
    outer loop
      vertex 0 0 5
      vertex 0 100 6.5
      vertex 0 100 5
    endloop
  endfacet
  facet normal -1 -0 0
    outer loop
      vertex 0 100 6.5
      vertex 0 0 5
      vertex 0 0 6.5
    endloop
  endfacet
  facet normal 0 -1 0
    outer loop
      vertex 6 6 -7.5
      vertex 12 6 0
      vertex 6 6 0
    endloop
  endfacet
  facet normal 0 -1 -0
    outer loop
      vertex 12 6 0
      vertex 6 6 -7.5
      vertex 12 6 -7.5
    endloop
  endfacet
  facet normal 0 0 -1
    outer loop
      vertex 6 6 -7.5
      vertex 12 100 -7.5
      vertex 12 6 -7.5
    endloop
  endfacet
  facet normal -0 0 -1
    outer loop
      vertex 12 100 -7.5
      vertex 6 6 -7.5
      vertex 6 100 -7.5
    endloop
  endfacet
  facet normal -1 0 0
    outer loop
      vertex 6 6 -7.5
      vertex 6 100 0
      vertex 6 100 -7.5
    endloop
  endfacet
  facet normal -1 -0 0
    outer loop
      vertex 6 100 0
      vertex 6 6 -7.5
      vertex 6 6 0
    endloop
  endfacet
  facet normal 0 -1 0
    outer loop
      vertex 203 0 6.5
      vertex 215 0 5
      vertex 215 0 6.5
    endloop
  endfacet
  facet normal 0 -1 0
    outer loop
      vertex 203 0 0
      vertex 215 0 5
      vertex 203 0 6.5
    endloop
  endfacet
  facet normal 0 -1 0
    outer loop
      vertex 220 0 0
      vertex 215 0 5
      vertex 203 0 0
    endloop
  endfacet
  facet normal 0 -1 0
    outer loop
      vertex 215 0 5
      vertex 220 0 0
      vertex 220 0 5
    endloop
  endfacet
  facet normal -1 0 0
    outer loop
      vertex 203 0 0
      vertex 203 100 6.5
      vertex 203 100 0
    endloop
  endfacet
  facet normal -1 -0 0
    outer loop
      vertex 203 100 6.5
      vertex 203 0 0
      vertex 203 0 6.5
    endloop
  endfacet
  facet normal -0 0 1
    outer loop
      vertex 215 100 5
      vertex 220 0 5
      vertex 220 100 5
    endloop
  endfacet
  facet normal 0 0 1
    outer loop
      vertex 220 0 5
      vertex 215 100 5
      vertex 215 0 5
    endloop
  endfacet
  facet normal 1 -0 0
    outer loop
      vertex 220 0 5
      vertex 220 100 0
      vertex 220 100 5
    endloop
  endfacet
  facet normal 1 0 0
    outer loop
      vertex 220 100 0
      vertex 220 0 5
      vertex 220 0 0
    endloop
  endfacet
  facet normal 1 -0 0
    outer loop
      vertex 215 0 6.5
      vertex 215 100 5
      vertex 215 100 6.5
    endloop
  endfacet
  facet normal 1 0 0
    outer loop
      vertex 215 100 5
      vertex 215 0 6.5
      vertex 215 0 5
    endloop
  endfacet
  facet normal 0 1 0
    outer loop
      vertex 220 100 5
      vertex 220 100 0
      vertex 215 100 5
    endloop
  endfacet
  facet normal 0 1 -0
    outer loop
      vertex 215 100 5
      vertex 203 100 6.5
      vertex 215 100 6.5
    endloop
  endfacet
  facet normal 0 1 0
    outer loop
      vertex 203 100 0
      vertex 215 100 5
      vertex 220 100 0
    endloop
  endfacet
  facet normal 0 1 0
    outer loop
      vertex 215 100 5
      vertex 203 100 0
      vertex 203 100 6.5
    endloop
  endfacet
  facet normal 0 1 -0
    outer loop
      vertex 6 100 0
      vertex 0 100 6.5
      vertex 12 100 6.5
    endloop
  endfacet
  facet normal 0 1 0
    outer loop
      vertex -5 100 0
      vertex 0 100 5
      vertex 6 100 0
    endloop
  endfacet
  facet normal 0 1 0
    outer loop
      vertex 0 100 6.5
      vertex 6 100 0
      vertex 0 100 5
    endloop
  endfacet
  facet normal 0 1 -0
    outer loop
      vertex 12 100 -7.5
      vertex 6 100 0
      vertex 12 100 6.5
    endloop
  endfacet
  facet normal 0 1 0
    outer loop
      vertex 6 100 0
      vertex 12 100 -7.5
      vertex 6 100 -7.5
    endloop
  endfacet
  facet normal 0 1 0
    outer loop
      vertex 0 100 5
      vertex -5 100 0
      vertex -5 100 5
    endloop
  endfacet
endsolid OpenSCAD_Model
