solid OpenSCAD_Model
  facet normal -1 0 0
    outer loop
      vertex 0 280 0
      vertex 0 275 5
      vertex 0 280 5
    endloop
  endfacet
  facet normal -1 0 0
    outer loop
      vertex 0 263 0
      vertex 0 275 5
      vertex 0 280 0
    endloop
  endfacet
  facet normal -1 0 0
    outer loop
      vertex 0 263 5
      vertex 0 275 5
      vertex 0 263 0
    endloop
  endfacet
  facet normal -1 0 0
    outer loop
      vertex 0 275 5
      vertex 0 263 5
      vertex 0 275 6.5
    endloop
  endfacet
  facet normal -1 0 0
    outer loop
      vertex 0 155 6.5
      vertex 0 263 5
      vertex 0 155 5
    endloop
  endfacet
  facet normal -1 0 0
    outer loop
      vertex 0 263 5
      vertex 0 155 6.5
      vertex 0 275 6.5
    endloop
  endfacet
  facet normal 1 0 0
    outer loop
      vertex 215 275 6.5
      vertex 215 263 5
      vertex 215 275 5
    endloop
  endfacet
  facet normal 1 -0 0
    outer loop
      vertex 215 155 6.5
      vertex 215 263 5
      vertex 215 275 6.5
    endloop
  endfacet
  facet normal 1 0 0
    outer loop
      vertex 215 263 5
      vertex 215 155 6.5
      vertex 215 155 5
    endloop
  endfacet
  facet normal 1 -0 0
    outer loop
      vertex 215 275 5
      vertex 215 280 0
      vertex 215 280 5
    endloop
  endfacet
  facet normal 1 0 0
    outer loop
      vertex 215 263 0
      vertex 215 275 5
      vertex 215 263 5
    endloop
  endfacet
  facet normal 1 0 0
    outer loop
      vertex 215 275 5
      vertex 215 263 0
      vertex 215 280 0
    endloop
  endfacet
  facet normal 0 0 -1
    outer loop
      vertex 12 155 0
      vertex 0 263 0
      vertex 12 263 0
    endloop
  endfacet
  facet normal 0 0 -1
    outer loop
      vertex -5 155 0
      vertex 0 263 0
      vertex 12 155 0
    endloop
  endfacet
  facet normal -0 0 -1
    outer loop
      vertex 0 263 0
      vertex -5 155 0
      vertex -5 263 0
    endloop
  endfacet
  facet normal 0 0 -1
    outer loop
      vertex 12 263 0
      vertex 89 280 0
      vertex 89 263 0
    endloop
  endfacet
  facet normal 0 0 -1
    outer loop
      vertex 0 280 0
      vertex 12 263 0
      vertex 0 263 0
    endloop
  endfacet
  facet normal 0 0 -1
    outer loop
      vertex 12 263 0
      vertex 0 280 0
      vertex 89 280 0
    endloop
  endfacet
  facet normal 0 0 -1
    outer loop
      vertex 220 155 0
      vertex 215 263 0
      vertex 220 263 0
    endloop
  endfacet
  facet normal 0 0 -1
    outer loop
      vertex 203 155 0
      vertex 215 263 0
      vertex 220 155 0
    endloop
  endfacet
  facet normal 0 0 -1
    outer loop
      vertex 203 263 0
      vertex 215 263 0
      vertex 203 155 0
    endloop
  endfacet
  facet normal 0 0 -1
    outer loop
      vertex 215 263 0
      vertex 203 263 0
      vertex 215 280 0
    endloop
  endfacet
  facet normal 0 0 -1
    outer loop
      vertex 126 280 0
      vertex 203 263 0
      vertex 126 263 0
    endloop
  endfacet
  facet normal 0 0 -1
    outer loop
      vertex 203 263 0
      vertex 126 280 0
      vertex 215 280 0
    endloop
  endfacet
  facet normal 0 0 1
    outer loop
      vertex 89 275 6.5
      vertex 12 263 6.5
      vertex 89 263 6.5
    endloop
  endfacet
  facet normal -0 0 1
    outer loop
      vertex 0 275 6.5
      vertex 12 263 6.5
      vertex 89 275 6.5
    endloop
  endfacet
  facet normal 0 0 1
    outer loop
      vertex 0 155 6.5
      vertex 12 263 6.5
      vertex 0 275 6.5
    endloop
  endfacet
  facet normal 0 0 1
    outer loop
      vertex 12 263 6.5
      vertex 0 155 6.5
      vertex 12 155 6.5
    endloop
  endfacet
  facet normal 0 0 1
    outer loop
      vertex 215 275 6.5
      vertex 203 263 6.5
      vertex 215 155 6.5
    endloop
  endfacet
  facet normal -0 0 1
    outer loop
      vertex 126 275 6.5
      vertex 203 263 6.5
      vertex 215 275 6.5
    endloop
  endfacet
  facet normal 0 0 1
    outer loop
      vertex 203 263 6.5
      vertex 126 275 6.5
      vertex 126 263 6.5
    endloop
  endfacet
  facet normal 0 0 1
    outer loop
      vertex 215 155 6.5
      vertex 203 263 6.5
      vertex 203 155 6.5
    endloop
  endfacet
  facet normal 0 1 -0
    outer loop
      vertex 0 263 0
      vertex -5 263 5
      vertex 0 263 5
    endloop
  endfacet
  facet normal 0 1 0
    outer loop
      vertex -5 263 5
      vertex 0 263 0
      vertex -5 263 0
    endloop
  endfacet
  facet normal 0 1 -0
    outer loop
      vertex 220 263 0
      vertex 215 263 5
      vertex 220 263 5
    endloop
  endfacet
  facet normal 0 1 0
    outer loop
      vertex 215 263 5
      vertex 220 263 0
      vertex 215 263 0
    endloop
  endfacet
  facet normal 0 -1 0
    outer loop
      vertex 126 263 0
      vertex 203 263 6.5
      vertex 126 263 6.5
    endloop
  endfacet
  facet normal 0 -1 -0
    outer loop
      vertex 203 263 6.5
      vertex 126 263 0
      vertex 203 263 0
    endloop
  endfacet
  facet normal 0 -1 0
    outer loop
      vertex 12 263 0
      vertex 89 263 6.5
      vertex 12 263 6.5
    endloop
  endfacet
  facet normal 0 -1 -0
    outer loop
      vertex 89 263 6.5
      vertex 12 263 0
      vertex 89 263 0
    endloop
  endfacet
  facet normal -0 0 1
    outer loop
      vertex -5 263 5
      vertex 0 155 5
      vertex 0 263 5
    endloop
  endfacet
  facet normal 0 0 1
    outer loop
      vertex 0 155 5
      vertex -5 263 5
      vertex -5 155 5
    endloop
  endfacet
  facet normal -1 0 0
    outer loop
      vertex -5 155 0
      vertex -5 263 5
      vertex -5 263 0
    endloop
  endfacet
  facet normal -1 -0 0
    outer loop
      vertex -5 263 5
      vertex -5 155 0
      vertex -5 155 5
    endloop
  endfacet
  facet normal 1 -0 0
    outer loop
      vertex 12 155 6.5
      vertex 12 263 0
      vertex 12 263 6.5
    endloop
  endfacet
  facet normal 1 0 0
    outer loop
      vertex 12 263 0
      vertex 12 155 6.5
      vertex 12 155 0
    endloop
  endfacet
  facet normal -0 0 1
    outer loop
      vertex 215 263 5
      vertex 220 155 5
      vertex 220 263 5
    endloop
  endfacet
  facet normal 0 0 1
    outer loop
      vertex 220 155 5
      vertex 215 263 5
      vertex 215 155 5
    endloop
  endfacet
  facet normal 1 -0 0
    outer loop
      vertex 220 155 5
      vertex 220 263 0
      vertex 220 263 5
    endloop
  endfacet
  facet normal 1 0 0
    outer loop
      vertex 220 263 0
      vertex 220 155 5
      vertex 220 155 0
    endloop
  endfacet
  facet normal -1 0 0
    outer loop
      vertex 203 155 0
      vertex 203 263 6.5
      vertex 203 263 0
    endloop
  endfacet
  facet normal -1 -0 0
    outer loop
      vertex 203 263 6.5
      vertex 203 155 0
      vertex 203 155 6.5
    endloop
  endfacet
  facet normal -0 0 1
    outer loop
      vertex 0 280 5
      vertex 89 275 5
      vertex 89 280 5
    endloop
  endfacet
  facet normal 0 0 1
    outer loop
      vertex 89 275 5
      vertex 0 280 5
      vertex 0 275 5
    endloop
  endfacet
  facet normal -0 0 1
    outer loop
      vertex 126 280 5
      vertex 215 275 5
      vertex 215 280 5
    endloop
  endfacet
  facet normal 0 0 1
    outer loop
      vertex 215 275 5
      vertex 126 280 5
      vertex 126 275 5
    endloop
  endfacet
  facet normal 0 1 -0
    outer loop
      vertex 89 280 0
      vertex 0 280 5
      vertex 89 280 5
    endloop
  endfacet
  facet normal 0 1 0
    outer loop
      vertex 0 280 5
      vertex 89 280 0
      vertex 0 280 0
    endloop
  endfacet
  facet normal 0 1 -0
    outer loop
      vertex 215 280 0
      vertex 126 280 5
      vertex 215 280 5
    endloop
  endfacet
  facet normal 0 1 0
    outer loop
      vertex 126 280 5
      vertex 215 280 0
      vertex 126 280 0
    endloop
  endfacet
  facet normal 0 1 -0
    outer loop
      vertex 89 275 5
      vertex 0 275 6.5
      vertex 89 275 6.5
    endloop
  endfacet
  facet normal 0 1 0
    outer loop
      vertex 0 275 6.5
      vertex 89 275 5
      vertex 0 275 5
    endloop
  endfacet
  facet normal 0 1 -0
    outer loop
      vertex 215 275 5
      vertex 126 275 6.5
      vertex 215 275 6.5
    endloop
  endfacet
  facet normal 0 1 0
    outer loop
      vertex 126 275 6.5
      vertex 215 275 5
      vertex 126 275 5
    endloop
  endfacet
  facet normal 0 -1 0
    outer loop
      vertex -5 155 5
      vertex -5 155 0
      vertex 0 155 5
    endloop
  endfacet
  facet normal 0 -1 0
    outer loop
      vertex 0 155 5
      vertex 12 155 6.5
      vertex 0 155 6.5
    endloop
  endfacet
  facet normal 0 -1 0
    outer loop
      vertex 12 155 0
      vertex 0 155 5
      vertex -5 155 0
    endloop
  endfacet
  facet normal 0 -1 0
    outer loop
      vertex 0 155 5
      vertex 12 155 0
      vertex 12 155 6.5
    endloop
  endfacet
  facet normal 0 -1 0
    outer loop
      vertex 203 155 6.5
      vertex 215 155 5
      vertex 215 155 6.5
    endloop
  endfacet
  facet normal 0 -1 0
    outer loop
      vertex 203 155 0
      vertex 215 155 5
      vertex 203 155 6.5
    endloop
  endfacet
  facet normal 0 -1 0
    outer loop
      vertex 220 155 0
      vertex 215 155 5
      vertex 203 155 0
    endloop
  endfacet
  facet normal 0 -1 0
    outer loop
      vertex 215 155 5
      vertex 220 155 0
      vertex 220 155 5
    endloop
  endfacet
  facet normal 1 0 0
    outer loop
      vertex 89 275 6.5
      vertex 89 263 6.5
      vertex 89 275 5
    endloop
  endfacet
  facet normal 1 -0 0
    outer loop
      vertex 89 275 5
      vertex 89 280 0
      vertex 89 280 5
    endloop
  endfacet
  facet normal 1 0 0
    outer loop
      vertex 89 263 0
      vertex 89 275 5
      vertex 89 263 6.5
    endloop
  endfacet
  facet normal 1 0 0
    outer loop
      vertex 89 275 5
      vertex 89 263 0
      vertex 89 280 0
    endloop
  endfacet
  facet normal -1 0 0
    outer loop
      vertex 126 280 0
      vertex 126 275 5
      vertex 126 280 5
    endloop
  endfacet
  facet normal -1 0 0
    outer loop
      vertex 126 263 0
      vertex 126 275 5
      vertex 126 280 0
    endloop
  endfacet
  facet normal -1 0 0
    outer loop
      vertex 126 263 6.5
      vertex 126 275 5
      vertex 126 263 0
    endloop
  endfacet
  facet normal -1 0 0
    outer loop
      vertex 126 275 5
      vertex 126 263 6.5
      vertex 126 275 6.5
    endloop
  endfacet
endsolid OpenSCAD_Model
