solid OpenSCAD_Model
  facet normal -1 0 0
    outer loop
      vertex 0 -5 1.5
      vertex 0 0 6.5
      vertex 0 0 1.5
    endloop
  endfacet
  facet normal -1 -0 0
    outer loop
      vertex 0 0 6.5
      vertex 0 -5 1.5
      vertex 0 -5 6.5
    endloop
  endfacet
  facet normal -1 0 0
    outer loop
      vertex 0 118 0
      vertex 0 12 1.5
      vertex 0 118 1.5
    endloop
  endfacet
  facet normal -1 0 0
    outer loop
      vertex 0 0 6.5
      vertex 0 12 6.5
      vertex 0 12 1.5
    endloop
  endfacet
  facet normal -1 0 0
    outer loop
      vertex 0 0 0
      vertex 0 12 1.5
      vertex 0 118 0
    endloop
  endfacet
  facet normal -1 0 0
    outer loop
      vertex 0 0 1.5
      vertex 0 12 1.5
      vertex 0 0 0
    endloop
  endfacet
  facet normal -1 0 0
    outer loop
      vertex 0 0 6.5
      vertex 0 12 1.5
      vertex 0 0 1.5
    endloop
  endfacet
  facet normal -1 0 0
    outer loop
      vertex 0 12 6.5
      vertex 0 0 6.5
      vertex 0 12 10
    endloop
  endfacet
  facet normal -1 -0 0
    outer loop
      vertex 0 12 10
      vertex 0 0 6.5
      vertex 0 0 10
    endloop
  endfacet
  facet normal -0 0 1
    outer loop
      vertex 0 12 10
      vertex 215 0 10
      vertex 215 12 10
    endloop
  endfacet
  facet normal 0 0 1
    outer loop
      vertex 215 0 10
      vertex 0 12 10
      vertex 0 0 10
    endloop
  endfacet
  facet normal 1 0 0
    outer loop
      vertex 215 0 6.5
      vertex 215 12 6.5
      vertex 215 12 10
    endloop
  endfacet
  facet normal 1 0 0
    outer loop
      vertex 215 0 6.5
      vertex 215 12 10
      vertex 215 0 10
    endloop
  endfacet
  facet normal 1 -0 0
    outer loop
      vertex 215 12 1.5
      vertex 215 118 0
      vertex 215 118 1.5
    endloop
  endfacet
  facet normal 1 0 0
    outer loop
      vertex 215 12 6.5
      vertex 215 0 6.5
      vertex 215 12 1.5
    endloop
  endfacet
  facet normal 1 0 0
    outer loop
      vertex 215 0 1.5
      vertex 215 12 1.5
      vertex 215 0 6.5
    endloop
  endfacet
  facet normal 1 0 0
    outer loop
      vertex 215 0 0
      vertex 215 12 1.5
      vertex 215 0 1.5
    endloop
  endfacet
  facet normal 1 0 0
    outer loop
      vertex 215 12 1.5
      vertex 215 0 0
      vertex 215 118 0
    endloop
  endfacet
  facet normal 1 -0 0
    outer loop
      vertex 215 -5 6.5
      vertex 215 0 1.5
      vertex 215 0 6.5
    endloop
  endfacet
  facet normal 1 0 0
    outer loop
      vertex 215 0 1.5
      vertex 215 -5 6.5
      vertex 215 -5 1.5
    endloop
  endfacet
  facet normal 0 1 -0
    outer loop
      vertex 25.2 12 5
      vertex 12 12 6.5
      vertex 25.2 12 8.1
    endloop
  endfacet
  facet normal 0 1 0
    outer loop
      vertex 25.2 12 5
      vertex 12 12 0
      vertex 12 12 6.5
    endloop
  endfacet
  facet normal 0 1 0
    outer loop
      vertex 33.3 12 5
      vertex 12 12 0
      vertex 25.2 12 5
    endloop
  endfacet
  facet normal 0 1 -0
    outer loop
      vertex 180.2 12 5
      vertex 33.3 12 8.1
      vertex 180.2 12 8.1
    endloop
  endfacet
  facet normal 0 1 0
    outer loop
      vertex 33.3 12 8.1
      vertex 180.2 12 5
      vertex 33.3 12 5
    endloop
  endfacet
  facet normal 0 1 0
    outer loop
      vertex 180.2 12 8.1
      vertex 215 12 10
      vertex 188.3 12 8.1
    endloop
  endfacet
  facet normal 0 1 0
    outer loop
      vertex 203 12 6.5
      vertex 215 12 10
      vertex 215 12 6.5
    endloop
  endfacet
  facet normal 0 1 0
    outer loop
      vertex 215 12 10
      vertex 203 12 6.5
      vertex 188.3 12 8.1
    endloop
  endfacet
  facet normal 0 1 0
    outer loop
      vertex 203 12 6.5
      vertex 188.3 12 5
      vertex 188.3 12 8.1
    endloop
  endfacet
  facet normal 0 1 0
    outer loop
      vertex 203 12 0
      vertex 180.2 12 5
      vertex 188.3 12 5
    endloop
  endfacet
  facet normal 0 1 0
    outer loop
      vertex 12 12 0
      vertex 180.2 12 5
      vertex 203 12 0
    endloop
  endfacet
  facet normal 0 1 0
    outer loop
      vertex 180.2 12 5
      vertex 12 12 0
      vertex 33.3 12 5
    endloop
  endfacet
  facet normal 0 1 -0
    outer loop
      vertex 203 12 0
      vertex 188.3 12 5
      vertex 203 12 6.5
    endloop
  endfacet
  facet normal 0 1 0
    outer loop
      vertex 215 12 10
      vertex 180.2 12 8.1
      vertex 0 12 10
    endloop
  endfacet
  facet normal 0 1 -0
    outer loop
      vertex 33.3 12 8.1
      vertex 0 12 10
      vertex 180.2 12 8.1
    endloop
  endfacet
  facet normal 0 1 -0
    outer loop
      vertex 25.2 12 8.1
      vertex 0 12 10
      vertex 33.3 12 8.1
    endloop
  endfacet
  facet normal 0 1 -0
    outer loop
      vertex 12 12 6.5
      vertex 0 12 10
      vertex 25.2 12 8.1
    endloop
  endfacet
  facet normal 0 1 0
    outer loop
      vertex 0 12 10
      vertex 12 12 6.5
      vertex 0 12 6.5
    endloop
  endfacet
  facet normal 0 -1 0
    outer loop
      vertex 215 12 1.5
      vertex 220 12 6.5
      vertex 215 12 6.5
    endloop
  endfacet
  facet normal 0 -1 -0
    outer loop
      vertex 220 12 6.5
      vertex 215 12 1.5
      vertex 220 12 1.5
    endloop
  endfacet
  facet normal 0 -1 0
    outer loop
      vertex -5 12 1.5
      vertex 0 12 6.5
      vertex -5 12 6.5
    endloop
  endfacet
  facet normal 0 -1 -0
    outer loop
      vertex 0 12 6.5
      vertex -5 12 1.5
      vertex 0 12 1.5
    endloop
  endfacet
  facet normal 0 0 -1
    outer loop
      vertex 215 0 0
      vertex 203 12 0
      vertex 215 118 0
    endloop
  endfacet
  facet normal 0 0 -1
    outer loop
      vertex 215 0 0
      vertex 188.5 2 0
      vertex 203 12 0
    endloop
  endfacet
  facet normal 0 0 -1
    outer loop
      vertex 215 0 0
      vertex 180 2 0
      vertex 188.5 2 0
    endloop
  endfacet
  facet normal 0 0 -1
    outer loop
      vertex 180 2 0
      vertex 33.5 2 0
      vertex 180 10.5 0
    endloop
  endfacet
  facet normal 0 0 -1
    outer loop
      vertex 215 0 0
      vertex 33.5 2 0
      vertex 180 2 0
    endloop
  endfacet
  facet normal 0 0 -1
    outer loop
      vertex 0 0 0
      vertex 33.5 2 0
      vertex 215 0 0
    endloop
  endfacet
  facet normal 0 0 -1
    outer loop
      vertex 25 2 0
      vertex 12 12 0
      vertex 25 10.5 0
    endloop
  endfacet
  facet normal -0 0 -1
    outer loop
      vertex 33.5 2 0
      vertex 0 0 0
      vertex 25 2 0
    endloop
  endfacet
  facet normal 0 0 -1
    outer loop
      vertex 0 0 0
      vertex 12 12 0
      vertex 25 2 0
    endloop
  endfacet
  facet normal 0 0 -1
    outer loop
      vertex 0 118 0
      vertex 12 12 0
      vertex 0 0 0
    endloop
  endfacet
  facet normal 0 0 -1
    outer loop
      vertex 12 12 0
      vertex 0 118 0
      vertex 12 118 0
    endloop
  endfacet
  facet normal -0 0 -1
    outer loop
      vertex 215 118 0
      vertex 203 12 0
      vertex 203 118 0
    endloop
  endfacet
  facet normal 0 0 -1
    outer loop
      vertex 188.5 10.5 0
      vertex 203 12 0
      vertex 188.5 2 0
    endloop
  endfacet
  facet normal 0 0 -1
    outer loop
      vertex 180 10.5 0
      vertex 203 12 0
      vertex 188.5 10.5 0
    endloop
  endfacet
  facet normal 0 0 -1
    outer loop
      vertex 33.5 10.5 0
      vertex 180 10.5 0
      vertex 33.5 2 0
    endloop
  endfacet
  facet normal 0 0 -1
    outer loop
      vertex 180 10.5 0
      vertex 33.5 10.5 0
      vertex 203 12 0
    endloop
  endfacet
  facet normal 0 0 -1
    outer loop
      vertex 12 12 0
      vertex 33.5 10.5 0
      vertex 25 10.5 0
    endloop
  endfacet
  facet normal 0 0 -1
    outer loop
      vertex 33.5 10.5 0
      vertex 12 12 0
      vertex 203 12 0
    endloop
  endfacet
  facet normal 0 -1 0
    outer loop
      vertex 0 0 0
      vertex 215 0 1.5
      vertex 0 0 1.5
    endloop
  endfacet
  facet normal 0 -1 -0
    outer loop
      vertex 215 0 1.5
      vertex 0 0 0
      vertex 215 0 0
    endloop
  endfacet
  facet normal 0 -1 0
    outer loop
      vertex 0 0 6.5
      vertex 215 0 10
      vertex 0 0 10
    endloop
  endfacet
  facet normal 0 -1 -0
    outer loop
      vertex 215 0 10
      vertex 0 0 6.5
      vertex 215 0 6.5
    endloop
  endfacet
  facet normal -0 0 1
    outer loop
      vertex 0 0 6.5
      vertex 215 -5 6.5
      vertex 215 0 6.5
    endloop
  endfacet
  facet normal 0 0 1
    outer loop
      vertex 215 -5 6.5
      vertex 0 0 6.5
      vertex 0 -5 6.5
    endloop
  endfacet
  facet normal 0 0 -1
    outer loop
      vertex 0 -5 1.5
      vertex 215 0 1.5
      vertex 215 -5 1.5
    endloop
  endfacet
  facet normal -0 0 -1
    outer loop
      vertex 215 0 1.5
      vertex 0 -5 1.5
      vertex 0 0 1.5
    endloop
  endfacet
  facet normal 0 -1 0
    outer loop
      vertex 0 -5 1.5
      vertex 215 -5 6.5
      vertex 0 -5 6.5
    endloop
  endfacet
  facet normal 0 -1 -0
    outer loop
      vertex 215 -5 6.5
      vertex 0 -5 1.5
      vertex 215 -5 1.5
    endloop
  endfacet
  facet normal 1 -0 0
    outer loop
      vertex 25 2 3.5
      vertex 25 10.5 0
      vertex 25 10.5 3.5
    endloop
  endfacet
  facet normal 1 0 0
    outer loop
      vertex 25 10.5 0
      vertex 25 2 3.5
      vertex 25 2 0
    endloop
  endfacet
  facet normal 0 0 -1
    outer loop
      vertex 25 2 3.5
      vertex 33.5 10.5 3.5
      vertex 33.5 2 3.5
    endloop
  endfacet
  facet normal -0 0 -1
    outer loop
      vertex 33.5 10.5 3.5
      vertex 25 2 3.5
      vertex 25 10.5 3.5
    endloop
  endfacet
  facet normal -1 0 0
    outer loop
      vertex 33.5 2 0
      vertex 33.5 10.5 3.5
      vertex 33.5 10.5 0
    endloop
  endfacet
  facet normal -1 -0 0
    outer loop
      vertex 33.5 10.5 3.5
      vertex 33.5 2 0
      vertex 33.5 2 3.5
    endloop
  endfacet
  facet normal 0 1 -0
    outer loop
      vertex 33.5 2 0
      vertex 25 2 3.5
      vertex 33.5 2 3.5
    endloop
  endfacet
  facet normal 0 1 0
    outer loop
      vertex 25 2 3.5
      vertex 33.5 2 0
      vertex 25 2 0
    endloop
  endfacet
  facet normal 0 -1 0
    outer loop
      vertex 25 10.5 0
      vertex 33.5 10.5 3.5
      vertex 25 10.5 3.5
    endloop
  endfacet
  facet normal 0 -1 -0
    outer loop
      vertex 33.5 10.5 3.5
      vertex 25 10.5 0
      vertex 33.5 10.5 0
    endloop
  endfacet
  facet normal 1 -0 0
    outer loop
      vertex 25.2 2 8.1
      vertex 25.2 12 5
      vertex 25.2 12 8.1
    endloop
  endfacet
  facet normal 1 0 0
    outer loop
      vertex 25.2 12 5
      vertex 25.2 2 8.1
      vertex 25.2 2 5
    endloop
  endfacet
  facet normal 0 0 -1
    outer loop
      vertex 25.2 2 8.1
      vertex 33.3 12 8.1
      vertex 33.3 2 8.1
    endloop
  endfacet
  facet normal -0 0 -1
    outer loop
      vertex 33.3 12 8.1
      vertex 25.2 2 8.1
      vertex 25.2 12 8.1
    endloop
  endfacet
  facet normal -1 0 0
    outer loop
      vertex 33.3 2 5
      vertex 33.3 12 8.1
      vertex 33.3 12 5
    endloop
  endfacet
  facet normal -1 -0 0
    outer loop
      vertex 33.3 12 8.1
      vertex 33.3 2 5
      vertex 33.3 2 8.1
    endloop
  endfacet
  facet normal -0 0 1
    outer loop
      vertex 25.2 12 5
      vertex 33.3 2 5
      vertex 33.3 12 5
    endloop
  endfacet
  facet normal 0 0 1
    outer loop
      vertex 33.3 2 5
      vertex 25.2 12 5
      vertex 25.2 2 5
    endloop
  endfacet
  facet normal 0 1 -0
    outer loop
      vertex 33.3 2 5
      vertex 25.2 2 8.1
      vertex 33.3 2 8.1
    endloop
  endfacet
  facet normal 0 1 0
    outer loop
      vertex 25.2 2 8.1
      vertex 33.3 2 5
      vertex 25.2 2 5
    endloop
  endfacet
  facet normal 1 -0 0
    outer loop
      vertex 180 2 3.5
      vertex 180 10.5 0
      vertex 180 10.5 3.5
    endloop
  endfacet
  facet normal 1 0 0
    outer loop
      vertex 180 10.5 0
      vertex 180 2 3.5
      vertex 180 2 0
    endloop
  endfacet
  facet normal 0 0 -1
    outer loop
      vertex 180 2 3.5
      vertex 188.5 10.5 3.5
      vertex 188.5 2 3.5
    endloop
  endfacet
  facet normal -0 0 -1
    outer loop
      vertex 188.5 10.5 3.5
      vertex 180 2 3.5
      vertex 180 10.5 3.5
    endloop
  endfacet
  facet normal -1 0 0
    outer loop
      vertex 188.5 2 0
      vertex 188.5 10.5 3.5
      vertex 188.5 10.5 0
    endloop
  endfacet
  facet normal -1 -0 0
    outer loop
      vertex 188.5 10.5 3.5
      vertex 188.5 2 0
      vertex 188.5 2 3.5
    endloop
  endfacet
  facet normal 0 -1 0
    outer loop
      vertex 180 10.5 0
      vertex 188.5 10.5 3.5
      vertex 180 10.5 3.5
    endloop
  endfacet
  facet normal 0 -1 -0
    outer loop
      vertex 188.5 10.5 3.5
      vertex 180 10.5 0
      vertex 188.5 10.5 0
    endloop
  endfacet
  facet normal 0 1 -0
    outer loop
      vertex 188.5 2 0
      vertex 180 2 3.5
      vertex 188.5 2 3.5
    endloop
  endfacet
  facet normal 0 1 0
    outer loop
      vertex 180 2 3.5
      vertex 188.5 2 0
      vertex 180 2 0
    endloop
  endfacet
  facet normal 1 -0 0
    outer loop
      vertex 180.2 2 8.1
      vertex 180.2 12 5
      vertex 180.2 12 8.1
    endloop
  endfacet
  facet normal 1 0 0
    outer loop
      vertex 180.2 12 5
      vertex 180.2 2 8.1
      vertex 180.2 2 5
    endloop
  endfacet
  facet normal 0 0 -1
    outer loop
      vertex 180.2 2 8.1
      vertex 188.3 12 8.1
      vertex 188.3 2 8.1
    endloop
  endfacet
  facet normal -0 0 -1
    outer loop
      vertex 188.3 12 8.1
      vertex 180.2 2 8.1
      vertex 180.2 12 8.1
    endloop
  endfacet
  facet normal -1 0 0
    outer loop
      vertex 188.3 2 5
      vertex 188.3 12 8.1
      vertex 188.3 12 5
    endloop
  endfacet
  facet normal -1 -0 0
    outer loop
      vertex 188.3 12 8.1
      vertex 188.3 2 5
      vertex 188.3 2 8.1
    endloop
  endfacet
  facet normal -0 0 1
    outer loop
      vertex 180.2 12 5
      vertex 188.3 2 5
      vertex 188.3 12 5
    endloop
  endfacet
  facet normal 0 0 1
    outer loop
      vertex 188.3 2 5
      vertex 180.2 12 5
      vertex 180.2 2 5
    endloop
  endfacet
  facet normal 0 1 -0
    outer loop
      vertex 188.3 2 5
      vertex 180.2 2 8.1
      vertex 188.3 2 8.1
    endloop
  endfacet
  facet normal 0 1 0
    outer loop
      vertex 180.2 2 8.1
      vertex 188.3 2 5
      vertex 180.2 2 5
    endloop
  endfacet
  facet normal 0 1 0
    outer loop
      vertex 12 118 6.5
      vertex 0 118 1.5
      vertex -5 118 6.5
    endloop
  endfacet
  facet normal 0 1 -0
    outer loop
      vertex 12 118 0
      vertex 0 118 1.5
      vertex 12 118 6.5
    endloop
  endfacet
  facet normal 0 1 0
    outer loop
      vertex 0 118 1.5
      vertex 12 118 0
      vertex 0 118 0
    endloop
  endfacet
  facet normal 0 1 0
    outer loop
      vertex -5 118 6.5
      vertex 0 118 1.5
      vertex -5 118 1.5
    endloop
  endfacet
  facet normal 0 0 1
    outer loop
      vertex 12 118 6.5
      vertex 0 12 6.5
      vertex 12 12 6.5
    endloop
  endfacet
  facet normal -0 0 1
    outer loop
      vertex -5 118 6.5
      vertex 0 12 6.5
      vertex 12 118 6.5
    endloop
  endfacet
  facet normal 0 0 1
    outer loop
      vertex 0 12 6.5
      vertex -5 118 6.5
      vertex -5 12 6.5
    endloop
  endfacet
  facet normal 1 -0 0
    outer loop
      vertex 12 12 6.5
      vertex 12 118 0
      vertex 12 118 6.5
    endloop
  endfacet
  facet normal 1 0 0
    outer loop
      vertex 12 118 0
      vertex 12 12 6.5
      vertex 12 12 0
    endloop
  endfacet
  facet normal 0 0 -1
    outer loop
      vertex -5 12 1.5
      vertex 0 118 1.5
      vertex 0 12 1.5
    endloop
  endfacet
  facet normal -0 0 -1
    outer loop
      vertex 0 118 1.5
      vertex -5 12 1.5
      vertex -5 118 1.5
    endloop
  endfacet
  facet normal -1 0 0
    outer loop
      vertex -5 12 1.5
      vertex -5 118 6.5
      vertex -5 118 1.5
    endloop
  endfacet
  facet normal -1 -0 0
    outer loop
      vertex -5 118 6.5
      vertex -5 12 1.5
      vertex -5 12 6.5
    endloop
  endfacet
  facet normal 0 0 1
    outer loop
      vertex 220 118 6.5
      vertex 215 12 6.5
      vertex 220 12 6.5
    endloop
  endfacet
  facet normal -0 0 1
    outer loop
      vertex 203 118 6.5
      vertex 215 12 6.5
      vertex 220 118 6.5
    endloop
  endfacet
  facet normal 0 0 1
    outer loop
      vertex 215 12 6.5
      vertex 203 118 6.5
      vertex 203 12 6.5
    endloop
  endfacet
  facet normal 0 1 0
    outer loop
      vertex 215 118 1.5
      vertex 220 118 6.5
      vertex 220 118 1.5
    endloop
  endfacet
  facet normal 0 1 0
    outer loop
      vertex 220 118 6.5
      vertex 215 118 1.5
      vertex 203 118 6.5
    endloop
  endfacet
  facet normal 0 1 0
    outer loop
      vertex 203 118 0
      vertex 215 118 1.5
      vertex 215 118 0
    endloop
  endfacet
  facet normal 0 1 0
    outer loop
      vertex 215 118 1.5
      vertex 203 118 0
      vertex 203 118 6.5
    endloop
  endfacet
  facet normal -1 0 0
    outer loop
      vertex 203 12 0
      vertex 203 118 6.5
      vertex 203 118 0
    endloop
  endfacet
  facet normal -1 -0 0
    outer loop
      vertex 203 118 6.5
      vertex 203 12 0
      vertex 203 12 6.5
    endloop
  endfacet
  facet normal 0 0 -1
    outer loop
      vertex 215 12 1.5
      vertex 220 118 1.5
      vertex 220 12 1.5
    endloop
  endfacet
  facet normal -0 0 -1
    outer loop
      vertex 220 118 1.5
      vertex 215 12 1.5
      vertex 215 118 1.5
    endloop
  endfacet
  facet normal 1 -0 0
    outer loop
      vertex 220 12 6.5
      vertex 220 118 1.5
      vertex 220 118 6.5
    endloop
  endfacet
  facet normal 1 0 0
    outer loop
      vertex 220 118 1.5
      vertex 220 12 6.5
      vertex 220 12 1.5
    endloop
  endfacet
endsolid OpenSCAD_Model
