solid OpenSCAD_Model
  facet normal -1 0 0
    outer loop
      vertex 0 0 5
      vertex 0 178 6.5
      vertex 0 178 5
    endloop
  endfacet
  facet normal -1 -0 0
    outer loop
      vertex 0 178 6.5
      vertex 0 0 5
      vertex 0 0 6.5
    endloop
  endfacet
  facet normal 0 0 -1
    outer loop
      vertex 220 0 0
      vertex 203 12 0
      vertex 220 178 0
    endloop
  endfacet
  facet normal 0 0 -1
    outer loop
      vertex 220 0 0
      vertex 178 4.5 0
      vertex 203 12 0
    endloop
  endfacet
  facet normal 0 0 -1
    outer loop
      vertex 220 0 0
      vertex 38 4.5 0
      vertex 178 4.5 0
    endloop
  endfacet
  facet normal 0 0 -1
    outer loop
      vertex 38 4.5 0
      vertex 12 12 0
      vertex 38 12 0
    endloop
  endfacet
  facet normal 0 0 -1
    outer loop
      vertex -5 0 0
      vertex 38 4.5 0
      vertex 220 0 0
    endloop
  endfacet
  facet normal 0 0 -1
    outer loop
      vertex -5 0 0
      vertex 12 12 0
      vertex 38 4.5 0
    endloop
  endfacet
  facet normal 0 0 -1
    outer loop
      vertex -5 178 0
      vertex 12 12 0
      vertex -5 0 0
    endloop
  endfacet
  facet normal 0 0 -1
    outer loop
      vertex 12 12 0
      vertex -5 178 0
      vertex 12 178 0
    endloop
  endfacet
  facet normal -0 0 -1
    outer loop
      vertex 220 178 0
      vertex 203 12 0
      vertex 203 178 0
    endloop
  endfacet
  facet normal -0 0 -1
    outer loop
      vertex 203 12 0
      vertex 178 4.5 0
      vertex 178 12 0
    endloop
  endfacet
  facet normal 1 -0 0
    outer loop
      vertex 215 0 6.5
      vertex 215 178 5
      vertex 215 178 6.5
    endloop
  endfacet
  facet normal 1 0 0
    outer loop
      vertex 215 178 5
      vertex 215 0 6.5
      vertex 215 0 5
    endloop
  endfacet
  facet normal 0 -1 0
    outer loop
      vertex -5 0 0
      vertex 0 0 5
      vertex -5 0 5
    endloop
  endfacet
  facet normal 0 -1 -0
    outer loop
      vertex 0 0 5
      vertex -5 0 0
      vertex 215 0 5
    endloop
  endfacet
  facet normal 0 -1 0
    outer loop
      vertex 220 0 0
      vertex 215 0 5
      vertex -5 0 0
    endloop
  endfacet
  facet normal 0 -1 0
    outer loop
      vertex 215 0 5
      vertex 220 0 0
      vertex 220 0 5
    endloop
  endfacet
  facet normal 0 -1 0
    outer loop
      vertex 0 0 5
      vertex 215 0 6.5
      vertex 0 0 6.5
    endloop
  endfacet
  facet normal 0 -1 -0
    outer loop
      vertex 215 0 6.5
      vertex 0 0 5
      vertex 215 0 5
    endloop
  endfacet
  facet normal 0 0 1
    outer loop
      vertex 12 178 6.5
      vertex 0 178 6.5
      vertex 12 12 6.5
    endloop
  endfacet
  facet normal 0 0 1
    outer loop
      vertex 38 12 6.5
      vertex 12 12 6.5
      vertex 38 4.5 6.5
    endloop
  endfacet
  facet normal 0 0 1
    outer loop
      vertex 203 12 6.5
      vertex 215 178 6.5
      vertex 203 178 6.5
    endloop
  endfacet
  facet normal 0 0 1
    outer loop
      vertex 215 178 6.5
      vertex 203 12 6.5
      vertex 215 0 6.5
    endloop
  endfacet
  facet normal 0 0 1
    outer loop
      vertex 178 4.5 6.5
      vertex 203 12 6.5
      vertex 178 12 6.5
    endloop
  endfacet
  facet normal 0 0 1
    outer loop
      vertex 203 12 6.5
      vertex 178 4.5 6.5
      vertex 215 0 6.5
    endloop
  endfacet
  facet normal -0 0 1
    outer loop
      vertex 38 4.5 6.5
      vertex 215 0 6.5
      vertex 178 4.5 6.5
    endloop
  endfacet
  facet normal 0 0 1
    outer loop
      vertex 38 4.5 6.5
      vertex 0 0 6.5
      vertex 215 0 6.5
    endloop
  endfacet
  facet normal 0 0 1
    outer loop
      vertex 12 12 6.5
      vertex 0 0 6.5
      vertex 38 4.5 6.5
    endloop
  endfacet
  facet normal 0 0 1
    outer loop
      vertex 0 0 6.5
      vertex 12 12 6.5
      vertex 0 178 6.5
    endloop
  endfacet
  facet normal 0 1 -0
    outer loop
      vertex 203 12 0
      vertex 178 12 6.5
      vertex 203 12 6.5
    endloop
  endfacet
  facet normal 0 1 0
    outer loop
      vertex 178 12 6.5
      vertex 203 12 0
      vertex 178 12 0
    endloop
  endfacet
  facet normal 0 1 -0
    outer loop
      vertex 38 12 0
      vertex 12 12 6.5
      vertex 38 12 6.5
    endloop
  endfacet
  facet normal 0 1 0
    outer loop
      vertex 12 12 6.5
      vertex 38 12 0
      vertex 12 12 0
    endloop
  endfacet
  facet normal -1 0 0
    outer loop
      vertex -5 0 0
      vertex -5 178 5
      vertex -5 178 0
    endloop
  endfacet
  facet normal -1 -0 0
    outer loop
      vertex -5 178 5
      vertex -5 0 0
      vertex -5 0 5
    endloop
  endfacet
  facet normal -0 0 1
    outer loop
      vertex -5 178 5
      vertex 0 0 5
      vertex 0 178 5
    endloop
  endfacet
  facet normal 0 0 1
    outer loop
      vertex 0 0 5
      vertex -5 178 5
      vertex -5 0 5
    endloop
  endfacet
  facet normal 1 -0 0
    outer loop
      vertex 220 0 5
      vertex 220 178 0
      vertex 220 178 5
    endloop
  endfacet
  facet normal 1 0 0
    outer loop
      vertex 220 178 0
      vertex 220 0 5
      vertex 220 0 0
    endloop
  endfacet
  facet normal -0 0 1
    outer loop
      vertex 215 178 5
      vertex 220 0 5
      vertex 220 178 5
    endloop
  endfacet
  facet normal 0 0 1
    outer loop
      vertex 220 0 5
      vertex 215 178 5
      vertex 215 0 5
    endloop
  endfacet
  facet normal 0 1 0
    outer loop
      vertex 12 178 6.5
      vertex 0 178 5
      vertex 0 178 6.5
    endloop
  endfacet
  facet normal 0 1 -0
    outer loop
      vertex 12 178 0
      vertex 0 178 5
      vertex 12 178 6.5
    endloop
  endfacet
  facet normal 0 1 0
    outer loop
      vertex -5 178 0
      vertex 0 178 5
      vertex 12 178 0
    endloop
  endfacet
  facet normal 0 1 0
    outer loop
      vertex 0 178 5
      vertex -5 178 0
      vertex -5 178 5
    endloop
  endfacet
  facet normal 1 -0 0
    outer loop
      vertex 12 12 6.5
      vertex 12 178 0
      vertex 12 178 6.5
    endloop
  endfacet
  facet normal 1 0 0
    outer loop
      vertex 12 178 0
      vertex 12 12 6.5
      vertex 12 12 0
    endloop
  endfacet
  facet normal 0 1 0
    outer loop
      vertex 220 178 5
      vertex 220 178 0
      vertex 215 178 5
    endloop
  endfacet
  facet normal 0 1 -0
    outer loop
      vertex 215 178 5
      vertex 203 178 6.5
      vertex 215 178 6.5
    endloop
  endfacet
  facet normal 0 1 0
    outer loop
      vertex 203 178 0
      vertex 215 178 5
      vertex 220 178 0
    endloop
  endfacet
  facet normal 0 1 0
    outer loop
      vertex 215 178 5
      vertex 203 178 0
      vertex 203 178 6.5
    endloop
  endfacet
  facet normal -1 0 0
    outer loop
      vertex 203 12 0
      vertex 203 178 6.5
      vertex 203 178 0
    endloop
  endfacet
  facet normal -1 -0 0
    outer loop
      vertex 203 178 6.5
      vertex 203 12 0
      vertex 203 12 6.5
    endloop
  endfacet
  facet normal 1 -0 0
    outer loop
      vertex 38 4.5 6.5
      vertex 38 12 0
      vertex 38 12 6.5
    endloop
  endfacet
  facet normal 1 0 0
    outer loop
      vertex 38 12 0
      vertex 38 4.5 6.5
      vertex 38 4.5 0
    endloop
  endfacet
  facet normal -1 0 0
    outer loop
      vertex 178 4.5 0
      vertex 178 12 6.5
      vertex 178 12 0
    endloop
  endfacet
  facet normal -1 -0 0
    outer loop
      vertex 178 12 6.5
      vertex 178 4.5 0
      vertex 178 4.5 6.5
    endloop
  endfacet
  facet normal 0 1 -0
    outer loop
      vertex 178 4.5 0
      vertex 38 4.5 6.5
      vertex 178 4.5 6.5
    endloop
  endfacet
  facet normal 0 1 0
    outer loop
      vertex 38 4.5 6.5
      vertex 178 4.5 0
      vertex 38 4.5 0
    endloop
  endfacet
endsolid OpenSCAD_Model
