solid OpenSCAD_Model
  facet normal -1 0 0
    outer loop
      vertex 0 215 -1.5
      vertex 0 203 0
      vertex 0 215 0
    endloop
  endfacet
  facet normal -1 0 0
    outer loop
      vertex 0 215 -1.5
      vertex 0 17 0
      vertex 0 203 0
    endloop
  endfacet
  facet normal -1 0 0
    outer loop
      vertex 0 5 -1.5
      vertex 0 17 0
      vertex 0 215 -1.5
    endloop
  endfacet
  facet normal -1 0 0
    outer loop
      vertex 0 5 0
      vertex 0 17 0
      vertex 0 5 -1.5
    endloop
  endfacet
  facet normal -1 0 0
    outer loop
      vertex 0 17 0
      vertex 0 5 0
      vertex 0 17 5
    endloop
  endfacet
  facet normal -1 0 0
    outer loop
      vertex 0 0 5
      vertex 0 5 0
      vertex 0 0 0
    endloop
  endfacet
  facet normal -1 0 0
    outer loop
      vertex 0 5 0
      vertex 0 0 5
      vertex 0 17 5
    endloop
  endfacet
  facet normal -1 0 0
    outer loop
      vertex 0 215 0
      vertex 0 220 5
      vertex 0 220 0
    endloop
  endfacet
  facet normal -1 0 0
    outer loop
      vertex 0 203 5
      vertex 0 215 0
      vertex 0 203 0
    endloop
  endfacet
  facet normal -1 0 0
    outer loop
      vertex 0 215 0
      vertex 0 203 5
      vertex 0 220 5
    endloop
  endfacet
  facet normal 0 0 1
    outer loop
      vertex -5 17 5
      vertex 6 23 5
      vertex -5 203 5
    endloop
  endfacet
  facet normal 0 0 1
    outer loop
      vertex 6 23 5
      vertex -5 17 5
      vertex 0 17 5
    endloop
  endfacet
  facet normal 0 0 1
    outer loop
      vertex 12 23 5
      vertex 6 23 5
      vertex 12 17 5
    endloop
  endfacet
  facet normal -0 0 1
    outer loop
      vertex 124 209 5
      vertex 130 203 5
      vertex 130 220 5
    endloop
  endfacet
  facet normal 0 0 1
    outer loop
      vertex 130 203 5
      vertex 124 203 5
      vertex 130 17 5
    endloop
  endfacet
  facet normal 0 0 1
    outer loop
      vertex 130 203 5
      vertex 124 209 5
      vertex 124 203 5
    endloop
  endfacet
  facet normal 0 0 1
    outer loop
      vertex 130 220 5
      vertex 6 209 5
      vertex 124 209 5
    endloop
  endfacet
  facet normal 0 0 1
    outer loop
      vertex 0 203 5
      vertex 6 203 5
      vertex 6 209 5
    endloop
  endfacet
  facet normal 0 0 1
    outer loop
      vertex 6 203 5
      vertex 0 203 5
      vertex 6 197 5
    endloop
  endfacet
  facet normal 0 0 1
    outer loop
      vertex 0 203 5
      vertex 6 209 5
      vertex 0 220 5
    endloop
  endfacet
  facet normal -0 0 1
    outer loop
      vertex 0 220 5
      vertex 6 209 5
      vertex 130 220 5
    endloop
  endfacet
  facet normal -0 0 1
    outer loop
      vertex 130 203 5
      vertex 135 17 5
      vertex 135 203 5
    endloop
  endfacet
  facet normal 0 0 1
    outer loop
      vertex 135 17 5
      vertex 130 203 5
      vertex 130 17 5
    endloop
  endfacet
  facet normal 0 0 1
    outer loop
      vertex 118 17 5
      vertex 130 17 5
      vertex 124 203 5
    endloop
  endfacet
  facet normal 0 0 1
    outer loop
      vertex 118 17 5
      vertex 124 203 5
      vertex 118 203 5
    endloop
  endfacet
  facet normal 0 0 1
    outer loop
      vertex 130 17 5
      vertex 118 17 5
      vertex 130 0 5
    endloop
  endfacet
  facet normal -0 0 1
    outer loop
      vertex 12 17 5
      vertex 130 0 5
      vertex 118 17 5
    endloop
  endfacet
  facet normal -0 0 1
    outer loop
      vertex -5 203 5
      vertex 6 197 5
      vertex 0 203 5
    endloop
  endfacet
  facet normal 0 0 1
    outer loop
      vertex 6 197 5
      vertex -5 203 5
      vertex 6 23 5
    endloop
  endfacet
  facet normal 0 0 1
    outer loop
      vertex 0 17 5
      vertex 12 17 5
      vertex 6 23 5
    endloop
  endfacet
  facet normal 0 0 1
    outer loop
      vertex 0 0 5
      vertex 12 17 5
      vertex 0 17 5
    endloop
  endfacet
  facet normal 0 0 1
    outer loop
      vertex 12 17 5
      vertex 0 0 5
      vertex 130 0 5
    endloop
  endfacet
  facet normal -0 0 1
    outer loop
      vertex 6 203 5
      vertex 12 197 5
      vertex 12 203 5
    endloop
  endfacet
  facet normal 0 0 1
    outer loop
      vertex 12 197 5
      vertex 6 203 5
      vertex 6 197 5
    endloop
  endfacet
  facet normal 1 0 0
    outer loop
      vertex 130 17 5
      vertex 130 5 0
      vertex 130 17 0
    endloop
  endfacet
  facet normal 1 -0 0
    outer loop
      vertex 130 0 5
      vertex 130 5 0
      vertex 130 17 5
    endloop
  endfacet
  facet normal 1 0 0
    outer loop
      vertex 130 5 0
      vertex 130 0 5
      vertex 130 0 0
    endloop
  endfacet
  facet normal 1 0 0
    outer loop
      vertex 130 220 5
      vertex 130 215 0
      vertex 130 220 0
    endloop
  endfacet
  facet normal 1 -0 0
    outer loop
      vertex 130 203 5
      vertex 130 215 0
      vertex 130 220 5
    endloop
  endfacet
  facet normal 1 0 0
    outer loop
      vertex 130 203 0
      vertex 130 215 0
      vertex 130 203 5
    endloop
  endfacet
  facet normal 1 0 0
    outer loop
      vertex 130 215 0
      vertex 130 203 0
      vertex 130 215 -1.5
    endloop
  endfacet
  facet normal 1 -0 0
    outer loop
      vertex 130 17 0
      vertex 130 215 -1.5
      vertex 130 203 0
    endloop
  endfacet
  facet normal 1 0 0
    outer loop
      vertex 130 5 -1.5
      vertex 130 17 0
      vertex 130 5 0
    endloop
  endfacet
  facet normal 1 0 0
    outer loop
      vertex 130 17 0
      vertex 130 5 -1.5
      vertex 130 215 -1.5
    endloop
  endfacet
  facet normal 0 0 -1
    outer loop
      vertex 0 0 0
      vertex 130 5 0
      vertex 130 0 0
    endloop
  endfacet
  facet normal -0 0 -1
    outer loop
      vertex 130 5 0
      vertex 0 0 0
      vertex 0 5 0
    endloop
  endfacet
  facet normal 0 -1 0
    outer loop
      vertex 0 0 0
      vertex 130 0 5
      vertex 0 0 5
    endloop
  endfacet
  facet normal 0 -1 -0
    outer loop
      vertex 130 0 5
      vertex 0 0 0
      vertex 130 0 0
    endloop
  endfacet
  facet normal 0 1 -0
    outer loop
      vertex 118 17 -1.5
      vertex 12 17 5
      vertex 118 17 5
    endloop
  endfacet
  facet normal 0 1 0
    outer loop
      vertex 12 17 5
      vertex 118 17 -1.5
      vertex 12 17 -1.5
    endloop
  endfacet
  facet normal 0 -1 0
    outer loop
      vertex -5 17 0
      vertex 0 17 5
      vertex -5 17 5
    endloop
  endfacet
  facet normal 0 -1 -0
    outer loop
      vertex 0 17 5
      vertex -5 17 0
      vertex 0 17 0
    endloop
  endfacet
  facet normal 0 -1 0
    outer loop
      vertex 130 17 0
      vertex 135 17 5
      vertex 130 17 5
    endloop
  endfacet
  facet normal 0 -1 -0
    outer loop
      vertex 135 17 5
      vertex 130 17 0
      vertex 135 17 0
    endloop
  endfacet
  facet normal 0 0 -1
    outer loop
      vertex 130 5 -1.5
      vertex 118 17 -1.5
      vertex 130 215 -1.5
    endloop
  endfacet
  facet normal 0 0 -1
    outer loop
      vertex 130 5 -1.5
      vertex 12 17 -1.5
      vertex 118 17 -1.5
    endloop
  endfacet
  facet normal -0 0 -1
    outer loop
      vertex 12 17 -1.5
      vertex 0 5 -1.5
      vertex 12 203 -1.5
    endloop
  endfacet
  facet normal 0 0 -1
    outer loop
      vertex 0 5 -1.5
      vertex 12 17 -1.5
      vertex 130 5 -1.5
    endloop
  endfacet
  facet normal 0 0 -1
    outer loop
      vertex 118 203 -1.5
      vertex 130 215 -1.5
      vertex 118 17 -1.5
    endloop
  endfacet
  facet normal 0 0 -1
    outer loop
      vertex 12 203 -1.5
      vertex 130 215 -1.5
      vertex 118 203 -1.5
    endloop
  endfacet
  facet normal 0 0 -1
    outer loop
      vertex 12 203 -1.5
      vertex 0 215 -1.5
      vertex 130 215 -1.5
    endloop
  endfacet
  facet normal 0 0 -1
    outer loop
      vertex 0 215 -1.5
      vertex 12 203 -1.5
      vertex 0 5 -1.5
    endloop
  endfacet
  facet normal 0 -1 0
    outer loop
      vertex 0 5 -1.5
      vertex 130 5 0
      vertex 0 5 0
    endloop
  endfacet
  facet normal 0 -1 -0
    outer loop
      vertex 130 5 0
      vertex 0 5 -1.5
      vertex 130 5 -1.5
    endloop
  endfacet
  facet normal 0 -1 0
    outer loop
      vertex 12 203 -1.5
      vertex 118 203 5
      vertex 12 203 5
    endloop
  endfacet
  facet normal 0 -1 -0
    outer loop
      vertex 118 203 5
      vertex 12 203 -1.5
      vertex 118 203 -1.5
    endloop
  endfacet
  facet normal 0 -1 0
    outer loop
      vertex 12 203 5
      vertex 6 203 12.5
      vertex 6 203 5
    endloop
  endfacet
  facet normal 0 -1 0
    outer loop
      vertex 6 203 12.5
      vertex 12 203 5
      vertex 124 203 12.5
    endloop
  endfacet
  facet normal 0 -1 0
    outer loop
      vertex 118 203 5
      vertex 124 203 12.5
      vertex 12 203 5
    endloop
  endfacet
  facet normal 0 -1 -0
    outer loop
      vertex 124 203 12.5
      vertex 118 203 5
      vertex 124 203 5
    endloop
  endfacet
  facet normal 0 1 -0
    outer loop
      vertex 0 203 0
      vertex -5 203 5
      vertex 0 203 5
    endloop
  endfacet
  facet normal 0 1 0
    outer loop
      vertex -5 203 5
      vertex 0 203 0
      vertex -5 203 0
    endloop
  endfacet
  facet normal 0 1 -0
    outer loop
      vertex 135 203 0
      vertex 130 203 5
      vertex 135 203 5
    endloop
  endfacet
  facet normal 0 1 0
    outer loop
      vertex 130 203 5
      vertex 135 203 0
      vertex 130 203 0
    endloop
  endfacet
  facet normal 0 0 -1
    outer loop
      vertex 130 17 0
      vertex 135 203 0
      vertex 135 17 0
    endloop
  endfacet
  facet normal -0 0 -1
    outer loop
      vertex 135 203 0
      vertex 130 17 0
      vertex 130 203 0
    endloop
  endfacet
  facet normal 1 -0 0
    outer loop
      vertex 135 17 5
      vertex 135 203 0
      vertex 135 203 5
    endloop
  endfacet
  facet normal 1 0 0
    outer loop
      vertex 135 203 0
      vertex 135 17 5
      vertex 135 17 0
    endloop
  endfacet
  facet normal -1 0 0
    outer loop
      vertex 118 17 -1.5
      vertex 118 203 5
      vertex 118 203 -1.5
    endloop
  endfacet
  facet normal -1 -0 0
    outer loop
      vertex 118 203 5
      vertex 118 17 -1.5
      vertex 118 17 5
    endloop
  endfacet
  facet normal 1 0 0
    outer loop
      vertex 12 197 12.5
      vertex 12 23 12.5
      vertex 12 197 5
    endloop
  endfacet
  facet normal 1 -0 0
    outer loop
      vertex 12 197 5
      vertex 12 203 -1.5
      vertex 12 203 5
    endloop
  endfacet
  facet normal 1 0 0
    outer loop
      vertex 12 23 5
      vertex 12 197 5
      vertex 12 23 12.5
    endloop
  endfacet
  facet normal 1 0 0
    outer loop
      vertex 12 197 5
      vertex 12 23 5
      vertex 12 203 -1.5
    endloop
  endfacet
  facet normal 1 0 0
    outer loop
      vertex 12 17 -1.5
      vertex 12 23 5
      vertex 12 17 5
    endloop
  endfacet
  facet normal 1 0 0
    outer loop
      vertex 12 23 5
      vertex 12 17 -1.5
      vertex 12 203 -1.5
    endloop
  endfacet
  facet normal 0 0 -1
    outer loop
      vertex -5 17 0
      vertex 0 203 0
      vertex 0 17 0
    endloop
  endfacet
  facet normal -0 0 -1
    outer loop
      vertex 0 203 0
      vertex -5 17 0
      vertex -5 203 0
    endloop
  endfacet
  facet normal -1 0 0
    outer loop
      vertex -5 17 0
      vertex -5 203 5
      vertex -5 203 0
    endloop
  endfacet
  facet normal -1 -0 0
    outer loop
      vertex -5 203 5
      vertex -5 17 0
      vertex -5 17 5
    endloop
  endfacet
  facet normal 0 1 -0
    outer loop
      vertex 12 197 5
      vertex 6 197 12.5
      vertex 12 197 12.5
    endloop
  endfacet
  facet normal 0 1 0
    outer loop
      vertex 6 197 12.5
      vertex 12 197 5
      vertex 6 197 5
    endloop
  endfacet
  facet normal -0 0 1
    outer loop
      vertex 6 197 12.5
      vertex 12 23 12.5
      vertex 12 197 12.5
    endloop
  endfacet
  facet normal 0 0 1
    outer loop
      vertex 12 23 12.5
      vertex 6 197 12.5
      vertex 6 23 12.5
    endloop
  endfacet
  facet normal 0 -1 0
    outer loop
      vertex 6 23 5
      vertex 12 23 12.5
      vertex 6 23 12.5
    endloop
  endfacet
  facet normal 0 -1 -0
    outer loop
      vertex 12 23 12.5
      vertex 6 23 5
      vertex 12 23 5
    endloop
  endfacet
  facet normal -1 0 0
    outer loop
      vertex 6 23 5
      vertex 6 197 12.5
      vertex 6 197 5
    endloop
  endfacet
  facet normal -1 -0 0
    outer loop
      vertex 6 197 12.5
      vertex 6 23 5
      vertex 6 23 12.5
    endloop
  endfacet
  facet normal 0 0 -1
    outer loop
      vertex 0 215 0
      vertex 130 220 0
      vertex 130 215 0
    endloop
  endfacet
  facet normal -0 0 -1
    outer loop
      vertex 130 220 0
      vertex 0 215 0
      vertex 0 220 0
    endloop
  endfacet
  facet normal 0 1 -0
    outer loop
      vertex 130 220 0
      vertex 0 220 5
      vertex 130 220 5
    endloop
  endfacet
  facet normal 0 1 0
    outer loop
      vertex 0 220 5
      vertex 130 220 0
      vertex 0 220 0
    endloop
  endfacet
  facet normal 0 1 -0
    outer loop
      vertex 130 215 -1.5
      vertex 0 215 0
      vertex 130 215 0
    endloop
  endfacet
  facet normal 0 1 0
    outer loop
      vertex 0 215 0
      vertex 130 215 -1.5
      vertex 0 215 -1.5
    endloop
  endfacet
  facet normal 1 -0 0
    outer loop
      vertex 124 203 12.5
      vertex 124 209 5
      vertex 124 209 12.5
    endloop
  endfacet
  facet normal 1 0 0
    outer loop
      vertex 124 209 5
      vertex 124 203 12.5
      vertex 124 203 5
    endloop
  endfacet
  facet normal -0 0 1
    outer loop
      vertex 6 209 12.5
      vertex 124 203 12.5
      vertex 124 209 12.5
    endloop
  endfacet
  facet normal 0 0 1
    outer loop
      vertex 124 203 12.5
      vertex 6 209 12.5
      vertex 6 203 12.5
    endloop
  endfacet
  facet normal -1 0 0
    outer loop
      vertex 6 203 5
      vertex 6 209 12.5
      vertex 6 209 5
    endloop
  endfacet
  facet normal -1 -0 0
    outer loop
      vertex 6 209 12.5
      vertex 6 203 5
      vertex 6 203 12.5
    endloop
  endfacet
  facet normal 0 1 -0
    outer loop
      vertex 124 209 5
      vertex 6 209 12.5
      vertex 124 209 12.5
    endloop
  endfacet
  facet normal 0 1 0
    outer loop
      vertex 6 209 12.5
      vertex 124 209 5
      vertex 6 209 5
    endloop
  endfacet
endsolid OpenSCAD_Model
