solid OpenSCAD_Model
  facet normal 0 1 -0
    outer loop
      vertex 0 203 0
      vertex -5 203 5
      vertex 0 203 5
    endloop
  endfacet
  facet normal 0 1 0
    outer loop
      vertex -5 203 5
      vertex 0 203 0
      vertex -5 203 0
    endloop
  endfacet
  facet normal 0 -1 0
    outer loop
      vertex 12 203 -1.5
      vertex 108 203 5
      vertex 12 203 5
    endloop
  endfacet
  facet normal 0 -1 -0
    outer loop
      vertex 108 203 5
      vertex 12 203 -1.5
      vertex 108 203 -1.5
    endloop
  endfacet
  facet normal 0 1 -0
    outer loop
      vertex 125 203 0
      vertex 120 203 5
      vertex 125 203 5
    endloop
  endfacet
  facet normal 0 1 0
    outer loop
      vertex 120 203 5
      vertex 125 203 0
      vertex 120 203 0
    endloop
  endfacet
  facet normal 0 0 1
    outer loop
      vertex 12 37 5
      vertex 0 17 5
      vertex 12 17 5
    endloop
  endfacet
  facet normal -0 0 1
    outer loop
      vertex -5 37 5
      vertex 0 17 5
      vertex 12 37 5
    endloop
  endfacet
  facet normal 0 0 1
    outer loop
      vertex 0 17 5
      vertex -5 37 5
      vertex -5 17 5
    endloop
  endfacet
  facet normal 0 0 1
    outer loop
      vertex 108 203 5
      vertex 120 203 5
      vertex 120 220 5
    endloop
  endfacet
  facet normal 0 0 1
    outer loop
      vertex 120 203 5
      vertex 108 203 5
      vertex 120 17 5
    endloop
  endfacet
  facet normal 0 0 1
    outer loop
      vertex 108 17 5
      vertex 120 17 5
      vertex 108 203 5
    endloop
  endfacet
  facet normal 0 0 1
    outer loop
      vertex 120 220 5
      vertex 12 203 5
      vertex 108 203 5
    endloop
  endfacet
  facet normal -0 0 1
    outer loop
      vertex 0 220 5
      vertex 12 203 5
      vertex 120 220 5
    endloop
  endfacet
  facet normal 0 0 1
    outer loop
      vertex 0 203 5
      vertex 12 203 5
      vertex 0 220 5
    endloop
  endfacet
  facet normal 0 0 1
    outer loop
      vertex 12 203 5
      vertex 0 203 5
      vertex 12 183 5
    endloop
  endfacet
  facet normal 0 0 1
    outer loop
      vertex -5 183 5
      vertex 0 203 5
      vertex -5 203 5
    endloop
  endfacet
  facet normal 0 0 1
    outer loop
      vertex 0 203 5
      vertex -5 183 5
      vertex 12 183 5
    endloop
  endfacet
  facet normal -0 0 1
    outer loop
      vertex 120 203 5
      vertex 125 17 5
      vertex 125 203 5
    endloop
  endfacet
  facet normal 0 0 1
    outer loop
      vertex 125 17 5
      vertex 120 203 5
      vertex 120 17 5
    endloop
  endfacet
  facet normal 0 0 1
    outer loop
      vertex 120 17 5
      vertex 108 17 5
      vertex 120 0 5
    endloop
  endfacet
  facet normal -0 0 1
    outer loop
      vertex 12 17 5
      vertex 120 0 5
      vertex 108 17 5
    endloop
  endfacet
  facet normal 0 0 1
    outer loop
      vertex 0 0 5
      vertex 12 17 5
      vertex 0 17 5
    endloop
  endfacet
  facet normal 0 0 1
    outer loop
      vertex 12 17 5
      vertex 0 0 5
      vertex 120 0 5
    endloop
  endfacet
  facet normal 0 1 -0
    outer loop
      vertex 108 17 -1.5
      vertex 12 17 5
      vertex 108 17 5
    endloop
  endfacet
  facet normal 0 1 0
    outer loop
      vertex 12 17 5
      vertex 108 17 -1.5
      vertex 12 17 -1.5
    endloop
  endfacet
  facet normal 0 -1 0
    outer loop
      vertex -5 17 0
      vertex 0 17 5
      vertex -5 17 5
    endloop
  endfacet
  facet normal 0 -1 -0
    outer loop
      vertex 0 17 5
      vertex -5 17 0
      vertex 0 17 0
    endloop
  endfacet
  facet normal 0 -1 0
    outer loop
      vertex 120 17 0
      vertex 125 17 5
      vertex 120 17 5
    endloop
  endfacet
  facet normal 0 -1 -0
    outer loop
      vertex 125 17 5
      vertex 120 17 0
      vertex 125 17 0
    endloop
  endfacet
  facet normal 0 0 -1
    outer loop
      vertex -5 183 0
      vertex 0 203 0
      vertex 0 183 0
    endloop
  endfacet
  facet normal -0 0 -1
    outer loop
      vertex 0 203 0
      vertex -5 183 0
      vertex -5 203 0
    endloop
  endfacet
  facet normal 0 0 -1
    outer loop
      vertex -5 17 0
      vertex 0 37 0
      vertex 0 17 0
    endloop
  endfacet
  facet normal -0 0 -1
    outer loop
      vertex 0 37 0
      vertex -5 17 0
      vertex -5 37 0
    endloop
  endfacet
  facet normal -1 0 0
    outer loop
      vertex -5 17 0
      vertex -5 37 5
      vertex -5 37 0
    endloop
  endfacet
  facet normal -1 -0 0
    outer loop
      vertex -5 37 5
      vertex -5 17 0
      vertex -5 17 5
    endloop
  endfacet
  facet normal -1 0 0
    outer loop
      vertex -5 183 0
      vertex -5 203 5
      vertex -5 203 0
    endloop
  endfacet
  facet normal -1 -0 0
    outer loop
      vertex -5 203 5
      vertex -5 183 0
      vertex -5 183 5
    endloop
  endfacet
  facet normal 1 -0 0
    outer loop
      vertex 12 17 5
      vertex 12 37 -1.5
      vertex 12 37 5
    endloop
  endfacet
  facet normal 1 0 0
    outer loop
      vertex 12 37 -1.5
      vertex 12 17 5
      vertex 12 17 -1.5
    endloop
  endfacet
  facet normal 1 -0 0
    outer loop
      vertex 12 183 5
      vertex 12 203 -1.5
      vertex 12 203 5
    endloop
  endfacet
  facet normal 1 0 0
    outer loop
      vertex 12 203 -1.5
      vertex 12 183 5
      vertex 12 183 -1.5
    endloop
  endfacet
  facet normal 0 0 -1
    outer loop
      vertex 12 183 -1.5
      vertex 0 183 -1.5
      vertex 12 203 -1.5
    endloop
  endfacet
  facet normal 0 0 -1
    outer loop
      vertex 120 5 -1.5
      vertex 108 17 -1.5
      vertex 120 215 -1.5
    endloop
  endfacet
  facet normal 0 0 -1
    outer loop
      vertex 120 5 -1.5
      vertex 12 17 -1.5
      vertex 108 17 -1.5
    endloop
  endfacet
  facet normal 0 0 -1
    outer loop
      vertex 0 5 -1.5
      vertex 12 17 -1.5
      vertex 120 5 -1.5
    endloop
  endfacet
  facet normal 0 0 -1
    outer loop
      vertex 0 37 -1.5
      vertex 12 17 -1.5
      vertex 0 5 -1.5
    endloop
  endfacet
  facet normal 0 0 -1
    outer loop
      vertex 12 17 -1.5
      vertex 0 37 -1.5
      vertex 12 37 -1.5
    endloop
  endfacet
  facet normal 0 0 -1
    outer loop
      vertex 108 203 -1.5
      vertex 120 215 -1.5
      vertex 108 17 -1.5
    endloop
  endfacet
  facet normal 0 0 -1
    outer loop
      vertex 12 203 -1.5
      vertex 120 215 -1.5
      vertex 108 203 -1.5
    endloop
  endfacet
  facet normal 0 0 -1
    outer loop
      vertex 12 203 -1.5
      vertex 0 215 -1.5
      vertex 120 215 -1.5
    endloop
  endfacet
  facet normal 0 0 -1
    outer loop
      vertex 0 215 -1.5
      vertex 12 203 -1.5
      vertex 0 183 -1.5
    endloop
  endfacet
  facet normal -1 0 0
    outer loop
      vertex 0 215 -1.5
      vertex 0 203 0
      vertex 0 215 0
    endloop
  endfacet
  facet normal -1 0 0
    outer loop
      vertex 0 183 -1.5
      vertex 0 203 0
      vertex 0 215 -1.5
    endloop
  endfacet
  facet normal -1 -0 0
    outer loop
      vertex 0 203 0
      vertex 0 183 -1.5
      vertex 0 183 0
    endloop
  endfacet
  facet normal -1 0 0
    outer loop
      vertex 0 215 0
      vertex 0 220 5
      vertex 0 220 0
    endloop
  endfacet
  facet normal -1 0 0
    outer loop
      vertex 0 203 5
      vertex 0 215 0
      vertex 0 203 0
    endloop
  endfacet
  facet normal -1 0 0
    outer loop
      vertex 0 215 0
      vertex 0 203 5
      vertex 0 220 5
    endloop
  endfacet
  facet normal -1 0 0
    outer loop
      vertex 0 37 -1.5
      vertex 0 17 0
      vertex 0 37 0
    endloop
  endfacet
  facet normal -1 0 0
    outer loop
      vertex 0 5 -1.5
      vertex 0 17 0
      vertex 0 37 -1.5
    endloop
  endfacet
  facet normal -1 0 0
    outer loop
      vertex 0 5 0
      vertex 0 17 0
      vertex 0 5 -1.5
    endloop
  endfacet
  facet normal -1 0 0
    outer loop
      vertex 0 17 0
      vertex 0 5 0
      vertex 0 17 5
    endloop
  endfacet
  facet normal -1 0 0
    outer loop
      vertex 0 0 5
      vertex 0 5 0
      vertex 0 0 0
    endloop
  endfacet
  facet normal -1 0 0
    outer loop
      vertex 0 5 0
      vertex 0 0 5
      vertex 0 17 5
    endloop
  endfacet
  facet normal 1 0 0
    outer loop
      vertex 120 17 5
      vertex 120 5 0
      vertex 120 17 0
    endloop
  endfacet
  facet normal 1 -0 0
    outer loop
      vertex 120 0 5
      vertex 120 5 0
      vertex 120 17 5
    endloop
  endfacet
  facet normal 1 0 0
    outer loop
      vertex 120 5 0
      vertex 120 0 5
      vertex 120 0 0
    endloop
  endfacet
  facet normal 1 0 0
    outer loop
      vertex 120 220 5
      vertex 120 215 0
      vertex 120 220 0
    endloop
  endfacet
  facet normal 1 -0 0
    outer loop
      vertex 120 203 5
      vertex 120 215 0
      vertex 120 220 5
    endloop
  endfacet
  facet normal 1 0 0
    outer loop
      vertex 120 203 0
      vertex 120 215 0
      vertex 120 203 5
    endloop
  endfacet
  facet normal 1 0 0
    outer loop
      vertex 120 215 0
      vertex 120 203 0
      vertex 120 215 -1.5
    endloop
  endfacet
  facet normal 1 -0 0
    outer loop
      vertex 120 17 0
      vertex 120 215 -1.5
      vertex 120 203 0
    endloop
  endfacet
  facet normal 1 0 0
    outer loop
      vertex 120 5 -1.5
      vertex 120 17 0
      vertex 120 5 0
    endloop
  endfacet
  facet normal 1 0 0
    outer loop
      vertex 120 17 0
      vertex 120 5 -1.5
      vertex 120 215 -1.5
    endloop
  endfacet
  facet normal 0 0 -1
    outer loop
      vertex 0 0 0
      vertex 120 5 0
      vertex 120 0 0
    endloop
  endfacet
  facet normal -0 0 -1
    outer loop
      vertex 120 5 0
      vertex 0 0 0
      vertex 0 5 0
    endloop
  endfacet
  facet normal 0 -1 0
    outer loop
      vertex 0 0 0
      vertex 120 0 5
      vertex 0 0 5
    endloop
  endfacet
  facet normal 0 -1 -0
    outer loop
      vertex 120 0 5
      vertex 0 0 0
      vertex 120 0 0
    endloop
  endfacet
  facet normal 0 -1 0
    outer loop
      vertex 0 5 -1.5
      vertex 120 5 0
      vertex 0 5 0
    endloop
  endfacet
  facet normal 0 -1 -0
    outer loop
      vertex 120 5 0
      vertex 0 5 -1.5
      vertex 120 5 -1.5
    endloop
  endfacet
  facet normal 0 0 -1
    outer loop
      vertex 120 17 0
      vertex 125 203 0
      vertex 125 17 0
    endloop
  endfacet
  facet normal -0 0 -1
    outer loop
      vertex 125 203 0
      vertex 120 17 0
      vertex 120 203 0
    endloop
  endfacet
  facet normal 1 -0 0
    outer loop
      vertex 125 17 5
      vertex 125 203 0
      vertex 125 203 5
    endloop
  endfacet
  facet normal 1 0 0
    outer loop
      vertex 125 203 0
      vertex 125 17 5
      vertex 125 17 0
    endloop
  endfacet
  facet normal -1 0 0
    outer loop
      vertex 108 17 -1.5
      vertex 108 203 5
      vertex 108 203 -1.5
    endloop
  endfacet
  facet normal -1 -0 0
    outer loop
      vertex 108 203 5
      vertex 108 17 -1.5
      vertex 108 17 5
    endloop
  endfacet
  facet normal 0 0 -1
    outer loop
      vertex 0 215 0
      vertex 120 220 0
      vertex 120 215 0
    endloop
  endfacet
  facet normal -0 0 -1
    outer loop
      vertex 120 220 0
      vertex 0 215 0
      vertex 0 220 0
    endloop
  endfacet
  facet normal 0 1 -0
    outer loop
      vertex 120 220 0
      vertex 0 220 5
      vertex 120 220 5
    endloop
  endfacet
  facet normal 0 1 0
    outer loop
      vertex 0 220 5
      vertex 120 220 0
      vertex 0 220 0
    endloop
  endfacet
  facet normal 0 1 -0
    outer loop
      vertex 120 215 -1.5
      vertex 0 215 0
      vertex 120 215 0
    endloop
  endfacet
  facet normal 0 1 0
    outer loop
      vertex 0 215 0
      vertex 120 215 -1.5
      vertex 0 215 -1.5
    endloop
  endfacet
  facet normal 0 -1 0
    outer loop
      vertex 0 183 0
      vertex -5 183 5
      vertex -5 183 0
    endloop
  endfacet
  facet normal 0 -1 0
    outer loop
      vertex -5 183 5
      vertex 0 183 0
      vertex 12 183 5
    endloop
  endfacet
  facet normal 0 -1 0
    outer loop
      vertex 12 183 -1.5
      vertex 0 183 0
      vertex 0 183 -1.5
    endloop
  endfacet
  facet normal 0 -1 0
    outer loop
      vertex 0 183 0
      vertex 12 183 -1.5
      vertex 12 183 5
    endloop
  endfacet
  facet normal 0 1 0
    outer loop
      vertex 12 37 5
      vertex 0 37 0
      vertex -5 37 5
    endloop
  endfacet
  facet normal 0 1 -0
    outer loop
      vertex 12 37 -1.5
      vertex 0 37 0
      vertex 12 37 5
    endloop
  endfacet
  facet normal 0 1 0
    outer loop
      vertex 0 37 0
      vertex 12 37 -1.5
      vertex 0 37 -1.5
    endloop
  endfacet
  facet normal 0 1 0
    outer loop
      vertex -5 37 5
      vertex 0 37 0
      vertex -5 37 0
    endloop
  endfacet
endsolid OpenSCAD_Model
