solid OpenSCAD_Model
  facet normal -1 0 0
    outer loop
      vertex -64 24 -0.5
      vertex -64 60 -5
      vertex -64 24 -3.5
    endloop
  endfacet
  facet normal -1 0 0
    outer loop
      vertex -64 60 -5
      vertex -64 16 -3.5
      vertex -64 24 -3.5
    endloop
  endfacet
  facet normal -1 0 0
    outer loop
      vertex -64 16 -3.5
      vertex -64 -16 -3.5
      vertex -64 16 -0.5
    endloop
  endfacet
  facet normal -1 0 0
    outer loop
      vertex -64 60 -5
      vertex -64 -16 -3.5
      vertex -64 16 -3.5
    endloop
  endfacet
  facet normal -1 0 0
    outer loop
      vertex -64 -60 -5
      vertex -64 -16 -3.5
      vertex -64 60 -5
    endloop
  endfacet
  facet normal -1 -0 0
    outer loop
      vertex -64 -24 -3.5
      vertex -64 -60 -5
      vertex -64 -24 -0.5
    endloop
  endfacet
  facet normal -1 -0 0
    outer loop
      vertex -64 -16 -3.5
      vertex -64 -60 -5
      vertex -64 -24 -3.5
    endloop
  endfacet
  facet normal -1 0 0
    outer loop
      vertex -64 60 -5
      vertex -64 24 -0.5
      vertex -64 60 5
    endloop
  endfacet
  facet normal -1 0 0
    outer loop
      vertex -64 16 -0.5
      vertex -64 60 5
      vertex -64 24 -0.5
    endloop
  endfacet
  facet normal -1 0 0
    outer loop
      vertex -64 -16 -0.5
      vertex -64 16 -0.5
      vertex -64 -16 -3.5
    endloop
  endfacet
  facet normal -1 0 0
    outer loop
      vertex -64 16 -0.5
      vertex -64 -16 -0.5
      vertex -64 60 5
    endloop
  endfacet
  facet normal -1 0 0
    outer loop
      vertex -64 -60 5
      vertex -64 -16 -0.5
      vertex -64 -24 -0.5
    endloop
  endfacet
  facet normal -1 0 0
    outer loop
      vertex -64 -16 -0.5
      vertex -64 -60 5
      vertex -64 60 5
    endloop
  endfacet
  facet normal -1 0 0
    outer loop
      vertex -64 -60 5
      vertex -64 -24 -0.5
      vertex -64 -60 -5
    endloop
  endfacet
  facet normal 0 0 1
    outer loop
      vertex 64 60 5
      vertex 58 59.5 5
      vertex 64 -60 5
    endloop
  endfacet
  facet normal 0 0 1
    outer loop
      vertex 64 60 5
      vertex -58 59.5 5
      vertex 58 59.5 5
    endloop
  endfacet
  facet normal 0 0 1
    outer loop
      vertex -58 59.5 5
      vertex -64 60 5
      vertex -58 -59.5 5
    endloop
  endfacet
  facet normal -0 0 1
    outer loop
      vertex -64 60 5
      vertex -58 59.5 5
      vertex 64 60 5
    endloop
  endfacet
  facet normal -0 0 1
    outer loop
      vertex 58 -59.5 5
      vertex 64 -60 5
      vertex 58 59.5 5
    endloop
  endfacet
  facet normal -0 0 1
    outer loop
      vertex -58 -59.5 5
      vertex 64 -60 5
      vertex 58 -59.5 5
    endloop
  endfacet
  facet normal 0 0 1
    outer loop
      vertex -58 -59.5 5
      vertex -64 -60 5
      vertex 64 -60 5
    endloop
  endfacet
  facet normal 0 0 1
    outer loop
      vertex -64 -60 5
      vertex -58 -59.5 5
      vertex -64 60 5
    endloop
  endfacet
  facet normal 1 0 0
    outer loop
      vertex 64 60 5
      vertex 64 24 -0.5
      vertex 64 60 -5
    endloop
  endfacet
  facet normal 1 0 0
    outer loop
      vertex 64 60 5
      vertex 64 16 -0.5
      vertex 64 24 -0.5
    endloop
  endfacet
  facet normal 1 0 0
    outer loop
      vertex 64 16 -0.5
      vertex 64 -16 -0.5
      vertex 64 16 -3.5
    endloop
  endfacet
  facet normal 1 0 0
    outer loop
      vertex 64 60 5
      vertex 64 -16 -0.5
      vertex 64 16 -0.5
    endloop
  endfacet
  facet normal 1 -0 0
    outer loop
      vertex 64 -60 5
      vertex 64 -16 -0.5
      vertex 64 60 5
    endloop
  endfacet
  facet normal 1 0 0
    outer loop
      vertex 64 -60 -5
      vertex 64 -24 -0.5
      vertex 64 -60 5
    endloop
  endfacet
  facet normal 1 0 0
    outer loop
      vertex 64 -16 -0.5
      vertex 64 -60 5
      vertex 64 -24 -0.5
    endloop
  endfacet
  facet normal 1 -0 0
    outer loop
      vertex 64 24 -3.5
      vertex 64 60 -5
      vertex 64 24 -0.5
    endloop
  endfacet
  facet normal 1 -0 0
    outer loop
      vertex 64 16 -3.5
      vertex 64 60 -5
      vertex 64 24 -3.5
    endloop
  endfacet
  facet normal 1 0 0
    outer loop
      vertex 64 -16 -3.5
      vertex 64 16 -3.5
      vertex 64 -16 -0.5
    endloop
  endfacet
  facet normal 1 -0 0
    outer loop
      vertex 64 -16 -3.5
      vertex 64 60 -5
      vertex 64 16 -3.5
    endloop
  endfacet
  facet normal 1 0 0
    outer loop
      vertex 64 -60 -5
      vertex 64 -16 -3.5
      vertex 64 -24 -3.5
    endloop
  endfacet
  facet normal 1 0 0
    outer loop
      vertex 64 -16 -3.5
      vertex 64 -60 -5
      vertex 64 60 -5
    endloop
  endfacet
  facet normal 1 0 0
    outer loop
      vertex 64 -24 -0.5
      vertex 64 -60 -5
      vertex 64 -24 -3.5
    endloop
  endfacet
  facet normal 0 0 -1
    outer loop
      vertex 64 -60 -5
      vertex 62.75 0 -5
      vertex 64 60 -5
    endloop
  endfacet
  facet normal 0 0 -1
    outer loop
      vertex 64 -60 -5
      vertex 62.1066 -1.76767 -5
      vertex 62.75 0 -5
    endloop
  endfacet
  facet normal 0 0 -1
    outer loop
      vertex 64 -60 -5
      vertex 60.4775 -2.70822 -5
      vertex 62.1066 -1.76767 -5
    endloop
  endfacet
  facet normal 0 0 -1
    outer loop
      vertex 64 -60 -5
      vertex 58.625 -2.38157 -5
      vertex 60.4775 -2.70822 -5
    endloop
  endfacet
  facet normal 0 0 -1
    outer loop
      vertex 64 -60 -5
      vertex 57.4158 -0.940555 -5
      vertex 58.625 -2.38157 -5
    endloop
  endfacet
  facet normal 0 0 -1
    outer loop
      vertex 57.4158 -0.940555 -5
      vertex -57.4158 -0.940555 -5
      vertex 57.4158 0.940555 -5
    endloop
  endfacet
  facet normal 0 0 -1
    outer loop
      vertex 64 -60 -5
      vertex -57.4158 -0.940555 -5
      vertex 57.4158 -0.940555 -5
    endloop
  endfacet
  facet normal 0 0 -1
    outer loop
      vertex -64 -60 -5
      vertex -57.4158 -0.940555 -5
      vertex 64 -60 -5
    endloop
  endfacet
  facet normal 0 0 -1
    outer loop
      vertex -57.4158 -0.940555 -5
      vertex -64 -60 -5
      vertex -58.625 -2.38157 -5
    endloop
  endfacet
  facet normal -0 0 -1
    outer loop
      vertex -62.1066 -1.76767 -5
      vertex -64 -60 -5
      vertex -62.75 0 -5
    endloop
  endfacet
  facet normal -0 0 -1
    outer loop
      vertex -60.4775 -2.70822 -5
      vertex -64 -60 -5
      vertex -62.1066 -1.76767 -5
    endloop
  endfacet
  facet normal 0 0 -1
    outer loop
      vertex -58.625 -2.38157 -5
      vertex -64 -60 -5
      vertex -60.4775 -2.70822 -5
    endloop
  endfacet
  facet normal 0 0 -1
    outer loop
      vertex 62.1066 1.76767 -5
      vertex 64 60 -5
      vertex 62.75 0 -5
    endloop
  endfacet
  facet normal 0 0 -1
    outer loop
      vertex 60.4775 2.70822 -5
      vertex 64 60 -5
      vertex 62.1066 1.76767 -5
    endloop
  endfacet
  facet normal 0 0 -1
    outer loop
      vertex 58.625 2.38157 -5
      vertex 64 60 -5
      vertex 60.4775 2.70822 -5
    endloop
  endfacet
  facet normal 0 0 -1
    outer loop
      vertex 57.4158 0.940555 -5
      vertex 64 60 -5
      vertex 58.625 2.38157 -5
    endloop
  endfacet
  facet normal 0 0 -1
    outer loop
      vertex -57.4158 0.940555 -5
      vertex 57.4158 0.940555 -5
      vertex -57.4158 -0.940555 -5
    endloop
  endfacet
  facet normal 0 0 -1
    outer loop
      vertex 57.4158 0.940555 -5
      vertex -57.4158 0.940555 -5
      vertex 64 60 -5
    endloop
  endfacet
  facet normal 0 0 -1
    outer loop
      vertex -64 60 -5
      vertex -57.4158 0.940555 -5
      vertex -58.625 2.38157 -5
    endloop
  endfacet
  facet normal 0 0 -1
    outer loop
      vertex -64 60 -5
      vertex -58.625 2.38157 -5
      vertex -60.4775 2.70822 -5
    endloop
  endfacet
  facet normal 0 0 -1
    outer loop
      vertex -57.4158 0.940555 -5
      vertex -64 60 -5
      vertex 64 60 -5
    endloop
  endfacet
  facet normal 0 0 -1
    outer loop
      vertex -62.1066 1.76767 -5
      vertex -64 60 -5
      vertex -60.4775 2.70822 -5
    endloop
  endfacet
  facet normal 0 0 -1
    outer loop
      vertex -62.75 0 -5
      vertex -64 60 -5
      vertex -62.1066 1.76767 -5
    endloop
  endfacet
  facet normal 0 0 -1
    outer loop
      vertex -64 60 -5
      vertex -62.75 0 -5
      vertex -64 -60 -5
    endloop
  endfacet
  facet normal 0 -1 0
    outer loop
      vertex -64 -60 -5
      vertex 64 -60 5
      vertex -64 -60 5
    endloop
  endfacet
  facet normal 0 -1 -0
    outer loop
      vertex 64 -60 5
      vertex -64 -60 -5
      vertex 64 -60 -5
    endloop
  endfacet
  facet normal 0 1 -0
    outer loop
      vertex 64 60 -5
      vertex -64 60 5
      vertex 64 60 5
    endloop
  endfacet
  facet normal 0 1 0
    outer loop
      vertex -64 60 5
      vertex 64 60 -5
      vertex -64 60 -5
    endloop
  endfacet
  facet normal 1 0 0
    outer loop
      vertex -50.5 52 3.5
      vertex -50.5 42 1.5
      vertex -50.5 52 -2
    endloop
  endfacet
  facet normal 1 0 0
    outer loop
      vertex -50.5 52 3.5
      vertex -50.5 40 1.5
      vertex -50.5 42 1.5
    endloop
  endfacet
  facet normal 1 0 0
    outer loop
      vertex -50.5 40 1.5
      vertex -50.5 12 1.5
      vertex -50.5 40 -2
    endloop
  endfacet
  facet normal 1 0 0
    outer loop
      vertex -50.5 52 3.5
      vertex -50.5 12 1.5
      vertex -50.5 40 1.5
    endloop
  endfacet
  facet normal 1 0 0
    outer loop
      vertex -50.5 52 3.5
      vertex -50.5 10 1.5
      vertex -50.5 12 1.5
    endloop
  endfacet
  facet normal 1 0 0
    outer loop
      vertex -50.5 10 1.5
      vertex -50.5 -38 1.5
      vertex -50.5 10 -2
    endloop
  endfacet
  facet normal 1 -0 0
    outer loop
      vertex -50.5 -52 3.5
      vertex -50.5 10 1.5
      vertex -50.5 52 3.5
    endloop
  endfacet
  facet normal 1 0 0
    outer loop
      vertex -50.5 10 1.5
      vertex -50.5 -52 3.5
      vertex -50.5 -38 1.5
    endloop
  endfacet
  facet normal 1 0 0
    outer loop
      vertex -50.5 -38 1.5
      vertex -50.5 -52 3.5
      vertex -50.5 -40 1.5
    endloop
  endfacet
  facet normal 1 0 0
    outer loop
      vertex -50.5 -52 -2
      vertex -50.5 -40 1.5
      vertex -50.5 -52 3.5
    endloop
  endfacet
  facet normal 1 0 0
    outer loop
      vertex -50.5 -40 1.5
      vertex -50.5 -52 -2
      vertex -50.5 -40 -2
    endloop
  endfacet
  facet normal 1 0 0
    outer loop
      vertex -50.5 52 -2
      vertex -50.5 42 1.5
      vertex -50.5 42 -2
    endloop
  endfacet
  facet normal 1 0 0
    outer loop
      vertex -50.5 40 -2
      vertex -50.5 12 1.5
      vertex -50.5 12 -2
    endloop
  endfacet
  facet normal 1 0 0
    outer loop
      vertex -50.5 10 -2
      vertex -50.5 -38 1.5
      vertex -50.5 -38 -2
    endloop
  endfacet
  facet normal 1 -0 0
    outer loop
      vertex -50.5 -40 1.5
      vertex -50.5 -38 -2
      vertex -50.5 -38 1.5
    endloop
  endfacet
  facet normal 1 0 0
    outer loop
      vertex -50.5 -38 -2
      vertex -50.5 -40 1.5
      vertex -50.5 -40 -2
    endloop
  endfacet
  facet normal 1 -0 0
    outer loop
      vertex -50.5 10 1.5
      vertex -50.5 12 -2
      vertex -50.5 12 1.5
    endloop
  endfacet
  facet normal 1 0 0
    outer loop
      vertex -50.5 12 -2
      vertex -50.5 10 1.5
      vertex -50.5 10 -2
    endloop
  endfacet
  facet normal 1 -0 0
    outer loop
      vertex -50.5 40 1.5
      vertex -50.5 42 -2
      vertex -50.5 42 1.5
    endloop
  endfacet
  facet normal 1 0 0
    outer loop
      vertex -50.5 42 -2
      vertex -50.5 40 1.5
      vertex -50.5 40 -2
    endloop
  endfacet
  facet normal -1 0 0
    outer loop
      vertex 50.5 -52 -2
      vertex 50.5 52 3.5
      vertex 50.5 52 -2
    endloop
  endfacet
  facet normal -1 -0 0
    outer loop
      vertex 50.5 52 3.5
      vertex 50.5 -52 -2
      vertex 50.5 -52 3.5
    endloop
  endfacet
  facet normal 0 0 1
    outer loop
      vertex -10 52 -2
      vertex -28 52 -2
      vertex -10 50.5 -2
    endloop
  endfacet
  facet normal -0 0 1
    outer loop
      vertex 30 50.48 -2
      vertex 32 -50.5 -2
      vertex 32 50.48 -2
    endloop
  endfacet
  facet normal 0 0 1
    outer loop
      vertex 32 -50.5 -2
      vertex 30 50.48 -2
      vertex 30 -50.5 -2
    endloop
  endfacet
  facet normal 0 0 1
    outer loop
      vertex 32 50.48 -2
      vertex 50.5 52 -2
      vertex 32 51.98 -2
    endloop
  endfacet
  facet normal 0 0 1
    outer loop
      vertex 50.5 52 -2
      vertex 30 51.98 -2
      vertex 32 51.98 -2
    endloop
  endfacet
  facet normal -0 0 1
    outer loop
      vertex -8 50.5 -2
      vertex 30 50.48 -2
      vertex 30 51.98 -2
    endloop
  endfacet
  facet normal 0 0 1
    outer loop
      vertex 30 50.48 -2
      vertex -8 50.5 -2
      vertex 30 -50.5 -2
    endloop
  endfacet
  facet normal -0 0 1
    outer loop
      vertex -8 52 -2
      vertex 30 51.98 -2
      vertex 50.5 52 -2
    endloop
  endfacet
  facet normal 0 0 1
    outer loop
      vertex -8 50.5 -2
      vertex 30 51.98 -2
      vertex -8 52 -2
    endloop
  endfacet
  facet normal 0 0 1
    outer loop
      vertex -28 -50.5 -2
      vertex 30 -50.5 -2
      vertex -8 50.5 -2
    endloop
  endfacet
  facet normal 0 0 1
    outer loop
      vertex -28 -50.5 -2
      vertex -8 50.5 -2
      vertex -10 50.5 -2
    endloop
  endfacet
  facet normal 0 0 1
    outer loop
      vertex -28 50.48 -2
      vertex -10 50.5 -2
      vertex -28 52 -2
    endloop
  endfacet
  facet normal 0 0 1
    outer loop
      vertex -28 -50.5 -2
      vertex -10 50.5 -2
      vertex -28 50.48 -2
    endloop
  endfacet
  facet normal 0 0 1
    outer loop
      vertex 30 -50.5 -2
      vertex -28 -50.5 -2
      vertex 30 -52 -2
    endloop
  endfacet
  facet normal 0 0 1
    outer loop
      vertex 30 -52 -2
      vertex -28 -50.5 -2
      vertex -28 -52 -2
    endloop
  endfacet
  facet normal 0 0 1
    outer loop
      vertex 50.5 52 -2
      vertex 32 50.48 -2
      vertex 50.5 -52 -2
    endloop
  endfacet
  facet normal -0 0 1
    outer loop
      vertex 32 -50.5 -2
      vertex 50.5 -52 -2
      vertex 32 50.48 -2
    endloop
  endfacet
  facet normal 0 0 1
    outer loop
      vertex 50.5 -52 -2
      vertex 32 -50.5 -2
      vertex 32 -52 -2
    endloop
  endfacet
  facet normal -0 0 1
    outer loop
      vertex -50.5 52 -2
      vertex -30 50.48 -2
      vertex -30 52 -2
    endloop
  endfacet
  facet normal 0 0 1
    outer loop
      vertex -30 50.48 -2
      vertex -50.5 10 -2
      vertex -30 -50.5 -2
    endloop
  endfacet
  facet normal 0 0 1
    outer loop
      vertex -30 50.48 -2
      vertex -50.5 52 -2
      vertex -50.5 42 -2
    endloop
  endfacet
  facet normal 0 0 1
    outer loop
      vertex -30 50.48 -2
      vertex -50.5 42 -2
      vertex -50.5 40 -2
    endloop
  endfacet
  facet normal 0 0 1
    outer loop
      vertex -30 50.48 -2
      vertex -50.5 40 -2
      vertex -50.5 12 -2
    endloop
  endfacet
  facet normal 0 0 1
    outer loop
      vertex -30 50.48 -2
      vertex -50.5 12 -2
      vertex -50.5 10 -2
    endloop
  endfacet
  facet normal -0 0 1
    outer loop
      vertex -50.5 -38 -2
      vertex -30 -50.5 -2
      vertex -50.5 10 -2
    endloop
  endfacet
  facet normal -0 0 1
    outer loop
      vertex -50.5 -40 -2
      vertex -30 -50.5 -2
      vertex -50.5 -38 -2
    endloop
  endfacet
  facet normal 0 0 1
    outer loop
      vertex -50.5 -52 -2
      vertex -30 -50.5 -2
      vertex -50.5 -40 -2
    endloop
  endfacet
  facet normal 0 0 1
    outer loop
      vertex -30 -50.5 -2
      vertex -50.5 -52 -2
      vertex -30 -52 -2
    endloop
  endfacet
  facet normal -0 0 1
    outer loop
      vertex -30 50.48 -2
      vertex -28 -50.5 -2
      vertex -28 50.48 -2
    endloop
  endfacet
  facet normal 0 0 1
    outer loop
      vertex -28 -50.5 -2
      vertex -30 50.48 -2
      vertex -30 -50.5 -2
    endloop
  endfacet
  facet normal 0 1 -0
    outer loop
      vertex 30 -52 -2
      vertex -28 -52 1.5
      vertex 30 -52 1.5
    endloop
  endfacet
  facet normal 0 1 0
    outer loop
      vertex -28 -52 1.5
      vertex 30 -52 -2
      vertex -28 -52 -2
    endloop
  endfacet
  facet normal 0 1 0
    outer loop
      vertex 30 -52 1.5
      vertex 50.5 -52 3.5
      vertex 32 -52 1.5
    endloop
  endfacet
  facet normal 0 1 -0
    outer loop
      vertex 50.5 -52 -2
      vertex 32 -52 1.5
      vertex 50.5 -52 3.5
    endloop
  endfacet
  facet normal 0 1 0
    outer loop
      vertex 32 -52 1.5
      vertex 50.5 -52 -2
      vertex 32 -52 -2
    endloop
  endfacet
  facet normal 0 1 0
    outer loop
      vertex 50.5 -52 3.5
      vertex 30 -52 1.5
      vertex -50.5 -52 3.5
    endloop
  endfacet
  facet normal 0 1 -0
    outer loop
      vertex -28 -52 1.5
      vertex -50.5 -52 3.5
      vertex 30 -52 1.5
    endloop
  endfacet
  facet normal 0 1 -0
    outer loop
      vertex -30 -52 1.5
      vertex -50.5 -52 3.5
      vertex -28 -52 1.5
    endloop
  endfacet
  facet normal 0 1 0
    outer loop
      vertex -50.5 -52 -2
      vertex -30 -52 1.5
      vertex -30 -52 -2
    endloop
  endfacet
  facet normal 0 1 0
    outer loop
      vertex -30 -52 1.5
      vertex -50.5 -52 -2
      vertex -50.5 -52 3.5
    endloop
  endfacet
  facet normal 0 -1 0
    outer loop
      vertex -28 52 -2
      vertex -10 52 1.5
      vertex -28 52 1.5
    endloop
  endfacet
  facet normal 0 -1 -0
    outer loop
      vertex -10 52 1.5
      vertex -28 52 -2
      vertex -10 52 -2
    endloop
  endfacet
  facet normal 0 -1 0
    outer loop
      vertex -28 52 1.5
      vertex -50.5 52 3.5
      vertex -30 52 1.5
    endloop
  endfacet
  facet normal 0 -1 0
    outer loop
      vertex -50.5 52 -2
      vertex -30 52 1.5
      vertex -50.5 52 3.5
    endloop
  endfacet
  facet normal 0 -1 -0
    outer loop
      vertex -30 52 1.5
      vertex -50.5 52 -2
      vertex -30 52 -2
    endloop
  endfacet
  facet normal 0 -1 0
    outer loop
      vertex -10 52 1.5
      vertex -50.5 52 3.5
      vertex -28 52 1.5
    endloop
  endfacet
  facet normal 0 -1 0
    outer loop
      vertex -8 52 1.5
      vertex -50.5 52 3.5
      vertex -10 52 1.5
    endloop
  endfacet
  facet normal 0 -1 0
    outer loop
      vertex -50.5 52 3.5
      vertex -8 52 1.5
      vertex 50.5 52 3.5
    endloop
  endfacet
  facet normal 0 -1 0
    outer loop
      vertex 50.5 52 -2
      vertex -8 52 1.5
      vertex -8 52 -2
    endloop
  endfacet
  facet normal 0 -1 0
    outer loop
      vertex -8 52 1.5
      vertex 50.5 52 -2
      vertex 50.5 52 3.5
    endloop
  endfacet
  facet normal 1 -0 0
    outer loop
      vertex -58 -59.5 5
      vertex -58 59.5 3.5
      vertex -58 59.5 5
    endloop
  endfacet
  facet normal 1 0 0
    outer loop
      vertex -58 59.5 3.5
      vertex -58 -59.5 5
      vertex -58 -59.5 3.5
    endloop
  endfacet
  facet normal -1 0 0
    outer loop
      vertex 58 -59.5 3.5
      vertex 58 59.5 5
      vertex 58 59.5 3.5
    endloop
  endfacet
  facet normal -1 -0 0
    outer loop
      vertex 58 59.5 5
      vertex 58 -59.5 3.5
      vertex 58 -59.5 5
    endloop
  endfacet
  facet normal 0 -1 0
    outer loop
      vertex -58 59.5 3.5
      vertex 58 59.5 5
      vertex -58 59.5 5
    endloop
  endfacet
  facet normal 0 -1 -0
    outer loop
      vertex 58 59.5 5
      vertex -58 59.5 3.5
      vertex 58 59.5 3.5
    endloop
  endfacet
  facet normal 0 0 1
    outer loop
      vertex 58 59.5 3.5
      vertex 50.5 52 3.5
      vertex 58 -59.5 3.5
    endloop
  endfacet
  facet normal 0 0 1
    outer loop
      vertex 58 59.5 3.5
      vertex -50.5 52 3.5
      vertex 50.5 52 3.5
    endloop
  endfacet
  facet normal 0 0 1
    outer loop
      vertex -50.5 52 3.5
      vertex -58 59.5 3.5
      vertex -50.5 -52 3.5
    endloop
  endfacet
  facet normal -0 0 1
    outer loop
      vertex -58 59.5 3.5
      vertex -50.5 52 3.5
      vertex 58 59.5 3.5
    endloop
  endfacet
  facet normal -0 0 1
    outer loop
      vertex 50.5 -52 3.5
      vertex 58 -59.5 3.5
      vertex 50.5 52 3.5
    endloop
  endfacet
  facet normal -0 0 1
    outer loop
      vertex -50.5 -52 3.5
      vertex 58 -59.5 3.5
      vertex 50.5 -52 3.5
    endloop
  endfacet
  facet normal 0 0 1
    outer loop
      vertex -50.5 -52 3.5
      vertex -58 -59.5 3.5
      vertex 58 -59.5 3.5
    endloop
  endfacet
  facet normal 0 0 1
    outer loop
      vertex -58 -59.5 3.5
      vertex -50.5 -52 3.5
      vertex -58 59.5 3.5
    endloop
  endfacet
  facet normal 0 1 -0
    outer loop
      vertex 58 -59.5 3.5
      vertex -58 -59.5 5
      vertex 58 -59.5 5
    endloop
  endfacet
  facet normal 0 1 0
    outer loop
      vertex -58 -59.5 5
      vertex 58 -59.5 3.5
      vertex -58 -59.5 3.5
    endloop
  endfacet
  facet normal 1 -0 0
    outer loop
      vertex 56 16 -0.5
      vertex 56 24 -3.5
      vertex 56 24 -0.5
    endloop
  endfacet
  facet normal 1 0 0
    outer loop
      vertex 56 24 -3.5
      vertex 56 16 -0.5
      vertex 56 16 -3.5
    endloop
  endfacet
  facet normal 0 0 -1
    outer loop
      vertex 56 16 -0.5
      vertex 64 24 -0.5
      vertex 64 16 -0.5
    endloop
  endfacet
  facet normal -0 0 -1
    outer loop
      vertex 64 24 -0.5
      vertex 56 16 -0.5
      vertex 56 24 -0.5
    endloop
  endfacet
  facet normal -0 0 1
    outer loop
      vertex 56 24 -3.5
      vertex 64 16 -3.5
      vertex 64 24 -3.5
    endloop
  endfacet
  facet normal 0 0 1
    outer loop
      vertex 64 16 -3.5
      vertex 56 24 -3.5
      vertex 56 16 -3.5
    endloop
  endfacet
  facet normal 0 1 -0
    outer loop
      vertex 64 16 -3.5
      vertex 56 16 -0.5
      vertex 64 16 -0.5
    endloop
  endfacet
  facet normal 0 1 0
    outer loop
      vertex 56 16 -0.5
      vertex 64 16 -3.5
      vertex 56 16 -3.5
    endloop
  endfacet
  facet normal 0 -1 0
    outer loop
      vertex 56 24 -3.5
      vertex 64 24 -0.5
      vertex 56 24 -0.5
    endloop
  endfacet
  facet normal 0 -1 -0
    outer loop
      vertex 64 24 -0.5
      vertex 56 24 -3.5
      vertex 64 24 -3.5
    endloop
  endfacet
  facet normal 1 -0 0
    outer loop
      vertex 56 -24 -0.5
      vertex 56 -16 -3.5
      vertex 56 -16 -0.5
    endloop
  endfacet
  facet normal 1 0 0
    outer loop
      vertex 56 -16 -3.5
      vertex 56 -24 -0.5
      vertex 56 -24 -3.5
    endloop
  endfacet
  facet normal 0 0 -1
    outer loop
      vertex 56 -24 -0.5
      vertex 64 -16 -0.5
      vertex 64 -24 -0.5
    endloop
  endfacet
  facet normal -0 0 -1
    outer loop
      vertex 64 -16 -0.5
      vertex 56 -24 -0.5
      vertex 56 -16 -0.5
    endloop
  endfacet
  facet normal 0 -1 0
    outer loop
      vertex 56 -16 -3.5
      vertex 64 -16 -0.5
      vertex 56 -16 -0.5
    endloop
  endfacet
  facet normal 0 -1 -0
    outer loop
      vertex 64 -16 -0.5
      vertex 56 -16 -3.5
      vertex 64 -16 -3.5
    endloop
  endfacet
  facet normal -0 0 1
    outer loop
      vertex 56 -16 -3.5
      vertex 64 -24 -3.5
      vertex 64 -16 -3.5
    endloop
  endfacet
  facet normal 0 0 1
    outer loop
      vertex 64 -24 -3.5
      vertex 56 -16 -3.5
      vertex 56 -24 -3.5
    endloop
  endfacet
  facet normal 0 1 -0
    outer loop
      vertex 64 -24 -3.5
      vertex 56 -24 -0.5
      vertex 64 -24 -0.5
    endloop
  endfacet
  facet normal 0 1 0
    outer loop
      vertex 56 -24 -0.5
      vertex 64 -24 -3.5
      vertex 56 -24 -3.5
    endloop
  endfacet
  facet normal 0 0 -1
    outer loop
      vertex -64 16 -0.5
      vertex -56 24 -0.5
      vertex -56 16 -0.5
    endloop
  endfacet
  facet normal -0 0 -1
    outer loop
      vertex -56 24 -0.5
      vertex -64 16 -0.5
      vertex -64 24 -0.5
    endloop
  endfacet
  facet normal -1 0 0
    outer loop
      vertex -56 16 -3.5
      vertex -56 24 -0.5
      vertex -56 24 -3.5
    endloop
  endfacet
  facet normal -1 -0 0
    outer loop
      vertex -56 24 -0.5
      vertex -56 16 -3.5
      vertex -56 16 -0.5
    endloop
  endfacet
  facet normal -0 0 1
    outer loop
      vertex -64 24 -3.5
      vertex -56 16 -3.5
      vertex -56 24 -3.5
    endloop
  endfacet
  facet normal 0 0 1
    outer loop
      vertex -56 16 -3.5
      vertex -64 24 -3.5
      vertex -64 16 -3.5
    endloop
  endfacet
  facet normal 0 1 -0
    outer loop
      vertex -56 16 -3.5
      vertex -64 16 -0.5
      vertex -56 16 -0.5
    endloop
  endfacet
  facet normal 0 1 0
    outer loop
      vertex -64 16 -0.5
      vertex -56 16 -3.5
      vertex -64 16 -3.5
    endloop
  endfacet
  facet normal 0 -1 0
    outer loop
      vertex -64 24 -3.5
      vertex -56 24 -0.5
      vertex -64 24 -0.5
    endloop
  endfacet
  facet normal 0 -1 -0
    outer loop
      vertex -56 24 -0.5
      vertex -64 24 -3.5
      vertex -56 24 -3.5
    endloop
  endfacet
  facet normal 0 0 -1
    outer loop
      vertex -64 -24 -0.5
      vertex -56 -16 -0.5
      vertex -56 -24 -0.5
    endloop
  endfacet
  facet normal -0 0 -1
    outer loop
      vertex -56 -16 -0.5
      vertex -64 -24 -0.5
      vertex -64 -16 -0.5
    endloop
  endfacet
  facet normal -1 0 0
    outer loop
      vertex -56 -24 -3.5
      vertex -56 -16 -0.5
      vertex -56 -16 -3.5
    endloop
  endfacet
  facet normal -1 -0 0
    outer loop
      vertex -56 -16 -0.5
      vertex -56 -24 -3.5
      vertex -56 -24 -0.5
    endloop
  endfacet
  facet normal 0 -1 0
    outer loop
      vertex -64 -16 -3.5
      vertex -56 -16 -0.5
      vertex -64 -16 -0.5
    endloop
  endfacet
  facet normal 0 -1 -0
    outer loop
      vertex -56 -16 -0.5
      vertex -64 -16 -3.5
      vertex -56 -16 -3.5
    endloop
  endfacet
  facet normal -0 0 1
    outer loop
      vertex -64 -16 -3.5
      vertex -56 -24 -3.5
      vertex -56 -16 -3.5
    endloop
  endfacet
  facet normal 0 0 1
    outer loop
      vertex -56 -24 -3.5
      vertex -64 -16 -3.5
      vertex -64 -24 -3.5
    endloop
  endfacet
  facet normal 0 1 -0
    outer loop
      vertex -56 -24 -3.5
      vertex -64 -24 -0.5
      vertex -56 -24 -0.5
    endloop
  endfacet
  facet normal 0 1 0
    outer loop
      vertex -64 -24 -0.5
      vertex -56 -24 -3.5
      vertex -64 -24 -3.5
    endloop
  endfacet
  facet normal -0.896728 -0.326393 -0.298909
    outer loop
      vertex 62.1066 1.76767 -5
      vertex 62.75 0 -5
      vertex 61.75 0 -2
    endloop
  endfacet
  facet normal 0.731011 0.613414 -0.29891
    outer loop
      vertex 58.3555 -0.598535 -2
      vertex 58.625 -2.38157 -5
      vertex 57.4158 -0.940555 -5
    endloop
  endfacet
  facet normal 0.165708 -0.939783 -0.298911
    outer loop
      vertex 60.3039 1.72341 -2
      vertex 59.125 1.51554 -2
      vertex 58.625 2.38157 -5
    endloop
  endfacet
  facet normal -0.477136 -0.826437 -0.298904
    outer loop
      vertex 62.1066 1.76767 -5
      vertex 61.3406 1.12488 -2
      vertex 60.3039 1.72341 -2
    endloop
  endfacet
  facet normal 0.165708 0.939783 -0.298911
    outer loop
      vertex 59.125 -1.51554 -2
      vertex 60.3039 -1.72341 -2
      vertex 58.625 -2.38157 -5
    endloop
  endfacet
  facet normal -0.896728 0.326393 -0.298909
    outer loop
      vertex 62.75 0 -5
      vertex 62.1066 -1.76767 -5
      vertex 61.75 0 -2
    endloop
  endfacet
  facet normal 0.731005 -0.613419 -0.298914
    outer loop
      vertex 58.625 2.38157 -5
      vertex 59.125 1.51554 -2
      vertex 58.3555 0.598535 -2
    endloop
  endfacet
  facet normal 0.165711 -0.939782 -0.298913
    outer loop
      vertex 60.4775 2.70822 -5
      vertex 60.3039 1.72341 -2
      vertex 58.625 2.38157 -5
    endloop
  endfacet
  facet normal -0.477137 -0.826436 -0.298904
    outer loop
      vertex 60.4775 2.70822 -5
      vertex 62.1066 1.76767 -5
      vertex 60.3039 1.72341 -2
    endloop
  endfacet
  facet normal -0.896741 -0.326369 -0.298897
    outer loop
      vertex 62.1066 1.76767 -5
      vertex 61.75 0 -2
      vertex 61.3406 1.12488 -2
    endloop
  endfacet
  facet normal 0.731011 -0.613414 -0.29891
    outer loop
      vertex 58.625 2.38157 -5
      vertex 58.3555 0.598535 -2
      vertex 57.4158 0.940555 -5
    endloop
  endfacet
  facet normal 0.165711 0.939782 -0.298913
    outer loop
      vertex 60.3039 -1.72341 -2
      vertex 60.4775 -2.70822 -5
      vertex 58.625 -2.38157 -5
    endloop
  endfacet
  facet normal 0.731005 0.613419 -0.298914
    outer loop
      vertex 59.125 -1.51554 -2
      vertex 58.625 -2.38157 -5
      vertex 58.3555 -0.598535 -2
    endloop
  endfacet
  facet normal -0.477137 0.826436 -0.298904
    outer loop
      vertex 62.1066 -1.76767 -5
      vertex 60.4775 -2.70822 -5
      vertex 60.3039 -1.72341 -2
    endloop
  endfacet
  facet normal 0 0 -1
    outer loop
      vertex 61.3406 -1.12488 -2
      vertex 61.3406 1.12488 -2
      vertex 61.75 0 -2
    endloop
  endfacet
  facet normal 0 0 -1
    outer loop
      vertex 60.3039 -1.72341 -2
      vertex 61.3406 1.12488 -2
      vertex 61.3406 -1.12488 -2
    endloop
  endfacet
  facet normal 0 0 -1
    outer loop
      vertex 60.3039 -1.72341 -2
      vertex 60.3039 1.72341 -2
      vertex 61.3406 1.12488 -2
    endloop
  endfacet
  facet normal 0 0 -1
    outer loop
      vertex 59.125 -1.51554 -2
      vertex 60.3039 1.72341 -2
      vertex 60.3039 -1.72341 -2
    endloop
  endfacet
  facet normal 0 0 -1
    outer loop
      vertex 59.125 -1.51554 -2
      vertex 59.125 1.51554 -2
      vertex 60.3039 1.72341 -2
    endloop
  endfacet
  facet normal 0 0 -1
    outer loop
      vertex 58.3555 -0.598535 -2
      vertex 59.125 1.51554 -2
      vertex 59.125 -1.51554 -2
    endloop
  endfacet
  facet normal 0 0 -1
    outer loop
      vertex 59.125 1.51554 -2
      vertex 58.3555 -0.598535 -2
      vertex 58.3555 0.598535 -2
    endloop
  endfacet
  facet normal 0.954281 0 -0.298912
    outer loop
      vertex 58.3555 -0.598535 -2
      vertex 57.4158 0.940555 -5
      vertex 58.3555 0.598535 -2
    endloop
  endfacet
  facet normal 0.954281 0 -0.298912
    outer loop
      vertex 57.4158 0.940555 -5
      vertex 58.3555 -0.598535 -2
      vertex 57.4158 -0.940555 -5
    endloop
  endfacet
  facet normal -0.477136 0.826437 -0.298904
    outer loop
      vertex 61.3406 -1.12488 -2
      vertex 62.1066 -1.76767 -5
      vertex 60.3039 -1.72341 -2
    endloop
  endfacet
  facet normal -0.896741 0.326369 -0.298897
    outer loop
      vertex 61.75 0 -2
      vertex 62.1066 -1.76767 -5
      vertex 61.3406 -1.12488 -2
    endloop
  endfacet
  facet normal 0.896728 -0.326393 -0.298909
    outer loop
      vertex -62.1066 1.76767 -5
      vertex -61.75 0 -2
      vertex -62.75 0 -5
    endloop
  endfacet
  facet normal 0.896741 0.326369 -0.298897
    outer loop
      vertex -61.75 0 -2
      vertex -61.3406 -1.12488 -2
      vertex -62.1066 -1.76767 -5
    endloop
  endfacet
  facet normal 0.477137 0.826436 -0.298904
    outer loop
      vertex -60.3039 -1.72341 -2
      vertex -60.4775 -2.70822 -5
      vertex -62.1066 -1.76767 -5
    endloop
  endfacet
  facet normal -0.165708 -0.939783 -0.298911
    outer loop
      vertex -58.625 2.38157 -5
      vertex -59.125 1.51554 -2
      vertex -60.3039 1.72341 -2
    endloop
  endfacet
  facet normal 0.896728 0.326393 -0.298909
    outer loop
      vertex -61.75 0 -2
      vertex -62.1066 -1.76767 -5
      vertex -62.75 0 -5
    endloop
  endfacet
  facet normal -0.731005 -0.613419 -0.298914
    outer loop
      vertex -58.625 2.38157 -5
      vertex -58.3555 0.598535 -2
      vertex -59.125 1.51554 -2
    endloop
  endfacet
  facet normal 0.477137 -0.826436 -0.298904
    outer loop
      vertex -60.4775 2.70822 -5
      vertex -60.3039 1.72341 -2
      vertex -62.1066 1.76767 -5
    endloop
  endfacet
  facet normal 0 0 -1
    outer loop
      vertex -59.125 -1.51554 -2
      vertex -58.3555 0.598535 -2
      vertex -58.3555 -0.598535 -2
    endloop
  endfacet
  facet normal 0 0 -1
    outer loop
      vertex -59.125 -1.51554 -2
      vertex -59.125 1.51554 -2
      vertex -58.3555 0.598535 -2
    endloop
  endfacet
  facet normal 0 0 -1
    outer loop
      vertex -60.3039 -1.72341 -2
      vertex -59.125 1.51554 -2
      vertex -59.125 -1.51554 -2
    endloop
  endfacet
  facet normal 0 0 -1
    outer loop
      vertex -60.3039 -1.72341 -2
      vertex -60.3039 1.72341 -2
      vertex -59.125 1.51554 -2
    endloop
  endfacet
  facet normal 0 0 -1
    outer loop
      vertex -61.3406 -1.12488 -2
      vertex -60.3039 1.72341 -2
      vertex -60.3039 -1.72341 -2
    endloop
  endfacet
  facet normal 0 0 -1
    outer loop
      vertex -61.3406 -1.12488 -2
      vertex -61.3406 1.12488 -2
      vertex -60.3039 1.72341 -2
    endloop
  endfacet
  facet normal 0 -0 -1
    outer loop
      vertex -61.3406 1.12488 -2
      vertex -61.3406 -1.12488 -2
      vertex -61.75 0 -2
    endloop
  endfacet
  facet normal -0.165708 0.939783 -0.298911
    outer loop
      vertex -59.125 -1.51554 -2
      vertex -58.625 -2.38157 -5
      vertex -60.3039 -1.72341 -2
    endloop
  endfacet
  facet normal -0.165711 0.939782 -0.298913
    outer loop
      vertex -60.3039 -1.72341 -2
      vertex -58.625 -2.38157 -5
      vertex -60.4775 -2.70822 -5
    endloop
  endfacet
  facet normal -0.954281 0 -0.298912
    outer loop
      vertex -57.4158 0.940555 -5
      vertex -58.3555 -0.598535 -2
      vertex -58.3555 0.598535 -2
    endloop
  endfacet
  facet normal -0.954281 0 -0.298912
    outer loop
      vertex -58.3555 -0.598535 -2
      vertex -57.4158 0.940555 -5
      vertex -57.4158 -0.940555 -5
    endloop
  endfacet
  facet normal -0.165711 -0.939782 -0.298913
    outer loop
      vertex -58.625 2.38157 -5
      vertex -60.3039 1.72341 -2
      vertex -60.4775 2.70822 -5
    endloop
  endfacet
  facet normal 0.477136 -0.826437 -0.298904
    outer loop
      vertex -60.3039 1.72341 -2
      vertex -61.3406 1.12488 -2
      vertex -62.1066 1.76767 -5
    endloop
  endfacet
  facet normal 0.896741 -0.326369 -0.298897
    outer loop
      vertex -61.3406 1.12488 -2
      vertex -61.75 0 -2
      vertex -62.1066 1.76767 -5
    endloop
  endfacet
  facet normal 0.477136 0.826437 -0.298904
    outer loop
      vertex -61.3406 -1.12488 -2
      vertex -60.3039 -1.72341 -2
      vertex -62.1066 -1.76767 -5
    endloop
  endfacet
  facet normal -0.731011 -0.613414 -0.29891
    outer loop
      vertex -57.4158 0.940555 -5
      vertex -58.3555 0.598535 -2
      vertex -58.625 2.38157 -5
    endloop
  endfacet
  facet normal -0.731005 0.613419 -0.298914
    outer loop
      vertex -58.3555 -0.598535 -2
      vertex -58.625 -2.38157 -5
      vertex -59.125 -1.51554 -2
    endloop
  endfacet
  facet normal -0.731011 0.613414 -0.29891
    outer loop
      vertex -58.3555 -0.598535 -2
      vertex -57.4158 -0.940555 -5
      vertex -58.625 -2.38157 -5
    endloop
  endfacet
  facet normal -1 0 0
    outer loop
      vertex 30 50.48 -2
      vertex 30 51.98 1.5
      vertex 30 51.98 -2
    endloop
  endfacet
  facet normal -1 -0 0
    outer loop
      vertex 30 51.98 1.5
      vertex 30 50.48 -2
      vertex 30 50.48 1.5
    endloop
  endfacet
  facet normal -0 0 1
    outer loop
      vertex 30 51.98 1.5
      vertex 32 50.48 1.5
      vertex 32 51.98 1.5
    endloop
  endfacet
  facet normal 0 0 1
    outer loop
      vertex 32 50.48 1.5
      vertex 30 51.98 1.5
      vertex 30 50.48 1.5
    endloop
  endfacet
  facet normal 1 -0 0
    outer loop
      vertex 32 50.48 1.5
      vertex 32 51.98 -2
      vertex 32 51.98 1.5
    endloop
  endfacet
  facet normal 1 0 0
    outer loop
      vertex 32 51.98 -2
      vertex 32 50.48 1.5
      vertex 32 50.48 -2
    endloop
  endfacet
  facet normal 0 -1 0
    outer loop
      vertex 30 50.48 -2
      vertex 32 50.48 1.5
      vertex 30 50.48 1.5
    endloop
  endfacet
  facet normal 0 -1 -0
    outer loop
      vertex 32 50.48 1.5
      vertex 30 50.48 -2
      vertex 32 50.48 -2
    endloop
  endfacet
  facet normal 0 1 -0
    outer loop
      vertex 32 51.98 -2
      vertex 30 51.98 1.5
      vertex 32 51.98 1.5
    endloop
  endfacet
  facet normal 0 1 0
    outer loop
      vertex 30 51.98 1.5
      vertex 32 51.98 -2
      vertex 30 51.98 -2
    endloop
  endfacet
  facet normal -1 0 0
    outer loop
      vertex 30 -52 -2
      vertex 30 -50.5 1.5
      vertex 30 -50.5 -2
    endloop
  endfacet
  facet normal -1 -0 0
    outer loop
      vertex 30 -50.5 1.5
      vertex 30 -52 -2
      vertex 30 -52 1.5
    endloop
  endfacet
  facet normal -0 0 1
    outer loop
      vertex 30 -50.5 1.5
      vertex 32 -52 1.5
      vertex 32 -50.5 1.5
    endloop
  endfacet
  facet normal 0 0 1
    outer loop
      vertex 32 -52 1.5
      vertex 30 -50.5 1.5
      vertex 30 -52 1.5
    endloop
  endfacet
  facet normal 1 -0 0
    outer loop
      vertex 32 -52 1.5
      vertex 32 -50.5 -2
      vertex 32 -50.5 1.5
    endloop
  endfacet
  facet normal 1 0 0
    outer loop
      vertex 32 -50.5 -2
      vertex 32 -52 1.5
      vertex 32 -52 -2
    endloop
  endfacet
  facet normal 0 1 -0
    outer loop
      vertex 32 -50.5 -2
      vertex 30 -50.5 1.5
      vertex 32 -50.5 1.5
    endloop
  endfacet
  facet normal 0 1 0
    outer loop
      vertex 30 -50.5 1.5
      vertex 32 -50.5 -2
      vertex 30 -50.5 -2
    endloop
  endfacet
  facet normal -1 0 0
    outer loop
      vertex -30 50.48 -2
      vertex -30 52 1.5
      vertex -30 52 -2
    endloop
  endfacet
  facet normal -1 -0 0
    outer loop
      vertex -30 52 1.5
      vertex -30 50.48 -2
      vertex -30 50.48 1.5
    endloop
  endfacet
  facet normal -0 0 1
    outer loop
      vertex -30 52 1.5
      vertex -28 50.48 1.5
      vertex -28 52 1.5
    endloop
  endfacet
  facet normal 0 0 1
    outer loop
      vertex -28 50.48 1.5
      vertex -30 52 1.5
      vertex -30 50.48 1.5
    endloop
  endfacet
  facet normal 1 -0 0
    outer loop
      vertex -28 50.48 1.5
      vertex -28 52 -2
      vertex -28 52 1.5
    endloop
  endfacet
  facet normal 1 0 0
    outer loop
      vertex -28 52 -2
      vertex -28 50.48 1.5
      vertex -28 50.48 -2
    endloop
  endfacet
  facet normal 0 -1 0
    outer loop
      vertex -30 50.48 -2
      vertex -28 50.48 1.5
      vertex -30 50.48 1.5
    endloop
  endfacet
  facet normal 0 -1 -0
    outer loop
      vertex -28 50.48 1.5
      vertex -30 50.48 -2
      vertex -28 50.48 -2
    endloop
  endfacet
  facet normal -1 0 0
    outer loop
      vertex -10 50.5 -2
      vertex -10 52 1.5
      vertex -10 52 -2
    endloop
  endfacet
  facet normal -1 -0 0
    outer loop
      vertex -10 52 1.5
      vertex -10 50.5 -2
      vertex -10 50.5 1.5
    endloop
  endfacet
  facet normal -0 0 1
    outer loop
      vertex -10 52 1.5
      vertex -8 50.5 1.5
      vertex -8 52 1.5
    endloop
  endfacet
  facet normal 0 0 1
    outer loop
      vertex -8 50.5 1.5
      vertex -10 52 1.5
      vertex -10 50.5 1.5
    endloop
  endfacet
  facet normal 1 -0 0
    outer loop
      vertex -8 50.5 1.5
      vertex -8 52 -2
      vertex -8 52 1.5
    endloop
  endfacet
  facet normal 1 0 0
    outer loop
      vertex -8 52 -2
      vertex -8 50.5 1.5
      vertex -8 50.5 -2
    endloop
  endfacet
  facet normal 0 -1 0
    outer loop
      vertex -10 50.5 -2
      vertex -8 50.5 1.5
      vertex -10 50.5 1.5
    endloop
  endfacet
  facet normal 0 -1 -0
    outer loop
      vertex -8 50.5 1.5
      vertex -10 50.5 -2
      vertex -8 50.5 -2
    endloop
  endfacet
  facet normal -1 0 0
    outer loop
      vertex -30 -52 -2
      vertex -30 -50.5 1.5
      vertex -30 -50.5 -2
    endloop
  endfacet
  facet normal -1 -0 0
    outer loop
      vertex -30 -50.5 1.5
      vertex -30 -52 -2
      vertex -30 -52 1.5
    endloop
  endfacet
  facet normal -0 0 1
    outer loop
      vertex -30 -50.5 1.5
      vertex -28 -52 1.5
      vertex -28 -50.5 1.5
    endloop
  endfacet
  facet normal 0 0 1
    outer loop
      vertex -28 -52 1.5
      vertex -30 -50.5 1.5
      vertex -30 -52 1.5
    endloop
  endfacet
  facet normal 1 -0 0
    outer loop
      vertex -28 -52 1.5
      vertex -28 -50.5 -2
      vertex -28 -50.5 1.5
    endloop
  endfacet
  facet normal 1 0 0
    outer loop
      vertex -28 -50.5 -2
      vertex -28 -52 1.5
      vertex -28 -52 -2
    endloop
  endfacet
  facet normal 0 1 -0
    outer loop
      vertex -28 -50.5 -2
      vertex -30 -50.5 1.5
      vertex -28 -50.5 1.5
    endloop
  endfacet
  facet normal 0 1 0
    outer loop
      vertex -30 -50.5 1.5
      vertex -28 -50.5 -2
      vertex -30 -50.5 -2
    endloop
  endfacet
endsolid OpenSCAD_Model
