solid OpenSCAD_Model
  facet normal -1 0 0
    outer loop
      vertex -64 24 -0.5
      vertex -64 60 -5
      vertex -64 24 -3.5
    endloop
  endfacet
  facet normal -1 0 0
    outer loop
      vertex -64 60 -5
      vertex -64 16 -3.5
      vertex -64 24 -3.5
    endloop
  endfacet
  facet normal -1 0 0
    outer loop
      vertex -64 16 -3.5
      vertex -64 -16 -3.5
      vertex -64 16 -0.5
    endloop
  endfacet
  facet normal -1 0 0
    outer loop
      vertex -64 60 -5
      vertex -64 -16 -3.5
      vertex -64 16 -3.5
    endloop
  endfacet
  facet normal -1 0 0
    outer loop
      vertex -64 -60 -5
      vertex -64 -16 -3.5
      vertex -64 60 -5
    endloop
  endfacet
  facet normal -1 -0 0
    outer loop
      vertex -64 -24 -3.5
      vertex -64 -60 -5
      vertex -64 -24 -0.5
    endloop
  endfacet
  facet normal -1 -0 0
    outer loop
      vertex -64 -16 -3.5
      vertex -64 -60 -5
      vertex -64 -24 -3.5
    endloop
  endfacet
  facet normal -1 0 0
    outer loop
      vertex -64 60 -5
      vertex -64 24 -0.5
      vertex -64 60 5
    endloop
  endfacet
  facet normal -1 0 0
    outer loop
      vertex -64 16 -0.5
      vertex -64 60 5
      vertex -64 24 -0.5
    endloop
  endfacet
  facet normal -1 0 0
    outer loop
      vertex -64 -16 -0.5
      vertex -64 16 -0.5
      vertex -64 -16 -3.5
    endloop
  endfacet
  facet normal -1 0 0
    outer loop
      vertex -64 16 -0.5
      vertex -64 -16 -0.5
      vertex -64 60 5
    endloop
  endfacet
  facet normal -1 0 0
    outer loop
      vertex -64 -60 5
      vertex -64 -16 -0.5
      vertex -64 -24 -0.5
    endloop
  endfacet
  facet normal -1 0 0
    outer loop
      vertex -64 -16 -0.5
      vertex -64 -60 5
      vertex -64 60 5
    endloop
  endfacet
  facet normal -1 0 0
    outer loop
      vertex -64 -60 5
      vertex -64 -24 -0.5
      vertex -64 -60 -5
    endloop
  endfacet
  facet normal 0 0 1
    outer loop
      vertex 64 60 5
      vertex 58 59.5 5
      vertex 64 -60 5
    endloop
  endfacet
  facet normal 0 0 1
    outer loop
      vertex 64 60 5
      vertex -58 59.5 5
      vertex 58 59.5 5
    endloop
  endfacet
  facet normal 0 0 1
    outer loop
      vertex -58 59.5 5
      vertex -64 60 5
      vertex -58 -59.5 5
    endloop
  endfacet
  facet normal -0 0 1
    outer loop
      vertex -64 60 5
      vertex -58 59.5 5
      vertex 64 60 5
    endloop
  endfacet
  facet normal -0 0 1
    outer loop
      vertex 58 -59.5 5
      vertex 64 -60 5
      vertex 58 59.5 5
    endloop
  endfacet
  facet normal -0 0 1
    outer loop
      vertex -58 -59.5 5
      vertex 64 -60 5
      vertex 58 -59.5 5
    endloop
  endfacet
  facet normal 0 0 1
    outer loop
      vertex -58 -59.5 5
      vertex -64 -60 5
      vertex 64 -60 5
    endloop
  endfacet
  facet normal 0 0 1
    outer loop
      vertex -64 -60 5
      vertex -58 -59.5 5
      vertex -64 60 5
    endloop
  endfacet
  facet normal 1 0 0
    outer loop
      vertex 64 60 5
      vertex 64 34 -1
      vertex 64 60 -5
    endloop
  endfacet
  facet normal 1 0 0
    outer loop
      vertex 64 60 5
      vertex 64 30 -1
      vertex 64 34 -1
    endloop
  endfacet
  facet normal 1 0 0
    outer loop
      vertex 64 24 -3.5
      vertex 64 30 -1
      vertex 64 24 -0.5
    endloop
  endfacet
  facet normal 1 0 0
    outer loop
      vertex 64 60 5
      vertex 64 24 -0.5
      vertex 64 30 -1
    endloop
  endfacet
  facet normal 1 0 0
    outer loop
      vertex 64 60 5
      vertex 64 16 -0.5
      vertex 64 24 -0.5
    endloop
  endfacet
  facet normal 1 0 0
    outer loop
      vertex 64 16 -0.5
      vertex 64 7 -1
      vertex 64 16 -3.5
    endloop
  endfacet
  facet normal 1 0 0
    outer loop
      vertex 64 -16 -0.5
      vertex 64 16 -0.5
      vertex 64 60 5
    endloop
  endfacet
  facet normal 1 0 0
    outer loop
      vertex 64 16 -0.5
      vertex 64 5 -1
      vertex 64 7 -1
    endloop
  endfacet
  facet normal 1 0 0
    outer loop
      vertex 64 5 -1
      vertex 64 -4.75 -1
      vertex 64 5 -5
    endloop
  endfacet
  facet normal 1 0 0
    outer loop
      vertex 64 16 -0.5
      vertex 64 -4.75 -1
      vertex 64 5 -1
    endloop
  endfacet
  facet normal 1 0 0
    outer loop
      vertex 64 16 -0.5
      vertex 64 -16 -0.5
      vertex 64 -4.75 -1
    endloop
  endfacet
  facet normal 1 0 0
    outer loop
      vertex 64 -16 -3.5
      vertex 64 -7.25 -1
      vertex 64 -16 -0.5
    endloop
  endfacet
  facet normal 1 0 0
    outer loop
      vertex 64 -4.75 -1
      vertex 64 -16 -0.5
      vertex 64 -7.25 -1
    endloop
  endfacet
  facet normal 1 -0 0
    outer loop
      vertex 64 -60 5
      vertex 64 -16 -0.5
      vertex 64 60 5
    endloop
  endfacet
  facet normal 1 0 0
    outer loop
      vertex 64 -60 -5
      vertex 64 -24 -0.5
      vertex 64 -60 5
    endloop
  endfacet
  facet normal 1 0 0
    outer loop
      vertex 64 -16 -0.5
      vertex 64 -60 5
      vertex 64 -24 -0.5
    endloop
  endfacet
  facet normal 1 0 0
    outer loop
      vertex 64 60 -5
      vertex 64 34 -1
      vertex 64 34 -5
    endloop
  endfacet
  facet normal 1 0 0
    outer loop
      vertex 64 30 -1
      vertex 64 24 -3.5
      vertex 64 30 -5
    endloop
  endfacet
  facet normal 1 -0 0
    outer loop
      vertex 64 16 -3.5
      vertex 64 30 -5
      vertex 64 24 -3.5
    endloop
  endfacet
  facet normal 1 0 0
    outer loop
      vertex 64 16 -3.5
      vertex 64 7 -5
      vertex 64 30 -5
    endloop
  endfacet
  facet normal 1 0 0
    outer loop
      vertex 64 7 -5
      vertex 64 16 -3.5
      vertex 64 7 -1
    endloop
  endfacet
  facet normal 1 0 0
    outer loop
      vertex 64 5 -5
      vertex 64 -4.75 -1
      vertex 64 -4.75 -5
    endloop
  endfacet
  facet normal 1 0 0
    outer loop
      vertex 64 -7.25 -1
      vertex 64 -16 -3.5
      vertex 64 -7.25 -5
    endloop
  endfacet
  facet normal 1 -0 0
    outer loop
      vertex 64 -24 -3.5
      vertex 64 -7.25 -5
      vertex 64 -16 -3.5
    endloop
  endfacet
  facet normal 1 0 0
    outer loop
      vertex 64 -24 -3.5
      vertex 64 -60 -5
      vertex 64 -7.25 -5
    endloop
  endfacet
  facet normal 1 0 0
    outer loop
      vertex 64 -24 -0.5
      vertex 64 -60 -5
      vertex 64 -24 -3.5
    endloop
  endfacet
  facet normal 0 0 -1
    outer loop
      vertex 64 -60 -5
      vertex 51 -18 -5
      vertex 64 -7.25 -5
    endloop
  endfacet
  facet normal 0 0 -1
    outer loop
      vertex 64 -60 -5
      vertex 25 -18 -5
      vertex 51 -18 -5
    endloop
  endfacet
  facet normal 0 0 -1
    outer loop
      vertex 25 -18 -5
      vertex -40 30 -5
      vertex 25 18 -5
    endloop
  endfacet
  facet normal 0 0 -1
    outer loop
      vertex -64 -60 -5
      vertex 25 -18 -5
      vertex 64 -60 -5
    endloop
  endfacet
  facet normal 0 0 -1
    outer loop
      vertex -57.4628 0.923454 -5
      vertex -40 30 -5
      vertex -57.4628 -0.923454 -5
    endloop
  endfacet
  facet normal 0 0 -1
    outer loop
      vertex 25 -18 -5
      vertex -57.4628 -0.923454 -5
      vertex -40 30 -5
    endloop
  endfacet
  facet normal 0 -0 -1
    outer loop
      vertex -58.65 -2.33827 -5
      vertex 25 -18 -5
      vertex -64 -60 -5
    endloop
  endfacet
  facet normal 0 0 -1
    outer loop
      vertex 25 -18 -5
      vertex -58.65 -2.33827 -5
      vertex -57.4628 -0.923454 -5
    endloop
  endfacet
  facet normal -0 0 -1
    outer loop
      vertex -62.0683 -1.73553 -5
      vertex -64 -60 -5
      vertex -62.7 0 -5
    endloop
  endfacet
  facet normal -0 0 -1
    outer loop
      vertex -60.4688 -2.65898 -5
      vertex -64 -60 -5
      vertex -62.0683 -1.73553 -5
    endloop
  endfacet
  facet normal 0 0 -1
    outer loop
      vertex -58.65 -2.33827 -5
      vertex -64 -60 -5
      vertex -60.4688 -2.65898 -5
    endloop
  endfacet
  facet normal -0 0 -1
    outer loop
      vertex 64 -7.25 -5
      vertex 51 -18 -5
      vertex 51 -7.25 -5
    endloop
  endfacet
  facet normal 0 0 -1
    outer loop
      vertex 51 18 -5
      vertex 64 7 -5
      vertex 51 7 -5
    endloop
  endfacet
  facet normal 0 0 -1
    outer loop
      vertex 64 7 -5
      vertex 51 18 -5
      vertex 64 30 -5
    endloop
  endfacet
  facet normal 0 0 -1
    outer loop
      vertex 25 18 -5
      vertex 64 30 -5
      vertex 51 18 -5
    endloop
  endfacet
  facet normal -0 0 -1
    outer loop
      vertex 64 30 -5
      vertex 25 18 -5
      vertex -40 30 -5
    endloop
  endfacet
  facet normal 0 0 -1
    outer loop
      vertex -40 34 -5
      vertex 64 60 -5
      vertex 64 34 -5
    endloop
  endfacet
  facet normal 0 0 -1
    outer loop
      vertex -58.65 2.33827 -5
      vertex -40 30 -5
      vertex -57.4628 0.923454 -5
    endloop
  endfacet
  facet normal 0 0 -1
    outer loop
      vertex -60.4688 2.65898 -5
      vertex -40 30 -5
      vertex -58.65 2.33827 -5
    endloop
  endfacet
  facet normal 0 0 -1
    outer loop
      vertex -64 60 -5
      vertex -40 30 -5
      vertex -60.4688 2.65898 -5
    endloop
  endfacet
  facet normal 0 0 -1
    outer loop
      vertex -64 60 -5
      vertex -60.4688 2.65898 -5
      vertex -62.0683 1.73553 -5
    endloop
  endfacet
  facet normal 0 0 -1
    outer loop
      vertex -40 34 -5
      vertex -64 60 -5
      vertex 64 60 -5
    endloop
  endfacet
  facet normal 0 0 -1
    outer loop
      vertex -40 30 -5
      vertex -64 60 -5
      vertex -40 34 -5
    endloop
  endfacet
  facet normal 0 0 -1
    outer loop
      vertex -62.7 0 -5
      vertex -64 60 -5
      vertex -62.0683 1.73553 -5
    endloop
  endfacet
  facet normal 0 0 -1
    outer loop
      vertex -64 60 -5
      vertex -62.7 0 -5
      vertex -64 -60 -5
    endloop
  endfacet
  facet normal 0 0 -1
    outer loop
      vertex 64 -4.75 -5
      vertex 62.7 0 -5
      vertex 64 5 -5
    endloop
  endfacet
  facet normal 0 0 -1
    outer loop
      vertex 64 -4.75 -5
      vertex 62.0683 -1.73553 -5
      vertex 62.7 0 -5
    endloop
  endfacet
  facet normal 0 0 -1
    outer loop
      vertex 64 -4.75 -5
      vertex 60.4688 -2.65898 -5
      vertex 62.0683 -1.73553 -5
    endloop
  endfacet
  facet normal 0 0 -1
    outer loop
      vertex 64 -4.75 -5
      vertex 58.65 -2.33827 -5
      vertex 60.4688 -2.65898 -5
    endloop
  endfacet
  facet normal -0 0 -1
    outer loop
      vertex 57.4628 -0.923454 -5
      vertex 51 -4.75 -5
      vertex 57.4628 0.923454 -5
    endloop
  endfacet
  facet normal -0 0 -1
    outer loop
      vertex 58.65 -2.33827 -5
      vertex 51 -4.75 -5
      vertex 57.4628 -0.923454 -5
    endloop
  endfacet
  facet normal 0 0 -1
    outer loop
      vertex 51 -4.75 -5
      vertex 58.65 -2.33827 -5
      vertex 64 -4.75 -5
    endloop
  endfacet
  facet normal 0 0 -1
    outer loop
      vertex 62.0683 1.73553 -5
      vertex 64 5 -5
      vertex 62.7 0 -5
    endloop
  endfacet
  facet normal 0 0 -1
    outer loop
      vertex 60.4688 2.65898 -5
      vertex 64 5 -5
      vertex 62.0683 1.73553 -5
    endloop
  endfacet
  facet normal 0 0 -1
    outer loop
      vertex 58.65 2.33827 -5
      vertex 64 5 -5
      vertex 60.4688 2.65898 -5
    endloop
  endfacet
  facet normal 0 0 -1
    outer loop
      vertex 51 5 -5
      vertex 57.4628 0.923454 -5
      vertex 51 -4.75 -5
    endloop
  endfacet
  facet normal 0 0 -1
    outer loop
      vertex 58.65 2.33827 -5
      vertex 51 5 -5
      vertex 64 5 -5
    endloop
  endfacet
  facet normal 0 0 -1
    outer loop
      vertex 57.4628 0.923454 -5
      vertex 51 5 -5
      vertex 58.65 2.33827 -5
    endloop
  endfacet
  facet normal 0 -1 0
    outer loop
      vertex -64 -60 -5
      vertex 64 -60 5
      vertex -64 -60 5
    endloop
  endfacet
  facet normal 0 -1 -0
    outer loop
      vertex 64 -60 5
      vertex -64 -60 -5
      vertex 64 -60 -5
    endloop
  endfacet
  facet normal 0 1 -0
    outer loop
      vertex 64 60 -5
      vertex -64 60 5
      vertex 64 60 5
    endloop
  endfacet
  facet normal 0 1 0
    outer loop
      vertex -64 60 5
      vertex 64 60 -5
      vertex -64 60 -5
    endloop
  endfacet
  facet normal 1 0 0
    outer loop
      vertex -50.5 52 3.5
      vertex -50.5 42 0.5
      vertex -50.5 52 -4
    endloop
  endfacet
  facet normal 1 0 0
    outer loop
      vertex -50.5 52 3.5
      vertex -50.5 40 0.5
      vertex -50.5 42 0.5
    endloop
  endfacet
  facet normal 1 0 0
    outer loop
      vertex -50.5 40 0.5
      vertex -50.5 12 0.5
      vertex -50.5 40 -4
    endloop
  endfacet
  facet normal 1 0 0
    outer loop
      vertex -50.5 52 3.5
      vertex -50.5 12 0.5
      vertex -50.5 40 0.5
    endloop
  endfacet
  facet normal 1 0 0
    outer loop
      vertex -50.5 52 3.5
      vertex -50.5 10 0.5
      vertex -50.5 12 0.5
    endloop
  endfacet
  facet normal 1 0 0
    outer loop
      vertex -50.5 10 0.5
      vertex -50.5 -38 0.5
      vertex -50.5 10 -4
    endloop
  endfacet
  facet normal 1 -0 0
    outer loop
      vertex -50.5 -52 3.5
      vertex -50.5 10 0.5
      vertex -50.5 52 3.5
    endloop
  endfacet
  facet normal 1 0 0
    outer loop
      vertex -50.5 10 0.5
      vertex -50.5 -52 3.5
      vertex -50.5 -38 0.5
    endloop
  endfacet
  facet normal 1 0 0
    outer loop
      vertex -50.5 -38 0.5
      vertex -50.5 -52 3.5
      vertex -50.5 -40 0.5
    endloop
  endfacet
  facet normal 1 0 0
    outer loop
      vertex -50.5 -52 -4
      vertex -50.5 -40 0.5
      vertex -50.5 -52 3.5
    endloop
  endfacet
  facet normal 1 0 0
    outer loop
      vertex -50.5 -40 0.5
      vertex -50.5 -52 -4
      vertex -50.5 -40 -4
    endloop
  endfacet
  facet normal 1 0 0
    outer loop
      vertex -50.5 52 -4
      vertex -50.5 42 0.5
      vertex -50.5 42 -4
    endloop
  endfacet
  facet normal 1 0 0
    outer loop
      vertex -50.5 40 -4
      vertex -50.5 12 0.5
      vertex -50.5 12 -4
    endloop
  endfacet
  facet normal 1 0 0
    outer loop
      vertex -50.5 10 -4
      vertex -50.5 -38 0.5
      vertex -50.5 -38 -4
    endloop
  endfacet
  facet normal 1 -0 0
    outer loop
      vertex -50.5 -40 0.5
      vertex -50.5 -38 -4
      vertex -50.5 -38 0.5
    endloop
  endfacet
  facet normal 1 0 0
    outer loop
      vertex -50.5 -38 -4
      vertex -50.5 -40 0.5
      vertex -50.5 -40 -4
    endloop
  endfacet
  facet normal 1 -0 0
    outer loop
      vertex -50.5 10 0.5
      vertex -50.5 12 -4
      vertex -50.5 12 0.5
    endloop
  endfacet
  facet normal 1 0 0
    outer loop
      vertex -50.5 12 -4
      vertex -50.5 10 0.5
      vertex -50.5 10 -4
    endloop
  endfacet
  facet normal 1 -0 0
    outer loop
      vertex -50.5 40 0.5
      vertex -50.5 42 -4
      vertex -50.5 42 0.5
    endloop
  endfacet
  facet normal 1 0 0
    outer loop
      vertex -50.5 42 -4
      vertex -50.5 40 0.5
      vertex -50.5 40 -4
    endloop
  endfacet
  facet normal -1 0 0
    outer loop
      vertex 50.5 -18 -4
      vertex 50.5 -52 -4
      vertex 50.5 -18 -1
    endloop
  endfacet
  facet normal -1 0 0
    outer loop
      vertex 50.5 30 -4
      vertex 50.5 18 -4
      vertex 50.5 30 -1
    endloop
  endfacet
  facet normal -1 0 0
    outer loop
      vertex 50.5 34 -1
      vertex 50.5 52 -4
      vertex 50.5 34 -4
    endloop
  endfacet
  facet normal -1 0 0
    outer loop
      vertex 50.5 52 -4
      vertex 50.5 34 -1
      vertex 50.5 52 3.5
    endloop
  endfacet
  facet normal -1 0 0
    outer loop
      vertex 50.5 30 -1
      vertex 50.5 52 3.5
      vertex 50.5 34 -1
    endloop
  endfacet
  facet normal -1 0 0
    outer loop
      vertex 50.5 18 -1
      vertex 50.5 30 -1
      vertex 50.5 18 -4
    endloop
  endfacet
  facet normal -1 0 0
    outer loop
      vertex 50.5 18 -1
      vertex 50.5 52 3.5
      vertex 50.5 30 -1
    endloop
  endfacet
  facet normal -1 0 0
    outer loop
      vertex 50.5 -18 -1
      vertex 50.5 52 3.5
      vertex 50.5 18 -1
    endloop
  endfacet
  facet normal -1 0 0
    outer loop
      vertex 50.5 -18 -1
      vertex 50.5 -52 3.5
      vertex 50.5 52 3.5
    endloop
  endfacet
  facet normal -1 0 0
    outer loop
      vertex 50.5 -52 3.5
      vertex 50.5 -18 -1
      vertex 50.5 -52 -4
    endloop
  endfacet
  facet normal -0 0 1
    outer loop
      vertex -50.5 52 -4
      vertex -30 50.48 -4
      vertex -30 52 -4
    endloop
  endfacet
  facet normal 0 0 1
    outer loop
      vertex -30 50.48 -4
      vertex -50.5 42 -4
      vertex -40 34 -4
    endloop
  endfacet
  facet normal 0 0 1
    outer loop
      vertex -30 50.48 -4
      vertex -50.5 52 -4
      vertex -50.5 42 -4
    endloop
  endfacet
  facet normal 0 0 1
    outer loop
      vertex -10 52 -4
      vertex -28 52 -4
      vertex -10 50.5 -4
    endloop
  endfacet
  facet normal 0 0 1
    outer loop
      vertex 50.5 30 -4
      vertex 25 18 -4
      vertex 50.5 18 -4
    endloop
  endfacet
  facet normal -0 0 1
    outer loop
      vertex -50.5 10 -4
      vertex 25 -18 -4
      vertex 25 18 -4
    endloop
  endfacet
  facet normal 0 0 1
    outer loop
      vertex 25 -18 -4
      vertex -50.5 10 -4
      vertex -28 -50.5 -4
    endloop
  endfacet
  facet normal -0 0 1
    outer loop
      vertex -40 30 -4
      vertex 25 18 -4
      vertex 50.5 30 -4
    endloop
  endfacet
  facet normal 0 0 1
    outer loop
      vertex -50.5 10 -4
      vertex 25 18 -4
      vertex -40 30 -4
    endloop
  endfacet
  facet normal -0 0 1
    outer loop
      vertex -50.5 -38 -4
      vertex -28 -50.5 -4
      vertex -50.5 10 -4
    endloop
  endfacet
  facet normal -0 0 1
    outer loop
      vertex -50.5 40 -4
      vertex -40 34 -4
      vertex -50.5 42 -4
    endloop
  endfacet
  facet normal 0 0 1
    outer loop
      vertex -40 34 -4
      vertex -50.5 40 -4
      vertex -40 30 -4
    endloop
  endfacet
  facet normal 0 0 1
    outer loop
      vertex -50.5 12 -4
      vertex -40 30 -4
      vertex -50.5 40 -4
    endloop
  endfacet
  facet normal 0 0 1
    outer loop
      vertex -50.5 10 -4
      vertex -40 30 -4
      vertex -50.5 12 -4
    endloop
  endfacet
  facet normal 0 0 1
    outer loop
      vertex -28 -50.5 -4
      vertex -50.5 -38 -4
      vertex -30 -50.5 -4
    endloop
  endfacet
  facet normal -0 0 1
    outer loop
      vertex -50.5 -40 -4
      vertex -30 -50.5 -4
      vertex -50.5 -38 -4
    endloop
  endfacet
  facet normal 0 0 1
    outer loop
      vertex -50.5 -52 -4
      vertex -30 -50.5 -4
      vertex -50.5 -40 -4
    endloop
  endfacet
  facet normal 0 0 1
    outer loop
      vertex -30 -50.5 -4
      vertex -50.5 -52 -4
      vertex -30 -52 -4
    endloop
  endfacet
  facet normal 0 0 1
    outer loop
      vertex 50.5 -18 -4
      vertex 32 -50.5 -4
      vertex 50.5 -52 -4
    endloop
  endfacet
  facet normal -0 0 1
    outer loop
      vertex 25 -18 -4
      vertex 32 -50.5 -4
      vertex 50.5 -18 -4
    endloop
  endfacet
  facet normal 0 0 1
    outer loop
      vertex 32 -50.5 -4
      vertex 25 -18 -4
      vertex 30 -50.5 -4
    endloop
  endfacet
  facet normal 0 0 1
    outer loop
      vertex -28 -50.5 -4
      vertex 30 -50.5 -4
      vertex 25 -18 -4
    endloop
  endfacet
  facet normal 0 0 1
    outer loop
      vertex 30 -50.5 -4
      vertex -28 -50.5 -4
      vertex 30 -52 -4
    endloop
  endfacet
  facet normal 0 0 1
    outer loop
      vertex 30 -52 -4
      vertex -28 -50.5 -4
      vertex -28 -52 -4
    endloop
  endfacet
  facet normal 0 0 1
    outer loop
      vertex 50.5 -52 -4
      vertex 32 -50.5 -4
      vertex 32 -52 -4
    endloop
  endfacet
  facet normal 0 0 1
    outer loop
      vertex 32 50.48 -4
      vertex 50.5 52 -4
      vertex 32 51.98 -4
    endloop
  endfacet
  facet normal 0 0 1
    outer loop
      vertex 50.5 52 -4
      vertex 30 51.98 -4
      vertex 32 51.98 -4
    endloop
  endfacet
  facet normal 0 0 1
    outer loop
      vertex 30 51.98 -4
      vertex -8 52 -4
      vertex 30 50.48 -4
    endloop
  endfacet
  facet normal -0 0 1
    outer loop
      vertex -8 52 -4
      vertex 30 51.98 -4
      vertex 50.5 52 -4
    endloop
  endfacet
  facet normal 0 0 1
    outer loop
      vertex 50.5 52 -4
      vertex 32 50.48 -4
      vertex 50.5 34 -4
    endloop
  endfacet
  facet normal -0 0 1
    outer loop
      vertex 30 50.48 -4
      vertex 50.5 34 -4
      vertex 32 50.48 -4
    endloop
  endfacet
  facet normal -0 0 1
    outer loop
      vertex -8 50.5 -4
      vertex 30 50.48 -4
      vertex -8 52 -4
    endloop
  endfacet
  facet normal 0 0 1
    outer loop
      vertex 30 50.48 -4
      vertex -8 50.5 -4
      vertex 50.5 34 -4
    endloop
  endfacet
  facet normal 0 0 1
    outer loop
      vertex -40 34 -4
      vertex -8 50.5 -4
      vertex -10 50.5 -4
    endloop
  endfacet
  facet normal 0 0 1
    outer loop
      vertex -28 50.48 -4
      vertex -10 50.5 -4
      vertex -28 52 -4
    endloop
  endfacet
  facet normal 0 0 1
    outer loop
      vertex -40 34 -4
      vertex -10 50.5 -4
      vertex -28 50.48 -4
    endloop
  endfacet
  facet normal 0 0 1
    outer loop
      vertex -40 34 -4
      vertex -28 50.48 -4
      vertex -30 50.48 -4
    endloop
  endfacet
  facet normal 0 0 1
    outer loop
      vertex -8 50.5 -4
      vertex -40 34 -4
      vertex 50.5 34 -4
    endloop
  endfacet
  facet normal 0 1 -0
    outer loop
      vertex 30 -52 -4
      vertex -28 -52 0.5
      vertex 30 -52 0.5
    endloop
  endfacet
  facet normal 0 1 0
    outer loop
      vertex -28 -52 0.5
      vertex 30 -52 -4
      vertex -28 -52 -4
    endloop
  endfacet
  facet normal 0 1 0
    outer loop
      vertex 30 -52 0.5
      vertex 50.5 -52 3.5
      vertex 32 -52 0.5
    endloop
  endfacet
  facet normal 0 1 -0
    outer loop
      vertex 50.5 -52 -4
      vertex 32 -52 0.5
      vertex 50.5 -52 3.5
    endloop
  endfacet
  facet normal 0 1 0
    outer loop
      vertex 32 -52 0.5
      vertex 50.5 -52 -4
      vertex 32 -52 -4
    endloop
  endfacet
  facet normal 0 1 0
    outer loop
      vertex -28 -52 0.5
      vertex 50.5 -52 3.5
      vertex 30 -52 0.5
    endloop
  endfacet
  facet normal 0 1 0
    outer loop
      vertex 50.5 -52 3.5
      vertex -28 -52 0.5
      vertex -50.5 -52 3.5
    endloop
  endfacet
  facet normal 0 1 -0
    outer loop
      vertex -30 -52 0.5
      vertex -50.5 -52 3.5
      vertex -28 -52 0.5
    endloop
  endfacet
  facet normal 0 1 0
    outer loop
      vertex -50.5 -52 -4
      vertex -30 -52 0.5
      vertex -30 -52 -4
    endloop
  endfacet
  facet normal 0 1 0
    outer loop
      vertex -30 -52 0.5
      vertex -50.5 -52 -4
      vertex -50.5 -52 3.5
    endloop
  endfacet
  facet normal 0 -1 0
    outer loop
      vertex -28 52 -4
      vertex -10 52 0.5
      vertex -28 52 0.5
    endloop
  endfacet
  facet normal 0 -1 -0
    outer loop
      vertex -10 52 0.5
      vertex -28 52 -4
      vertex -10 52 -4
    endloop
  endfacet
  facet normal 0 -1 0
    outer loop
      vertex -28 52 0.5
      vertex -50.5 52 3.5
      vertex -30 52 0.5
    endloop
  endfacet
  facet normal 0 -1 0
    outer loop
      vertex -50.5 52 -4
      vertex -30 52 0.5
      vertex -50.5 52 3.5
    endloop
  endfacet
  facet normal 0 -1 -0
    outer loop
      vertex -30 52 0.5
      vertex -50.5 52 -4
      vertex -30 52 -4
    endloop
  endfacet
  facet normal 0 -1 0
    outer loop
      vertex -10 52 0.5
      vertex -50.5 52 3.5
      vertex -28 52 0.5
    endloop
  endfacet
  facet normal 0 -1 0
    outer loop
      vertex -8 52 0.5
      vertex -50.5 52 3.5
      vertex -10 52 0.5
    endloop
  endfacet
  facet normal 0 -1 0
    outer loop
      vertex -50.5 52 3.5
      vertex -8 52 0.5
      vertex 50.5 52 3.5
    endloop
  endfacet
  facet normal 0 -1 0
    outer loop
      vertex 50.5 52 -4
      vertex -8 52 0.5
      vertex -8 52 -4
    endloop
  endfacet
  facet normal 0 -1 0
    outer loop
      vertex -8 52 0.5
      vertex 50.5 52 -4
      vertex 50.5 52 3.5
    endloop
  endfacet
  facet normal 1 -0 0
    outer loop
      vertex -58 -59.5 5
      vertex -58 59.5 3.5
      vertex -58 59.5 5
    endloop
  endfacet
  facet normal 1 0 0
    outer loop
      vertex -58 59.5 3.5
      vertex -58 -59.5 5
      vertex -58 -59.5 3.5
    endloop
  endfacet
  facet normal -1 0 0
    outer loop
      vertex 58 -59.5 3.5
      vertex 58 59.5 5
      vertex 58 59.5 3.5
    endloop
  endfacet
  facet normal -1 -0 0
    outer loop
      vertex 58 59.5 5
      vertex 58 -59.5 3.5
      vertex 58 -59.5 5
    endloop
  endfacet
  facet normal 0 0 1
    outer loop
      vertex 58 59.5 3.5
      vertex 50.5 52 3.5
      vertex 58 -59.5 3.5
    endloop
  endfacet
  facet normal 0 0 1
    outer loop
      vertex 58 59.5 3.5
      vertex -50.5 52 3.5
      vertex 50.5 52 3.5
    endloop
  endfacet
  facet normal 0 0 1
    outer loop
      vertex -50.5 52 3.5
      vertex -58 59.5 3.5
      vertex -50.5 -52 3.5
    endloop
  endfacet
  facet normal -0 0 1
    outer loop
      vertex -58 59.5 3.5
      vertex -50.5 52 3.5
      vertex 58 59.5 3.5
    endloop
  endfacet
  facet normal -0 0 1
    outer loop
      vertex 50.5 -52 3.5
      vertex 58 -59.5 3.5
      vertex 50.5 52 3.5
    endloop
  endfacet
  facet normal -0 0 1
    outer loop
      vertex -50.5 -52 3.5
      vertex 58 -59.5 3.5
      vertex 50.5 -52 3.5
    endloop
  endfacet
  facet normal 0 0 1
    outer loop
      vertex -50.5 -52 3.5
      vertex -58 -59.5 3.5
      vertex 58 -59.5 3.5
    endloop
  endfacet
  facet normal 0 0 1
    outer loop
      vertex -58 -59.5 3.5
      vertex -50.5 -52 3.5
      vertex -58 59.5 3.5
    endloop
  endfacet
  facet normal 0 1 -0
    outer loop
      vertex 58 -59.5 3.5
      vertex -58 -59.5 5
      vertex 58 -59.5 5
    endloop
  endfacet
  facet normal 0 1 0
    outer loop
      vertex -58 -59.5 5
      vertex 58 -59.5 3.5
      vertex -58 -59.5 3.5
    endloop
  endfacet
  facet normal 0 -1 0
    outer loop
      vertex -58 59.5 3.5
      vertex 58 59.5 5
      vertex -58 59.5 5
    endloop
  endfacet
  facet normal 0 -1 -0
    outer loop
      vertex 58 59.5 5
      vertex -58 59.5 3.5
      vertex 58 59.5 3.5
    endloop
  endfacet
  facet normal 1 -0 0
    outer loop
      vertex 56 16 -0.5
      vertex 56 24 -3.5
      vertex 56 24 -0.5
    endloop
  endfacet
  facet normal 1 0 0
    outer loop
      vertex 56 24 -3.5
      vertex 56 16 -0.5
      vertex 56 16 -3.5
    endloop
  endfacet
  facet normal 0 0 -1
    outer loop
      vertex 56 16 -0.5
      vertex 64 24 -0.5
      vertex 64 16 -0.5
    endloop
  endfacet
  facet normal -0 0 -1
    outer loop
      vertex 64 24 -0.5
      vertex 56 16 -0.5
      vertex 56 24 -0.5
    endloop
  endfacet
  facet normal -0 0 1
    outer loop
      vertex 56 24 -3.5
      vertex 64 16 -3.5
      vertex 64 24 -3.5
    endloop
  endfacet
  facet normal 0 0 1
    outer loop
      vertex 64 16 -3.5
      vertex 56 24 -3.5
      vertex 56 16 -3.5
    endloop
  endfacet
  facet normal 0 1 -0
    outer loop
      vertex 64 16 -3.5
      vertex 56 16 -0.5
      vertex 64 16 -0.5
    endloop
  endfacet
  facet normal 0 1 0
    outer loop
      vertex 56 16 -0.5
      vertex 64 16 -3.5
      vertex 56 16 -3.5
    endloop
  endfacet
  facet normal 0 -1 0
    outer loop
      vertex 56 24 -3.5
      vertex 64 24 -0.5
      vertex 56 24 -0.5
    endloop
  endfacet
  facet normal 0 -1 -0
    outer loop
      vertex 64 24 -0.5
      vertex 56 24 -3.5
      vertex 64 24 -3.5
    endloop
  endfacet
  facet normal 1 -0 0
    outer loop
      vertex 56 -24 -0.5
      vertex 56 -16 -3.5
      vertex 56 -16 -0.5
    endloop
  endfacet
  facet normal 1 0 0
    outer loop
      vertex 56 -16 -3.5
      vertex 56 -24 -0.5
      vertex 56 -24 -3.5
    endloop
  endfacet
  facet normal 0 0 -1
    outer loop
      vertex 56 -24 -0.5
      vertex 64 -16 -0.5
      vertex 64 -24 -0.5
    endloop
  endfacet
  facet normal -0 0 -1
    outer loop
      vertex 64 -16 -0.5
      vertex 56 -24 -0.5
      vertex 56 -16 -0.5
    endloop
  endfacet
  facet normal 0 -1 0
    outer loop
      vertex 56 -16 -3.5
      vertex 64 -16 -0.5
      vertex 56 -16 -0.5
    endloop
  endfacet
  facet normal 0 -1 -0
    outer loop
      vertex 64 -16 -0.5
      vertex 56 -16 -3.5
      vertex 64 -16 -3.5
    endloop
  endfacet
  facet normal -0 0 1
    outer loop
      vertex 56 -16 -3.5
      vertex 64 -24 -3.5
      vertex 64 -16 -3.5
    endloop
  endfacet
  facet normal 0 0 1
    outer loop
      vertex 64 -24 -3.5
      vertex 56 -16 -3.5
      vertex 56 -24 -3.5
    endloop
  endfacet
  facet normal 0 1 -0
    outer loop
      vertex 64 -24 -3.5
      vertex 56 -24 -0.5
      vertex 64 -24 -0.5
    endloop
  endfacet
  facet normal 0 1 0
    outer loop
      vertex 56 -24 -0.5
      vertex 64 -24 -3.5
      vertex 56 -24 -3.5
    endloop
  endfacet
  facet normal 0 0 -1
    outer loop
      vertex -64 16 -0.5
      vertex -56 24 -0.5
      vertex -56 16 -0.5
    endloop
  endfacet
  facet normal -0 0 -1
    outer loop
      vertex -56 24 -0.5
      vertex -64 16 -0.5
      vertex -64 24 -0.5
    endloop
  endfacet
  facet normal -1 0 0
    outer loop
      vertex -56 16 -3.5
      vertex -56 24 -0.5
      vertex -56 24 -3.5
    endloop
  endfacet
  facet normal -1 -0 0
    outer loop
      vertex -56 24 -0.5
      vertex -56 16 -3.5
      vertex -56 16 -0.5
    endloop
  endfacet
  facet normal 0 -1 0
    outer loop
      vertex -64 24 -3.5
      vertex -56 24 -0.5
      vertex -64 24 -0.5
    endloop
  endfacet
  facet normal 0 -1 -0
    outer loop
      vertex -56 24 -0.5
      vertex -64 24 -3.5
      vertex -56 24 -3.5
    endloop
  endfacet
  facet normal -0 0 1
    outer loop
      vertex -64 24 -3.5
      vertex -56 16 -3.5
      vertex -56 24 -3.5
    endloop
  endfacet
  facet normal 0 0 1
    outer loop
      vertex -56 16 -3.5
      vertex -64 24 -3.5
      vertex -64 16 -3.5
    endloop
  endfacet
  facet normal 0 1 -0
    outer loop
      vertex -56 16 -3.5
      vertex -64 16 -0.5
      vertex -56 16 -0.5
    endloop
  endfacet
  facet normal 0 1 0
    outer loop
      vertex -64 16 -0.5
      vertex -56 16 -3.5
      vertex -64 16 -3.5
    endloop
  endfacet
  facet normal 0 0 -1
    outer loop
      vertex -64 -24 -0.5
      vertex -56 -16 -0.5
      vertex -56 -24 -0.5
    endloop
  endfacet
  facet normal -0 0 -1
    outer loop
      vertex -56 -16 -0.5
      vertex -64 -24 -0.5
      vertex -64 -16 -0.5
    endloop
  endfacet
  facet normal -1 0 0
    outer loop
      vertex -56 -24 -3.5
      vertex -56 -16 -0.5
      vertex -56 -16 -3.5
    endloop
  endfacet
  facet normal -1 -0 0
    outer loop
      vertex -56 -16 -0.5
      vertex -56 -24 -3.5
      vertex -56 -24 -0.5
    endloop
  endfacet
  facet normal -0 0 1
    outer loop
      vertex -64 -16 -3.5
      vertex -56 -24 -3.5
      vertex -56 -16 -3.5
    endloop
  endfacet
  facet normal 0 0 1
    outer loop
      vertex -56 -24 -3.5
      vertex -64 -16 -3.5
      vertex -64 -24 -3.5
    endloop
  endfacet
  facet normal 0 1 -0
    outer loop
      vertex -56 -24 -3.5
      vertex -64 -24 -0.5
      vertex -56 -24 -0.5
    endloop
  endfacet
  facet normal 0 1 0
    outer loop
      vertex -64 -24 -0.5
      vertex -56 -24 -3.5
      vertex -64 -24 -3.5
    endloop
  endfacet
  facet normal 0 -1 0
    outer loop
      vertex -64 -16 -3.5
      vertex -56 -16 -0.5
      vertex -64 -16 -0.5
    endloop
  endfacet
  facet normal 0 -1 -0
    outer loop
      vertex -56 -16 -0.5
      vertex -64 -16 -3.5
      vertex -56 -16 -3.5
    endloop
  endfacet
  facet normal -0.896728 -0.326392 -0.298909
    outer loop
      vertex 62.0683 1.73553 -5
      vertex 62.7 0 -5
      vertex 61.7 0 -2
    endloop
  endfacet
  facet normal 0.731012 0.613412 -0.298911
    outer loop
      vertex 58.4025 -0.581433 -2
      vertex 59.15 -1.47224 -2
      vertex 57.4628 -0.923454 -5
    endloop
  endfacet
  facet normal -0.47713 0.826441 -0.298903
    outer loop
      vertex 61.3023 -1.09274 -2
      vertex 62.0683 -1.73553 -5
      vertex 60.2952 -1.67417 -2
    endloop
  endfacet
  facet normal 0.165709 -0.939783 -0.298912
    outer loop
      vertex 60.2952 1.67417 -2
      vertex 59.15 1.47224 -2
      vertex 58.65 2.33827 -5
    endloop
  endfacet
  facet normal -0.47713 -0.826441 -0.298903
    outer loop
      vertex 62.0683 1.73553 -5
      vertex 61.3023 1.09274 -2
      vertex 60.2952 1.67417 -2
    endloop
  endfacet
  facet normal 0.165712 0.939782 -0.298913
    outer loop
      vertex 60.2952 -1.67417 -2
      vertex 60.4688 -2.65898 -5
      vertex 58.65 -2.33827 -5
    endloop
  endfacet
  facet normal -0.896728 0.326392 -0.298909
    outer loop
      vertex 62.7 0 -5
      vertex 62.0683 -1.73553 -5
      vertex 61.7 0 -2
    endloop
  endfacet
  facet normal 0.731014 -0.613408 -0.298912
    outer loop
      vertex 58.65 2.33827 -5
      vertex 59.15 1.47224 -2
      vertex 57.4628 0.923454 -5
    endloop
  endfacet
  facet normal 0.165712 -0.939782 -0.298913
    outer loop
      vertex 60.4688 2.65898 -5
      vertex 60.2952 1.67417 -2
      vertex 58.65 2.33827 -5
    endloop
  endfacet
  facet normal -0.477133 -0.826438 -0.298905
    outer loop
      vertex 60.4688 2.65898 -5
      vertex 62.0683 1.73553 -5
      vertex 60.2952 1.67417 -2
    endloop
  endfacet
  facet normal -0.896742 -0.326367 -0.298896
    outer loop
      vertex 62.0683 1.73553 -5
      vertex 61.7 0 -2
      vertex 61.3023 1.09274 -2
    endloop
  endfacet
  facet normal 0.731012 -0.613412 -0.298911
    outer loop
      vertex 59.15 1.47224 -2
      vertex 58.4025 0.581433 -2
      vertex 57.4628 0.923454 -5
    endloop
  endfacet
  facet normal 0.954281 0 -0.298912
    outer loop
      vertex 58.4025 -0.581433 -2
      vertex 57.4628 0.923454 -5
      vertex 58.4025 0.581433 -2
    endloop
  endfacet
  facet normal 0.954281 0 -0.298912
    outer loop
      vertex 57.4628 0.923454 -5
      vertex 58.4025 -0.581433 -2
      vertex 57.4628 -0.923454 -5
    endloop
  endfacet
  facet normal -0.477133 0.826438 -0.298905
    outer loop
      vertex 62.0683 -1.73553 -5
      vertex 60.4688 -2.65898 -5
      vertex 60.2952 -1.67417 -2
    endloop
  endfacet
  facet normal 0.731014 0.613408 -0.298912
    outer loop
      vertex 59.15 -1.47224 -2
      vertex 58.65 -2.33827 -5
      vertex 57.4628 -0.923454 -5
    endloop
  endfacet
  facet normal 0.165709 0.939783 -0.298912
    outer loop
      vertex 59.15 -1.47224 -2
      vertex 60.2952 -1.67417 -2
      vertex 58.65 -2.33827 -5
    endloop
  endfacet
  facet normal 0 0 -1
    outer loop
      vertex 61.3023 -1.09274 -2
      vertex 61.3023 1.09274 -2
      vertex 61.7 0 -2
    endloop
  endfacet
  facet normal 0 0 -1
    outer loop
      vertex 60.2952 -1.67417 -2
      vertex 61.3023 1.09274 -2
      vertex 61.3023 -1.09274 -2
    endloop
  endfacet
  facet normal 0 0 -1
    outer loop
      vertex 60.2952 -1.67417 -2
      vertex 60.2952 1.67417 -2
      vertex 61.3023 1.09274 -2
    endloop
  endfacet
  facet normal 0 0 -1
    outer loop
      vertex 59.15 -1.47224 -2
      vertex 60.2952 1.67417 -2
      vertex 60.2952 -1.67417 -2
    endloop
  endfacet
  facet normal 0 0 -1
    outer loop
      vertex 59.15 -1.47224 -2
      vertex 59.15 1.47224 -2
      vertex 60.2952 1.67417 -2
    endloop
  endfacet
  facet normal 0 0 -1
    outer loop
      vertex 58.4025 -0.581433 -2
      vertex 59.15 1.47224 -2
      vertex 59.15 -1.47224 -2
    endloop
  endfacet
  facet normal 0 0 -1
    outer loop
      vertex 59.15 1.47224 -2
      vertex 58.4025 -0.581433 -2
      vertex 58.4025 0.581433 -2
    endloop
  endfacet
  facet normal -0.896742 0.326367 -0.298896
    outer loop
      vertex 61.7 0 -2
      vertex 62.0683 -1.73553 -5
      vertex 61.3023 -1.09274 -2
    endloop
  endfacet
  facet normal 0.896728 -0.326392 -0.298909
    outer loop
      vertex -62.0683 1.73553 -5
      vertex -61.7 0 -2
      vertex -62.7 0 -5
    endloop
  endfacet
  facet normal 0.896742 0.326367 -0.298896
    outer loop
      vertex -61.7 0 -2
      vertex -61.3023 -1.09274 -2
      vertex -62.0683 -1.73553 -5
    endloop
  endfacet
  facet normal -0.731014 0.613408 -0.298912
    outer loop
      vertex -57.4628 -0.923454 -5
      vertex -58.65 -2.33827 -5
      vertex -59.15 -1.47224 -2
    endloop
  endfacet
  facet normal -0.165709 -0.939783 -0.298912
    outer loop
      vertex -58.65 2.33827 -5
      vertex -59.15 1.47224 -2
      vertex -60.2952 1.67417 -2
    endloop
  endfacet
  facet normal 0.477133 0.826438 -0.298905
    outer loop
      vertex -60.2952 -1.67417 -2
      vertex -60.4688 -2.65898 -5
      vertex -62.0683 -1.73553 -5
    endloop
  endfacet
  facet normal 0.896728 0.326392 -0.298909
    outer loop
      vertex -61.7 0 -2
      vertex -62.0683 -1.73553 -5
      vertex -62.7 0 -5
    endloop
  endfacet
  facet normal -0.731014 -0.613408 -0.298912
    outer loop
      vertex -58.65 2.33827 -5
      vertex -57.4628 0.923454 -5
      vertex -59.15 1.47224 -2
    endloop
  endfacet
  facet normal 0.477133 -0.826438 -0.298905
    outer loop
      vertex -60.4688 2.65898 -5
      vertex -60.2952 1.67417 -2
      vertex -62.0683 1.73553 -5
    endloop
  endfacet
  facet normal 0 0 -1
    outer loop
      vertex -59.15 -1.47224 -2
      vertex -58.4025 0.581433 -2
      vertex -58.4025 -0.581433 -2
    endloop
  endfacet
  facet normal 0 0 -1
    outer loop
      vertex -59.15 -1.47224 -2
      vertex -59.15 1.47224 -2
      vertex -58.4025 0.581433 -2
    endloop
  endfacet
  facet normal 0 0 -1
    outer loop
      vertex -60.2952 -1.67417 -2
      vertex -59.15 1.47224 -2
      vertex -59.15 -1.47224 -2
    endloop
  endfacet
  facet normal 0 0 -1
    outer loop
      vertex -60.2952 -1.67417 -2
      vertex -60.2952 1.67417 -2
      vertex -59.15 1.47224 -2
    endloop
  endfacet
  facet normal 0 0 -1
    outer loop
      vertex -61.3023 -1.09274 -2
      vertex -60.2952 1.67417 -2
      vertex -60.2952 -1.67417 -2
    endloop
  endfacet
  facet normal 0 0 -1
    outer loop
      vertex -61.3023 -1.09274 -2
      vertex -61.3023 1.09274 -2
      vertex -60.2952 1.67417 -2
    endloop
  endfacet
  facet normal 0 -0 -1
    outer loop
      vertex -61.3023 1.09274 -2
      vertex -61.3023 -1.09274 -2
      vertex -61.7 0 -2
    endloop
  endfacet
  facet normal -0.165709 0.939783 -0.298912
    outer loop
      vertex -59.15 -1.47224 -2
      vertex -58.65 -2.33827 -5
      vertex -60.2952 -1.67417 -2
    endloop
  endfacet
  facet normal -0.165712 0.939782 -0.298913
    outer loop
      vertex -60.2952 -1.67417 -2
      vertex -58.65 -2.33827 -5
      vertex -60.4688 -2.65898 -5
    endloop
  endfacet
  facet normal -0.954281 0 -0.298912
    outer loop
      vertex -57.4628 0.923454 -5
      vertex -58.4025 -0.581433 -2
      vertex -58.4025 0.581433 -2
    endloop
  endfacet
  facet normal -0.954281 0 -0.298912
    outer loop
      vertex -58.4025 -0.581433 -2
      vertex -57.4628 0.923454 -5
      vertex -57.4628 -0.923454 -5
    endloop
  endfacet
  facet normal -0.165712 -0.939782 -0.298913
    outer loop
      vertex -58.65 2.33827 -5
      vertex -60.2952 1.67417 -2
      vertex -60.4688 2.65898 -5
    endloop
  endfacet
  facet normal 0.47713 -0.826441 -0.298903
    outer loop
      vertex -60.2952 1.67417 -2
      vertex -61.3023 1.09274 -2
      vertex -62.0683 1.73553 -5
    endloop
  endfacet
  facet normal 0.896742 -0.326367 -0.298896
    outer loop
      vertex -61.3023 1.09274 -2
      vertex -61.7 0 -2
      vertex -62.0683 1.73553 -5
    endloop
  endfacet
  facet normal 0.47713 0.826441 -0.298903
    outer loop
      vertex -61.3023 -1.09274 -2
      vertex -60.2952 -1.67417 -2
      vertex -62.0683 -1.73553 -5
    endloop
  endfacet
  facet normal -0.731012 -0.613412 -0.298911
    outer loop
      vertex -57.4628 0.923454 -5
      vertex -58.4025 0.581433 -2
      vertex -59.15 1.47224 -2
    endloop
  endfacet
  facet normal -0.731012 0.613412 -0.298911
    outer loop
      vertex -58.4025 -0.581433 -2
      vertex -57.4628 -0.923454 -5
      vertex -59.15 -1.47224 -2
    endloop
  endfacet
  facet normal 1 -0 0
    outer loop
      vertex 25 -18 -4
      vertex 25 18 -5
      vertex 25 18 -4
    endloop
  endfacet
  facet normal 1 0 0
    outer loop
      vertex 25 18 -5
      vertex 25 -18 -4
      vertex 25 -18 -5
    endloop
  endfacet
  facet normal 0 0 -1
    outer loop
      vertex 50.5 -18 -1
      vertex 51 -7.25 -1
      vertex 51 -18 -1
    endloop
  endfacet
  facet normal -0 0 -1
    outer loop
      vertex 51 -7.25 -1
      vertex 50.5 -18 -1
      vertex 51 -4.75 -1
    endloop
  endfacet
  facet normal -0 0 -1
    outer loop
      vertex 51 -4.75 -1
      vertex 50.5 -18 -1
      vertex 51 5 -1
    endloop
  endfacet
  facet normal 0 0 -1
    outer loop
      vertex 50.5 18 -1
      vertex 51 5 -1
      vertex 50.5 -18 -1
    endloop
  endfacet
  facet normal 0 0 -1
    outer loop
      vertex 51 5 -1
      vertex 50.5 18 -1
      vertex 51 7 -1
    endloop
  endfacet
  facet normal 0 0 -1
    outer loop
      vertex 51 7 -1
      vertex 50.5 18 -1
      vertex 51 18 -1
    endloop
  endfacet
  facet normal 0 0 -1
    outer loop
      vertex 51 -7.25 -1
      vertex 64 -4.75 -1
      vertex 64 -7.25 -1
    endloop
  endfacet
  facet normal -0 0 -1
    outer loop
      vertex 64 -4.75 -1
      vertex 51 -7.25 -1
      vertex 51 -4.75 -1
    endloop
  endfacet
  facet normal 0 0 -1
    outer loop
      vertex 51 5 -1
      vertex 64 7 -1
      vertex 64 5 -1
    endloop
  endfacet
  facet normal -0 0 -1
    outer loop
      vertex 64 7 -1
      vertex 51 5 -1
      vertex 51 7 -1
    endloop
  endfacet
  facet normal -1 0 0
    outer loop
      vertex 51 -18 -5
      vertex 51 -7.25 -1
      vertex 51 -7.25 -5
    endloop
  endfacet
  facet normal -1 -0 0
    outer loop
      vertex 51 -7.25 -1
      vertex 51 -18 -5
      vertex 51 -18 -1
    endloop
  endfacet
  facet normal -1 0 0
    outer loop
      vertex 51 7 -5
      vertex 51 18 -1
      vertex 51 18 -5
    endloop
  endfacet
  facet normal -1 -0 0
    outer loop
      vertex 51 18 -1
      vertex 51 7 -5
      vertex 51 7 -1
    endloop
  endfacet
  facet normal -1 0 0
    outer loop
      vertex 51 -4.75 -5
      vertex 51 5 -1
      vertex 51 5 -5
    endloop
  endfacet
  facet normal -1 -0 0
    outer loop
      vertex 51 5 -1
      vertex 51 -4.75 -5
      vertex 51 -4.75 -1
    endloop
  endfacet
  facet normal 0 1 0
    outer loop
      vertex 51 -18 -1
      vertex 50.5 -18 -4
      vertex 50.5 -18 -1
    endloop
  endfacet
  facet normal 0 1 -0
    outer loop
      vertex 51 -18 -5
      vertex 50.5 -18 -4
      vertex 51 -18 -1
    endloop
  endfacet
  facet normal 0 1 0
    outer loop
      vertex 25 -18 -5
      vertex 50.5 -18 -4
      vertex 51 -18 -5
    endloop
  endfacet
  facet normal 0 1 0
    outer loop
      vertex 50.5 -18 -4
      vertex 25 -18 -5
      vertex 25 -18 -4
    endloop
  endfacet
  facet normal 0 -1 0
    outer loop
      vertex 25 18 -4
      vertex 25 18 -5
      vertex 50.5 18 -4
    endloop
  endfacet
  facet normal 0 -1 0
    outer loop
      vertex 50.5 18 -4
      vertex 51 18 -1
      vertex 50.5 18 -1
    endloop
  endfacet
  facet normal 0 -1 0
    outer loop
      vertex 50.5 18 -4
      vertex 51 18 -5
      vertex 51 18 -1
    endloop
  endfacet
  facet normal 0 -1 0
    outer loop
      vertex 51 18 -5
      vertex 50.5 18 -4
      vertex 25 18 -5
    endloop
  endfacet
  facet normal 0 1 -0
    outer loop
      vertex 64 5 -5
      vertex 51 5 -1
      vertex 64 5 -1
    endloop
  endfacet
  facet normal 0 1 0
    outer loop
      vertex 51 5 -1
      vertex 64 5 -5
      vertex 51 5 -5
    endloop
  endfacet
  facet normal 0 -1 0
    outer loop
      vertex 51 7 -5
      vertex 64 7 -1
      vertex 51 7 -1
    endloop
  endfacet
  facet normal 0 -1 -0
    outer loop
      vertex 64 7 -1
      vertex 51 7 -5
      vertex 64 7 -5
    endloop
  endfacet
  facet normal 0 -1 0
    outer loop
      vertex 51 -4.75 -5
      vertex 64 -4.75 -1
      vertex 51 -4.75 -1
    endloop
  endfacet
  facet normal 0 -1 -0
    outer loop
      vertex 64 -4.75 -1
      vertex 51 -4.75 -5
      vertex 64 -4.75 -5
    endloop
  endfacet
  facet normal 0 1 -0
    outer loop
      vertex 64 -7.25 -5
      vertex 51 -7.25 -1
      vertex 64 -7.25 -1
    endloop
  endfacet
  facet normal 0 1 0
    outer loop
      vertex 51 -7.25 -1
      vertex 64 -7.25 -5
      vertex 51 -7.25 -5
    endloop
  endfacet
  facet normal 1 -0 0
    outer loop
      vertex -40 30 -4
      vertex -40 34 -5
      vertex -40 34 -4
    endloop
  endfacet
  facet normal 1 0 0
    outer loop
      vertex -40 34 -5
      vertex -40 30 -4
      vertex -40 30 -5
    endloop
  endfacet
  facet normal 0 0 -1
    outer loop
      vertex 50.5 30 -1
      vertex 64 34 -1
      vertex 64 30 -1
    endloop
  endfacet
  facet normal -0 0 -1
    outer loop
      vertex 64 34 -1
      vertex 50.5 30 -1
      vertex 50.5 34 -1
    endloop
  endfacet
  facet normal 0 -1 0
    outer loop
      vertex -40 34 -4
      vertex -40 34 -5
      vertex 50.5 34 -4
    endloop
  endfacet
  facet normal 0 -1 0
    outer loop
      vertex 50.5 34 -4
      vertex 64 34 -1
      vertex 50.5 34 -1
    endloop
  endfacet
  facet normal 0 -1 0
    outer loop
      vertex 50.5 34 -4
      vertex 64 34 -5
      vertex 64 34 -1
    endloop
  endfacet
  facet normal 0 -1 0
    outer loop
      vertex 64 34 -5
      vertex 50.5 34 -4
      vertex -40 34 -5
    endloop
  endfacet
  facet normal 0 1 0
    outer loop
      vertex 64 30 -1
      vertex 50.5 30 -4
      vertex 50.5 30 -1
    endloop
  endfacet
  facet normal 0 1 -0
    outer loop
      vertex 64 30 -5
      vertex 50.5 30 -4
      vertex 64 30 -1
    endloop
  endfacet
  facet normal 0 1 0
    outer loop
      vertex -40 30 -5
      vertex 50.5 30 -4
      vertex 64 30 -5
    endloop
  endfacet
  facet normal 0 1 0
    outer loop
      vertex 50.5 30 -4
      vertex -40 30 -5
      vertex -40 30 -4
    endloop
  endfacet
  facet normal -1 0 0
    outer loop
      vertex 30 50.48 -4
      vertex 30 51.98 0.5
      vertex 30 51.98 -4
    endloop
  endfacet
  facet normal -1 -0 0
    outer loop
      vertex 30 51.98 0.5
      vertex 30 50.48 -4
      vertex 30 50.48 0.5
    endloop
  endfacet
  facet normal -0 0 1
    outer loop
      vertex 30 51.98 0.5
      vertex 32 50.48 0.5
      vertex 32 51.98 0.5
    endloop
  endfacet
  facet normal 0 0 1
    outer loop
      vertex 32 50.48 0.5
      vertex 30 51.98 0.5
      vertex 30 50.48 0.5
    endloop
  endfacet
  facet normal 1 -0 0
    outer loop
      vertex 32 50.48 0.5
      vertex 32 51.98 -4
      vertex 32 51.98 0.5
    endloop
  endfacet
  facet normal 1 0 0
    outer loop
      vertex 32 51.98 -4
      vertex 32 50.48 0.5
      vertex 32 50.48 -4
    endloop
  endfacet
  facet normal 0 1 -0
    outer loop
      vertex 32 51.98 -4
      vertex 30 51.98 0.5
      vertex 32 51.98 0.5
    endloop
  endfacet
  facet normal 0 1 0
    outer loop
      vertex 30 51.98 0.5
      vertex 32 51.98 -4
      vertex 30 51.98 -4
    endloop
  endfacet
  facet normal 0 -1 0
    outer loop
      vertex 30 50.48 -4
      vertex 32 50.48 0.5
      vertex 30 50.48 0.5
    endloop
  endfacet
  facet normal 0 -1 -0
    outer loop
      vertex 32 50.48 0.5
      vertex 30 50.48 -4
      vertex 32 50.48 -4
    endloop
  endfacet
  facet normal -1 0 0
    outer loop
      vertex 30 -52 -4
      vertex 30 -50.5 0.5
      vertex 30 -50.5 -4
    endloop
  endfacet
  facet normal -1 -0 0
    outer loop
      vertex 30 -50.5 0.5
      vertex 30 -52 -4
      vertex 30 -52 0.5
    endloop
  endfacet
  facet normal -0 0 1
    outer loop
      vertex 30 -50.5 0.5
      vertex 32 -52 0.5
      vertex 32 -50.5 0.5
    endloop
  endfacet
  facet normal 0 0 1
    outer loop
      vertex 32 -52 0.5
      vertex 30 -50.5 0.5
      vertex 30 -52 0.5
    endloop
  endfacet
  facet normal 1 -0 0
    outer loop
      vertex 32 -52 0.5
      vertex 32 -50.5 -4
      vertex 32 -50.5 0.5
    endloop
  endfacet
  facet normal 1 0 0
    outer loop
      vertex 32 -50.5 -4
      vertex 32 -52 0.5
      vertex 32 -52 -4
    endloop
  endfacet
  facet normal 0 1 -0
    outer loop
      vertex 32 -50.5 -4
      vertex 30 -50.5 0.5
      vertex 32 -50.5 0.5
    endloop
  endfacet
  facet normal 0 1 0
    outer loop
      vertex 30 -50.5 0.5
      vertex 32 -50.5 -4
      vertex 30 -50.5 -4
    endloop
  endfacet
  facet normal -1 0 0
    outer loop
      vertex -30 50.48 -4
      vertex -30 52 0.5
      vertex -30 52 -4
    endloop
  endfacet
  facet normal -1 -0 0
    outer loop
      vertex -30 52 0.5
      vertex -30 50.48 -4
      vertex -30 50.48 0.5
    endloop
  endfacet
  facet normal -0 0 1
    outer loop
      vertex -30 52 0.5
      vertex -28 50.48 0.5
      vertex -28 52 0.5
    endloop
  endfacet
  facet normal 0 0 1
    outer loop
      vertex -28 50.48 0.5
      vertex -30 52 0.5
      vertex -30 50.48 0.5
    endloop
  endfacet
  facet normal 1 -0 0
    outer loop
      vertex -28 50.48 0.5
      vertex -28 52 -4
      vertex -28 52 0.5
    endloop
  endfacet
  facet normal 1 0 0
    outer loop
      vertex -28 52 -4
      vertex -28 50.48 0.5
      vertex -28 50.48 -4
    endloop
  endfacet
  facet normal 0 -1 0
    outer loop
      vertex -30 50.48 -4
      vertex -28 50.48 0.5
      vertex -30 50.48 0.5
    endloop
  endfacet
  facet normal 0 -1 -0
    outer loop
      vertex -28 50.48 0.5
      vertex -30 50.48 -4
      vertex -28 50.48 -4
    endloop
  endfacet
  facet normal -1 0 0
    outer loop
      vertex -10 50.5 -4
      vertex -10 52 0.5
      vertex -10 52 -4
    endloop
  endfacet
  facet normal -1 -0 0
    outer loop
      vertex -10 52 0.5
      vertex -10 50.5 -4
      vertex -10 50.5 0.5
    endloop
  endfacet
  facet normal -0 0 1
    outer loop
      vertex -10 52 0.5
      vertex -8 50.5 0.5
      vertex -8 52 0.5
    endloop
  endfacet
  facet normal 0 0 1
    outer loop
      vertex -8 50.5 0.5
      vertex -10 52 0.5
      vertex -10 50.5 0.5
    endloop
  endfacet
  facet normal 1 -0 0
    outer loop
      vertex -8 50.5 0.5
      vertex -8 52 -4
      vertex -8 52 0.5
    endloop
  endfacet
  facet normal 1 0 0
    outer loop
      vertex -8 52 -4
      vertex -8 50.5 0.5
      vertex -8 50.5 -4
    endloop
  endfacet
  facet normal 0 -1 0
    outer loop
      vertex -10 50.5 -4
      vertex -8 50.5 0.5
      vertex -10 50.5 0.5
    endloop
  endfacet
  facet normal 0 -1 -0
    outer loop
      vertex -8 50.5 0.5
      vertex -10 50.5 -4
      vertex -8 50.5 -4
    endloop
  endfacet
  facet normal -1 0 0
    outer loop
      vertex -30 -52 -4
      vertex -30 -50.5 0.5
      vertex -30 -50.5 -4
    endloop
  endfacet
  facet normal -1 -0 0
    outer loop
      vertex -30 -50.5 0.5
      vertex -30 -52 -4
      vertex -30 -52 0.5
    endloop
  endfacet
  facet normal -0 0 1
    outer loop
      vertex -30 -50.5 0.5
      vertex -28 -52 0.5
      vertex -28 -50.5 0.5
    endloop
  endfacet
  facet normal 0 0 1
    outer loop
      vertex -28 -52 0.5
      vertex -30 -50.5 0.5
      vertex -30 -52 0.5
    endloop
  endfacet
  facet normal 1 -0 0
    outer loop
      vertex -28 -52 0.5
      vertex -28 -50.5 -4
      vertex -28 -50.5 0.5
    endloop
  endfacet
  facet normal 1 0 0
    outer loop
      vertex -28 -50.5 -4
      vertex -28 -52 0.5
      vertex -28 -52 -4
    endloop
  endfacet
  facet normal 0 1 -0
    outer loop
      vertex -28 -50.5 -4
      vertex -30 -50.5 0.5
      vertex -28 -50.5 0.5
    endloop
  endfacet
  facet normal 0 1 0
    outer loop
      vertex -30 -50.5 0.5
      vertex -28 -50.5 -4
      vertex -30 -50.5 -4
    endloop
  endfacet
endsolid OpenSCAD_Model
