solid OpenSCAD_Model
  facet normal -1 0 0
    outer loop
      vertex -50 -50 -3.5
      vertex -50 50 2.5
      vertex -50 50 -3.5
    endloop
  endfacet
  facet normal -1 -0 0
    outer loop
      vertex -50 50 2.5
      vertex -50 -50 -3.5
      vertex -50 -50 2.5
    endloop
  endfacet
  facet normal 0 0 1
    outer loop
      vertex 51.5 51.5 3.5
      vertex 45 45 3.5
      vertex 51.5 -51.5 3.5
    endloop
  endfacet
  facet normal 0 0 1
    outer loop
      vertex 51.5 51.5 3.5
      vertex -45 45 3.5
      vertex 45 45 3.5
    endloop
  endfacet
  facet normal 0 0 1
    outer loop
      vertex -45 45 3.5
      vertex -51.5 51.5 3.5
      vertex -45 -45 3.5
    endloop
  endfacet
  facet normal -0 0 1
    outer loop
      vertex -51.5 51.5 3.5
      vertex -45 45 3.5
      vertex 51.5 51.5 3.5
    endloop
  endfacet
  facet normal -0 0 1
    outer loop
      vertex 45 -45 3.5
      vertex 51.5 -51.5 3.5
      vertex 45 45 3.5
    endloop
  endfacet
  facet normal -0 0 1
    outer loop
      vertex -45 -45 3.5
      vertex 51.5 -51.5 3.5
      vertex 45 -45 3.5
    endloop
  endfacet
  facet normal 0 0 1
    outer loop
      vertex -45 -45 3.5
      vertex -51.5 -51.5 3.5
      vertex 51.5 -51.5 3.5
    endloop
  endfacet
  facet normal 0 0 1
    outer loop
      vertex -51.5 -51.5 3.5
      vertex -45 -45 3.5
      vertex -51.5 51.5 3.5
    endloop
  endfacet
  facet normal 1 -0 0
    outer loop
      vertex 50 -50 2.5
      vertex 50 50 -3.5
      vertex 50 50 2.5
    endloop
  endfacet
  facet normal 1 0 0
    outer loop
      vertex 50 50 -3.5
      vertex 50 -50 2.5
      vertex 50 -50 -3.5
    endloop
  endfacet
  facet normal 0 1 -0
    outer loop
      vertex 50 50 -3.5
      vertex -50 50 2.5
      vertex 50 50 2.5
    endloop
  endfacet
  facet normal 0 1 0
    outer loop
      vertex -50 50 2.5
      vertex 50 50 -3.5
      vertex -50 50 -3.5
    endloop
  endfacet
  facet normal 0 0 -1
    outer loop
      vertex 50 -50 -3.5
      vertex 45 -45 -3.5
      vertex 50 50 -3.5
    endloop
  endfacet
  facet normal 0 0 -1
    outer loop
      vertex 50 -50 -3.5
      vertex -45 -45 -3.5
      vertex 45 -45 -3.5
    endloop
  endfacet
  facet normal -0 0 -1
    outer loop
      vertex -45 -45 -3.5
      vertex -50 -50 -3.5
      vertex -45 45 -3.5
    endloop
  endfacet
  facet normal 0 0 -1
    outer loop
      vertex -50 -50 -3.5
      vertex -45 -45 -3.5
      vertex 50 -50 -3.5
    endloop
  endfacet
  facet normal 0 0 -1
    outer loop
      vertex 45 45 -3.5
      vertex 50 50 -3.5
      vertex 45 -45 -3.5
    endloop
  endfacet
  facet normal 0 0 -1
    outer loop
      vertex -45 45 -3.5
      vertex 50 50 -3.5
      vertex 45 45 -3.5
    endloop
  endfacet
  facet normal 0 0 -1
    outer loop
      vertex -45 45 -3.5
      vertex -50 50 -3.5
      vertex 50 50 -3.5
    endloop
  endfacet
  facet normal 0 0 -1
    outer loop
      vertex -50 50 -3.5
      vertex -45 45 -3.5
      vertex -50 -50 -3.5
    endloop
  endfacet
  facet normal 0 -1 0
    outer loop
      vertex -50 -50 -3.5
      vertex 50 -50 2.5
      vertex -50 -50 2.5
    endloop
  endfacet
  facet normal 0 -1 -0
    outer loop
      vertex 50 -50 2.5
      vertex -50 -50 -3.5
      vertex 50 -50 -3.5
    endloop
  endfacet
  facet normal -1 0 0
    outer loop
      vertex -51.5 -51.5 2.5
      vertex -51.5 51.5 3.5
      vertex -51.5 51.5 2.5
    endloop
  endfacet
  facet normal -1 -0 0
    outer loop
      vertex -51.5 51.5 3.5
      vertex -51.5 -51.5 2.5
      vertex -51.5 -51.5 3.5
    endloop
  endfacet
  facet normal 1 -0 0
    outer loop
      vertex 51.5 -51.5 3.5
      vertex 51.5 51.5 2.5
      vertex 51.5 51.5 3.5
    endloop
  endfacet
  facet normal 1 0 0
    outer loop
      vertex 51.5 51.5 2.5
      vertex 51.5 -51.5 3.5
      vertex 51.5 -51.5 2.5
    endloop
  endfacet
  facet normal 0 0 -1
    outer loop
      vertex 51.5 -51.5 2.5
      vertex 50 -50 2.5
      vertex 51.5 51.5 2.5
    endloop
  endfacet
  facet normal 0 0 -1
    outer loop
      vertex 51.5 -51.5 2.5
      vertex -50 -50 2.5
      vertex 50 -50 2.5
    endloop
  endfacet
  facet normal -0 0 -1
    outer loop
      vertex -50 -50 2.5
      vertex -51.5 -51.5 2.5
      vertex -50 50 2.5
    endloop
  endfacet
  facet normal 0 0 -1
    outer loop
      vertex -51.5 -51.5 2.5
      vertex -50 -50 2.5
      vertex 51.5 -51.5 2.5
    endloop
  endfacet
  facet normal 0 0 -1
    outer loop
      vertex 50 50 2.5
      vertex 51.5 51.5 2.5
      vertex 50 -50 2.5
    endloop
  endfacet
  facet normal 0 0 -1
    outer loop
      vertex -50 50 2.5
      vertex 51.5 51.5 2.5
      vertex 50 50 2.5
    endloop
  endfacet
  facet normal 0 0 -1
    outer loop
      vertex -50 50 2.5
      vertex -51.5 51.5 2.5
      vertex 51.5 51.5 2.5
    endloop
  endfacet
  facet normal 0 0 -1
    outer loop
      vertex -51.5 51.5 2.5
      vertex -50 50 2.5
      vertex -51.5 -51.5 2.5
    endloop
  endfacet
  facet normal 0 -1 0
    outer loop
      vertex -51.5 -51.5 2.5
      vertex 51.5 -51.5 3.5
      vertex -51.5 -51.5 3.5
    endloop
  endfacet
  facet normal 0 -1 -0
    outer loop
      vertex 51.5 -51.5 3.5
      vertex -51.5 -51.5 2.5
      vertex 51.5 -51.5 2.5
    endloop
  endfacet
  facet normal 0 1 -0
    outer loop
      vertex 51.5 51.5 2.5
      vertex -51.5 51.5 3.5
      vertex 51.5 51.5 3.5
    endloop
  endfacet
  facet normal 0 1 0
    outer loop
      vertex -51.5 51.5 3.5
      vertex 51.5 51.5 2.5
      vertex -51.5 51.5 2.5
    endloop
  endfacet
  facet normal 1 -0 0
    outer loop
      vertex -45 -45 3.5
      vertex -45 45 -3.5
      vertex -45 45 3.5
    endloop
  endfacet
  facet normal 1 0 0
    outer loop
      vertex -45 45 -3.5
      vertex -45 -45 3.5
      vertex -45 -45 -3.5
    endloop
  endfacet
  facet normal -1 0 0
    outer loop
      vertex 45 -45 -3.5
      vertex 45 45 3.5
      vertex 45 45 -3.5
    endloop
  endfacet
  facet normal -1 -0 0
    outer loop
      vertex 45 45 3.5
      vertex 45 -45 -3.5
      vertex 45 -45 3.5
    endloop
  endfacet
  facet normal 0 1 -0
    outer loop
      vertex 45 -45 -3.5
      vertex -45 -45 3.5
      vertex 45 -45 3.5
    endloop
  endfacet
  facet normal 0 1 0
    outer loop
      vertex -45 -45 3.5
      vertex 45 -45 -3.5
      vertex -45 -45 -3.5
    endloop
  endfacet
  facet normal 0 -1 0
    outer loop
      vertex -45 45 -3.5
      vertex 45 45 3.5
      vertex -45 45 3.5
    endloop
  endfacet
  facet normal 0 -1 -0
    outer loop
      vertex 45 45 3.5
      vertex -45 45 -3.5
      vertex 45 45 -3.5
    endloop
  endfacet
endsolid OpenSCAD_Model
