solid OpenSCAD_Model
  facet normal -1 0 0
    outer loop
      vertex 0 0 0
      vertex 0 50 6
      vertex 0 50 0
    endloop
  endfacet
  facet normal -1 -0 0
    outer loop
      vertex 0 50 6
      vertex 0 0 0
      vertex 0 0 6
    endloop
  endfacet
  facet normal 0 0 1
    outer loop
      vertex 25 50 6
      vertex 0 50 6
      vertex 25 27 6
    endloop
  endfacet
  facet normal 0 0 1
    outer loop
      vertex 76 27 6
      vertex 100 50 6
      vertex 76 50 6
    endloop
  endfacet
  facet normal 0 0 1
    outer loop
      vertex 100 50 6
      vertex 76 27 6
      vertex 100 0 6
    endloop
  endfacet
  facet normal -0 0 1
    outer loop
      vertex 25 27 6
      vertex 100 0 6
      vertex 76 27 6
    endloop
  endfacet
  facet normal 0 0 1
    outer loop
      vertex 25 27 6
      vertex 0 0 6
      vertex 100 0 6
    endloop
  endfacet
  facet normal 0 0 1
    outer loop
      vertex 0 0 6
      vertex 25 27 6
      vertex 0 50 6
    endloop
  endfacet
  facet normal 1 -0 0
    outer loop
      vertex 100 0 6
      vertex 100 50 0
      vertex 100 50 6
    endloop
  endfacet
  facet normal 1 0 0
    outer loop
      vertex 100 50 0
      vertex 100 0 6
      vertex 100 0 0
    endloop
  endfacet
  facet normal 0 0 -1
    outer loop
      vertex 0 0 0
      vertex 100 50 0
      vertex 100 0 0
    endloop
  endfacet
  facet normal -0 0 -1
    outer loop
      vertex 100 50 0
      vertex 0 0 0
      vertex 0 50 0
    endloop
  endfacet
  facet normal 0 -1 0
    outer loop
      vertex 0 0 0
      vertex 100 0 6
      vertex 0 0 6
    endloop
  endfacet
  facet normal 0 -1 -0
    outer loop
      vertex 100 0 6
      vertex 0 0 0
      vertex 100 0 0
    endloop
  endfacet
  facet normal 0 1 0
    outer loop
      vertex 100 50 6
      vertex 76 50 3
      vertex 76 50 6
    endloop
  endfacet
  facet normal 0 1 0
    outer loop
      vertex 76 50 3
      vertex 100 50 0
      vertex 25 50 3
    endloop
  endfacet
  facet normal 0 1 -0
    outer loop
      vertex 100 50 0
      vertex 76 50 3
      vertex 100 50 6
    endloop
  endfacet
  facet normal 0 1 -0
    outer loop
      vertex 25 50 3
      vertex 0 50 6
      vertex 25 50 6
    endloop
  endfacet
  facet normal 0 1 0
    outer loop
      vertex 25 50 3
      vertex 0 50 0
      vertex 0 50 6
    endloop
  endfacet
  facet normal 0 1 0
    outer loop
      vertex 0 50 0
      vertex 25 50 3
      vertex 100 50 0
    endloop
  endfacet
  facet normal 1 -0 0
    outer loop
      vertex 25 27 6
      vertex 25 50 3
      vertex 25 50 6
    endloop
  endfacet
  facet normal 1 0 0
    outer loop
      vertex 25 50 3
      vertex 25 27 6
      vertex 25 27 3
    endloop
  endfacet
  facet normal -1 0 0
    outer loop
      vertex 76 27 3
      vertex 76 50 6
      vertex 76 50 3
    endloop
  endfacet
  facet normal -1 -0 0
    outer loop
      vertex 76 50 6
      vertex 76 27 3
      vertex 76 27 6
    endloop
  endfacet
  facet normal -0 0 1
    outer loop
      vertex 25 50 3
      vertex 76 27 3
      vertex 76 50 3
    endloop
  endfacet
  facet normal 0 0 1
    outer loop
      vertex 76 27 3
      vertex 25 50 3
      vertex 25 27 3
    endloop
  endfacet
  facet normal 0 1 -0
    outer loop
      vertex 76 27 3
      vertex 25 27 6
      vertex 76 27 6
    endloop
  endfacet
  facet normal 0 1 0
    outer loop
      vertex 25 27 6
      vertex 76 27 3
      vertex 25 27 3
    endloop
  endfacet
endsolid OpenSCAD_Model
